<mxfile host="app.diagrams.net" modified="2023-10-26T15:44:00.392Z" agent="Mozilla/5.0 (Windows NT 10.0; Win64; x64) AppleWebKit/537.36 (KHTML, like Gecko) Chrome/118.0.0.0 Safari/537.36 Edg/118.0.2088.69" etag="56cDy510wsMlHhP0lvA2" version="22.0.8" type="github">
  <diagram name="Página-1" id="dEJGY9LAbtKT8eE1fh9m">
    <mxGraphModel dx="956" dy="535" grid="1" gridSize="10" guides="1" tooltips="1" connect="1" arrows="1" fold="1" page="1" pageScale="1" pageWidth="827" pageHeight="1169" math="0" shadow="0">
      <root>
        <mxCell id="0" />
        <mxCell id="1" parent="0" />
        <mxCell id="2c84H_mFhP0OiNRYd1Ep-6" value="ID" style="ellipse;whiteSpace=wrap;html=1;" parent="1" vertex="1">
          <mxGeometry x="107.37" y="255" width="70" height="40" as="geometry" />
        </mxCell>
        <mxCell id="2c84H_mFhP0OiNRYd1Ep-9" value="DATA PARTIDA" style="ellipse;whiteSpace=wrap;html=1;" parent="1" vertex="1">
          <mxGeometry x="351.12" y="255" width="118.88" height="40" as="geometry" />
        </mxCell>
        <mxCell id="2c84H_mFhP0OiNRYd1Ep-10" value="HORA PARTIDA" style="ellipse;whiteSpace=wrap;html=1;" parent="1" vertex="1">
          <mxGeometry x="351.12" y="305" width="112.5" height="40" as="geometry" />
        </mxCell>
        <mxCell id="2c84H_mFhP0OiNRYd1Ep-11" value="MATRÍCULA" style="ellipse;whiteSpace=wrap;html=1;" parent="1" vertex="1">
          <mxGeometry x="622.24" y="255" width="97.63" height="40" as="geometry" />
        </mxCell>
        <mxCell id="2c84H_mFhP0OiNRYd1Ep-12" value="NOME" style="ellipse;whiteSpace=wrap;html=1;" parent="1" vertex="1">
          <mxGeometry x="614.87" y="305" width="105" height="40" as="geometry" />
        </mxCell>
        <mxCell id="2c84H_mFhP0OiNRYd1Ep-25" value="" style="endArrow=none;html=1;rounded=0;" parent="1" edge="1">
          <mxGeometry width="50" height="50" relative="1" as="geometry">
            <mxPoint x="202.37" y="205" as="sourcePoint" />
            <mxPoint x="342.37" y="205" as="targetPoint" />
          </mxGeometry>
        </mxCell>
        <mxCell id="2c84H_mFhP0OiNRYd1Ep-1" value="PILOTO" style="rounded=0;whiteSpace=wrap;html=1;" parent="1" vertex="1">
          <mxGeometry x="94.87" y="180" width="100" height="50" as="geometry" />
        </mxCell>
        <mxCell id="2c84H_mFhP0OiNRYd1Ep-37" value="1" style="text;html=1;strokeColor=none;fillColor=none;align=center;verticalAlign=middle;whiteSpace=wrap;rounded=0;" parent="1" vertex="1">
          <mxGeometry x="184.37" y="180" width="60" height="30" as="geometry" />
        </mxCell>
        <mxCell id="2c84H_mFhP0OiNRYd1Ep-38" value="1" style="text;html=1;strokeColor=none;fillColor=none;align=center;verticalAlign=middle;whiteSpace=wrap;rounded=0;" parent="1" vertex="1">
          <mxGeometry x="312.37" y="180" width="60" height="30" as="geometry" />
        </mxCell>
        <mxCell id="sN6ll9Y3iF8QySrxCl4U-4" value="LOCAL ORIGEM" style="ellipse;whiteSpace=wrap;html=1;" parent="1" vertex="1">
          <mxGeometry x="350.5" y="355" width="113.75" height="40" as="geometry" />
        </mxCell>
        <mxCell id="sN6ll9Y3iF8QySrxCl4U-6" value="" style="endArrow=none;html=1;rounded=0;entryX=0.19;entryY=0.4;entryDx=0;entryDy=0;entryPerimeter=0;" parent="1" source="2c84H_mFhP0OiNRYd1Ep-1" target="2c84H_mFhP0OiNRYd1Ep-3" edge="1">
          <mxGeometry width="50" height="50" relative="1" as="geometry">
            <mxPoint x="472.37" y="205" as="sourcePoint" />
            <mxPoint x="607.37" y="204.5" as="targetPoint" />
          </mxGeometry>
        </mxCell>
        <mxCell id="sN6ll9Y3iF8QySrxCl4U-5" value="efectua" style="rhombus;whiteSpace=wrap;html=1;" parent="1" vertex="1">
          <mxGeometry x="489.87" y="170" width="100" height="70" as="geometry" />
        </mxCell>
        <mxCell id="sN6ll9Y3iF8QySrxCl4U-9" value="N" style="text;html=1;strokeColor=none;fillColor=none;align=center;verticalAlign=middle;whiteSpace=wrap;rounded=0;" parent="1" vertex="1">
          <mxGeometry x="442.37" y="180" width="60" height="30" as="geometry" />
        </mxCell>
        <mxCell id="sN6ll9Y3iF8QySrxCl4U-10" value="1" style="text;html=1;strokeColor=none;fillColor=none;align=center;verticalAlign=middle;whiteSpace=wrap;rounded=0;" parent="1" vertex="1">
          <mxGeometry x="572.37" y="180" width="60" height="30" as="geometry" />
        </mxCell>
        <mxCell id="2c84H_mFhP0OiNRYd1Ep-3" value="AVIÃO" style="rounded=0;whiteSpace=wrap;html=1;" parent="1" vertex="1">
          <mxGeometry x="622.37" y="185" width="105" height="50" as="geometry" />
        </mxCell>
        <mxCell id="2c84H_mFhP0OiNRYd1Ep-2" value="VÔO" style="rounded=0;whiteSpace=wrap;html=1;" parent="1" vertex="1">
          <mxGeometry x="364.87" y="180" width="85" height="50" as="geometry" />
        </mxCell>
        <mxCell id="2c84H_mFhP0OiNRYd1Ep-26" value="efectua" style="rhombus;whiteSpace=wrap;html=1;" parent="1" vertex="1">
          <mxGeometry x="232.37" y="170" width="100" height="70" as="geometry" />
        </mxCell>
        <mxCell id="2Cuy6g12Aj8nrBfPKS-0-24" value="" style="shape=image;verticalLabelPosition=bottom;labelBackgroundColor=default;verticalAlign=top;aspect=fixed;imageAspect=0;image=data:image/png,iVBORw0KGgoAAAANSUhEUgAABC4AAACeCAYAAAD9qkvAAAAAAXNSR0IArs4c6QAAAARnQU1BAACxjwv8YQUAAAAJcEhZcwAAEnQAABJ0Ad5mH3gAAP+lSURBVHhe7J0FeBTJ1oaXJKNxdyHECMGCJrg7BAju7u7ui7u7Le7u7u4ESAgJEHe3mfn+0z2TyUyMwMJddv9+78Pz3O1091RXnTp1ztdV1X+Ag4ODg4ODg4ODg4ODg4OD4zeFEy44ODg4ODg4ODg4ODg4ODh+WzjhgoODg4ODg4ODg4ODg4OD47eFEy44ODg4ODg4ODg4ODg4ODh+WzjhgoODg4ODg4ODg4ODg4OD47eFEy44ODg4ODg4ODg4ODg4ODh+WzjhgoODg4ODg4ODg4ODg4OD47eFEy44ODg4ODg4ODg4ODg4ODh+WzjhgoODg4ODg4ODg4ODg4OD47eFEy44ODg4ODg4ODg4ODg4ODh+WzjhgoODg4ODg4ODg4ODg4OD47eFEy44ODg4ODg4ODg4ODg4ODh+WzjhgoODg4ODg4ODg4ODg4OD47eFEy44ODg4ODg4ODg4ODg4ODh+WzjhgoODg4ODg4ODg4ODg4OD47eFEy44ODg4ODg4ODg4ODg4ODh+WzjhgoPjN0EmzUJyUiJS0jIURzh+BVJJOkI/ByE0KgEyxbH/v8iQkZqM1PRMxX9T/WSlIzkt57//68ikmUhKSkaW9N9jDVkZqUhOzVDar0ySgeSUNM6e/xNIkZachNQMieK/8ychOhRBwV+QlilVHPlfI0Ma4zsyCy/nfw1pWhy+BAUhIjETsp/c4aSZ5HvJF0mk/1SbcnBw/JeRZqaxsYL0Zzuv/yH/EeFChuSIIDx7+hSBoXGKYxwc/y6e7xwOz9KlUL5RX4Rn/f8KBv+XvD85GcXNTDBk3Z3vSlY/f3iDoOj0f2dymBEHv9dvkZTLrt5f2YDaVcqjXJV6mL33EVIkMjw+NA1VO65A5DcSp/8lSTEhePHsOT6FxtKAqzj4k3h/Yzm8ypXDqpNvKWH4vVo3IfwTXr//gkyVcoU9OoAWNSqiTLnKGL3yODKypPA/vRS1W/TEp6gcMYPj34k04j7aVfVEswl7kJaRpTiaiwx/dPMugeJV++B9ZOpPT6CLgiz5AXpUq4jqw/chJb2Acv7XkCRh94gmsLavgF1vYqlfKo7/FGS4tnECKnk3xDO/z5D+i4RUDg6OfwGyDJye2Ahe1drjUlgcMv+lLubfLVxkJuLOoRVoXsUZvGLF8Mcff6CYlghuNTvhzPOvipP+98QGn0fDimUxdPlFSPKLKLJeo2ut8mg6dCcSf4PBKTMxHPduXsO1G/cQmvD/JAD5QaKC3uL61Su4++Ijsn5ytHh9dj3wNIpBw6oa/NMlv1UCEvOZnvvWPcSk/Ltng6R+vYUm9joo13E+QtOKnphLAtfBUawJi9J9EZyc9S9LDrNwYnJz8DT5qLvoKTIkitJLQzGwghnKtOqH7j41YSDWRqOOvVHfwwKuffYgiRLifxRpCh6f3Y72tT2gw9dg/fsff1AbuHlh8pqjCEnI/Cnt8OzYaBjwtTBx60NkZdfNb4BMko4e1e3BN3LCBb9Q+RsSmQRTfSvArnwz9O3UFLZGhqjo0xeNKznBscZAfEn4OcJFeuxn3LpxC4HRyf9IUvz/GcnnC/DQE8Gh3VKk5DfzKSsJh0fWhJlDVex5EYN/qpvK4i7A20AEvcbLkJT6L5qhJUmD3+O7uP/CHxLJ91Ve6OMDcLM0Qftpu5GiMkvt5yDD0RkdoW1ohzuPqWyccMHBwUFEBz7Gskl9UatKeXhWroHuYxfj0ceI758lKkvFtna20Ncri/1B0Uj/l7qYf7VwkeJ3HoYCLTh5+2L76Vt48fAKRrT2hEaxP2BUtT/i/6GIK9xvC2yEGmgwdAcy8itD+k1UMNSEbc0ZiM765y3n3YkFEFLgrqklxJj9n376G83/EusGVAOPpwWBU3sE/OQ30r+zcLF/chsIDOxw8MXnf7V9bB3VDMbFa+Lpl6TvS8iS76OdV1k0G7Ydcf90Qv/dyPD20Ax4elTEn1dCcwLirHcYWLcODgfFQJKViffnV6BupdKo3W4UAmJT/mH7k+DGir7QE/JQTGCBAbM34f7z17h1dje61ysFvhYPE3b8HKHhdxUuGJFi+bBWKF+rPd6GJMjtVSrB1G4NMHbvB2RkZeHj/UNoWqUUKjfogYsBST+tb74/OA26YiMM3PcUmb9Tnfw/4FvCRcjjw7Ax1MHYLTfZ2Tb/FP9W4UIaF4Dmpe1gV6MX4pJTFUeLgDQaMxrZw67xLAQl/IplWZxwwcHBoY5MmopBTTyga2CGriOmYnw/H+iJhSjedAJC45IUZxURTrj455EkhODQ6XtIyMgZvDNjXqKhKR/F+C7Y/fWfSf5+jnAhQ3paer6BaEbGt4IEGTJTU5BZxKDG79if0KKE+Y8/tDByT2DhwS89T2YByxgkWenftd42KyMDhes29FtpqUUMnGVUL0WZDSBFWmrqd7ylyqJkJufkNX2rQIPqStOhDT5kFGxf0qyMIk2fzcrMoBRNTlGEi6yMNHYPjKLUCFt/6fmfy+6nkUL2pfjvb7Fvog+0dK2x/3nhwgXz3GlFXPMskzB1m/dmzDpf5ayAn0x44Fu8DiracgPGnoseOzL9lfrcNyuUaZPvXW7C7EOR8kv3YJBRQpySnFK055VRH0r/xmwHOic9lVlHqfjv7yQ5+Bwq2ujC2LE6Tr8Mp/vk3EiamYz7xzfj2oswteMMTP9IL4IYzPie7Kb6lnAhzUilBPH7Rcqi+oAfh2yO6rgoVSxh1s6nFX2m0Lv9UyAS6KPfnieF+t/v6u8ySf71KM1EekFLIn4E5neK8DY8K51spYhlz6LnzBcqO9MXvhe2vzH+N5+q/ZZwkZEcjWdP3yChiOJ2ZmZ+fZXxKdQ/Ff9VZOh5MxR19i3hQibJRErqjy+tY/bayc/nZWXQ8W/cVCYluyzApqRx/mjibg0r7x7fFC5kVAblMi1ZBr76v0dkEj1Tvr/PjAE/7vOY678lXGSSzf7smZ7fAxN75v11siVmTPuRYsmyqM6KsFcIO57QGFjkGTI0zuYXDzJjF8VP32wj8iGpZLv/lHgkzaJ+lo/fZfYy+lYdMP2OKfuP7mHA+PT8+x0Trxd+T6bfMb68KL8sofvlOyOdYGLArML2eSG7SWP62j/UPkwdM6Jx7l9nXgD96PIx5lomlc19z4xXy1HKQh/NJp0k30N+VpKEwwM8YajvhDWPwpH6zSFMEXMydV0U4YIZP8nHsuf/pvz3NueURmBSOR0U03LAxoB/Zkr3DwkX0jAsGDUAKy8G48uTY/CtWoIVE+w8W+Loc2ZKUCbe3z6ABqXM6LgWbCu0xJlnX1QCDxkSQt5i1eRe8LA3YWedaIoM4d1mOO5/jM6/HmRpuLRkBFrVLk/nM8KFBkpW90Gnzl2wcO8N1nAjHh3EoN69MHzpWQQ8P4Nm7ibQ4ulj7B4/1vknhL3HrnlDUcnFCgIqb7FiWiheti4WH36IZJUZCbf2L0WPnn2x6+Y7fH5xCT3qukOkVQwCQweMWHkScekqT5KVhGu7/0QNdyt61j+gJdSHZ6OeuJ39HJIvWD6uP/oMnoQ3QWG4sG0aPKz0oUn1YlmqAfbefK/uYOn/xwQ9xYIhrWFnKGKnnGvy9eHdahDOPA1SCcyleHp8Hfr27IOFJ1/j1cWNKGMmBF/PFRuuv8X4QX1Q2cWUnvEPaOjao1WnTujSpTcuvpW/DU2O+YIT66eiZhl7iJip7cU0YOlSGZPWn0UsJQ05SBH69hp6NywDsZYGtLStMWTpYRyeWCtf4UKanoB7x9ejccUSEPE06b6aMLEvi5FL9iIsQWVwloZgzYSB6Nl/NJ68f49Vg+pBh68Jr+4L2MEuMyUWD05vgm+dcjAQ86keikHPwhldx69BYHRqvjaSGfYKg3p0Qw0PO2jwxKjZrDVrH92GbES40kNnIfDhSfRoVB56Ak32vNL1u+Pk42CVwTMT93bOxbAZa5GcGIHtM3rAQpsPTW1L9JixE/H0vKmxQdgwtjVM6LjQwAbd5x1FZEr+SYE0JRpLJg3FmPnb8iROkvhPmDOsL6asP0OBBwU88WE4zrRLaTsIeRoopimAi5cP/rrxXi0wiX6wB4OGTsW7uChsmdQeupTMGpXshpep5Eck4Vg0pj+mbb2DNJVr0pMicX7jRFR0NCH7I7vg6cKr1RBcfhOqlvBJM5Jw/+ACeDmZssKXwNAW3afvRGKBChr1vQ/3MWeIL5wtDeiaP8DTMUPTfrPwPiKZbStpeiJWTx+OkbPWI1HNvqgOEr9i4ZiBmLTqKDsdOubJIQzuPxynAuLVgraE0DdYMrwtHIy1UYzsQWxkh/Yjl+JDWGKu4E6KpCh/LB/dATb6AvIXGjBzrooFB+8hXmXJjSQ9Hte2TUbF4vSc5FN0zJzQd+5uJFL7Fp0MnBzMzKrgo/PyO0gvJHFm6ikx0h/b5w5BBSdz8DSp/2iJUKFpP1x4HZ4rAJMi5PVl9KxfGtpkBwJ9e4xafRyX9wyHfi7hIjU6ELsXjoJXSVvqkxp0T22UrdcV5158KTR4y0iMwsVdf6JRJWdoU9/7g/GH5Rtj/fmXSFO0deyttejfdzAOPY2lwI09pCTg2ib07z0IVz8kUVAmxdnN8zB43HyExmULFFJ8fHgaIzo1gJWBmHwRY0v26DVzO0JyLxORpMOf+mW3htQvFf7I2r065uy8ipiC3pBnhmP1kF7wqVEaWpo8uNZoio6dOqNLt8F4GZqdnFB/f3QavZpUgL5Qi+3vHvW64fjDT2r1HX1/F4YMnwH/xHhc3jELpa10oUn1WLvbNHyKTUNmaiwubRoPFzNd8vEGqNltLl6Hf+dMKOLVxU3oN2QB3nz5ihMrhsPNUp/aSwiXGp1x7vkXlT4uQ2pMMHYtGoXKrlZkX9SufF2UrtMNpx8HqZ0XfmUFhoxdDP/IT5jfpy50BXyYeY7Eh2QK3jMScOvQarStXYaOa7FjnrmLN5YcvItElZcouZFlpsDv9iH0a1UDZroCtr8Z2pTC0CVHEc4kw4rzChIuJKnROEV+rKqLBRsbaBvbo9OEDQiIylnOI0sKwPxhA7DhwgsEvbiMHnXcaCzSgolrLeykMSwjMwNhr06jY3VXen4tWJdpjJ03/CkIL7zS0xI+Y+vULtT3RdDi66FK2zG4/3gPquoJ1YQLGfm5J+d3oHPDSjAmP16MbM7UsQKmbDqPOCZBZc/KB4pvjq+bjYnzdyA05COWjWgFQxEPIpMSGL7yFHttQshLzO5RG0ZiHvkVF0zYchWxjG9W3CKT6ufqX4vRopo72/eKMXFSmbpYe/oZkth2keHDhS3o3aU1bKjvaJuVQLv2HdC5S1csPfqKTURSgh5iRP+BOHHvFa7vnAInE23oWHrhQjSzYWY89s0djiHzDiJKRbjNSovGhU1TUIVtFw0qWwl0m7BWucwq7d1hjBw0BAefRKuNCRlBtzF20GBsuBrA/jZTvvyEi+jAR1g8uitK2hhBi+pTU2CIBt2n4clnxn/k3K9IZAVg7ujBmL/vEVJUx83Mz1g3bjDGr7uIVIXYKk3ww58jhmDbjXcIeHQGHas5UfzBg2WZhth/9z0lqOkIfX4cvl7OEPD4sPVsjr23/ekZC+4DES+PYASNsbcDwnB33xxUcaJ4lieAW61u7PLu3MJxevxXHF40HJ40njA2ryU2Ru0Oo3H3QygleTnnpoW9wfjBA7D3yjN8eCQvk5Dua1OuGQ7fJfumRNj/+k40r2BPdq8Jp2odcOpFSJ6xJTX6E9ZP6y33IVTXxg6eGE/xW4RK/ywql3cvxuBR0/E+VH0sDbu1GUMHj8UV/0Tyl8wRGd6fXIThUzbQuBuIPbN7o4SpNvhiU3Seug1fyPenJ4Zj85QusNAVQqBrhe7TtiFUZdaPLCMRj8/vRNfGlWGiQ75FQ5Ptd5M3nGGX9xZYdmkGTqybgymLdiLk8wcsH0nxlw4fIlMnDFt+HDHk7xJCXmBOz3owpf6sY+aK8ZsvIyo5x/4zFP2uVQ0P6DD+UINH/a4e1p56oiauxgTex9hhw3Dy3lucXjaQfUZDl9p4FSh/MSGTZcL/zkF0rV8eOjSu8Ch/qdy8H84//SS3KVk63tw8goFta8OS+q8m9TU9S1cMXbgX4Ynf2T6U+1zZOBtDJy5BaJL67FK/GxQHDhqGO29ClPb45MwmDB75J14EBOLAQqbsuhDoWaD12M34SP43Ne4zNk/uAnsjMZXbBN2mb0MIM2YXVChZCi4vH4tJKw8h7LMf1ozvCDu6VpNyqxbDlsI/Isdm4vd2o+c1xfgTX8iPyQ8mHekDawN9DDsQTGNO/j8iy0zDhyub0axSCeqfPJg4eWPpgctY1dIiX+EiMewtVo/vCiczPapbTRg5VMDs7ecRlVSI3/6H+M8JFylBN1FSRwuCEj7wL6BBfzU/JFxkPEBVEx5KUILuamaCGr4DMXl4J1jrakHHtgJWTe0PewtLNO89GiN6NYMOM0A6NMatKMXALYvF3LrGMLQth77j5mDr9u2YQYm6jiY53zI94JeWz2AiCcPoMiYUQDFrx9X/VeyxiA2c7y7pQEZcDJpW1VHB1VhxbjH4zr1GHSsZA2tas4l87us1qANO3P+IdUgMC7ow4ogmSteqA2dTsfr5mtroNO+8YiCS4O7iFhQQU9Cvek4xHvptZX6Tzkk/jwo6mtTJRahSrhQrgKieKzByxfp70UqnkeS3D1UdDPN9TqFBcfx54aPCSWRibe/a7IBl6dUM7qYi+TXFhBi8+gxsDQV5rmfW3E874Meq1ONal6PAQr0szD8Nng7aLr2hDOrjX+5HRQriNVTP0xDC2Ehbfr6KcCFLj8GSXnWgL8hVH+w1FCxU6oa32RvypV+mQJIJpHmoUtZdWRbHBkPIAWdh/5T20KZgPc99KPAu4bMAEYrESpX0zw/QrE5tuNuRnWgJ4F6hCmrUqIFaLefgCxsMSuF/dBpKUOJr6tkO6/cdx7GdK1DT2QQ65mWx50OqvG7JVtZ0KA9du1LoXb04bNyrYeSECWhY2oqtn6aLTqFnHVdYUIA9euJY1CtjxQae/VefUxMXspFlxGBcfTfwDNxxJlL9zeG7S6vZAbTNzH303Ok4PqER9Ixs4NNnHFZv2oIVc0fBiQZNbYuKuByRLdjI8HpDD4h07dC/W0WY2ZfGkPET0aXLVLyhxFxG/dPbXADHZksQowz4UjGjUxUItCjBq94S46dMx5i+PrDU5UFo4optd5jZS/K739wyht1Don7vqTh25ix2rJyG6jXa42lBb8Gl4RhcxQSmzt4YNnUhtm3djHHdalP7acHCezw+pUrI5hIxvWU58PSdcPiT+iySwDvbKXHgoem4bTToS+C3fSAlMAYYdvqz0g7TP11A01IW0NQUomabPpg+azq6NCwLgaYWTF2b4mZwsvKeCcEP0LCUJXStSmPyqt04fXwfRrTzgpCvg+5/HqZ6lrfAvW1DYCASoFHvmTh94Tw2LxqPevWa4ROTXLFnfBtZ0gs0MxVCU7cSzoZ/Y1aQNB0Lu1SDgYUzug2fjvVbNmPRpD6suGLk1gBvwxKVfiDu2R5UtNGjZNUYrfqMwNgB7WBlpA9rB2s2IZigFC4ogRhXA7qUNHUYNBEbt26ne/aGvQ4lUmYVcfpDTr2oI8OVZb2gr2+Gxp2HYcX6LVi/ZCrK2RtAYOCMPS++solGyru1cNTlozwlprGqMzKkkZhQwxh8vaq49JV5myTBlLYVoGdbHs+C4tnnkGb4o66TEUpUaoopC1Zhy8aVGNCkJITUN2v03Uj3y7ZNGW5tGQ9bAyFE5qXQfeh4zJo6ClWczSnx1Ea9sfuQmN9sg/TPmNqyPqq420GT/IKVuyeqV6+BGrVa4H4QMyOH+vuxGXChwM3U0xdr9xzFUervtV1MoUv9fZdfkkKMkeHVus7Q1rdDv17VYUn9vteI8ejZqAzZFwW2TRZgbI+6MKXAs/+oCehYvyx4FCx59V2B1O+cfXF8bmsIRQ7wquIOPRNH9Bw2AUO7NIaYpwUDp0a4Fq54Cy5LwtaOTjC2dEHnIZOxYfNWLJjQG6ZiPvRLNMH92Gxbk+LhTG9oG3ugW9vSMHOphqFjR8O33WwEpmTiy615NBaYorpPbyxdR228bDrqOuuDJzTGxL0vkJ6PH2WIvb8T1vp6KFu7LWYuXYNtG1egbTVXSty00X3lZeXsj3yFi8wwLO1EtiA2RMshc3Hi7Bksn9AFRkIhXJtNQbAiOZF8voTSetqo2LQZPGwtUa1tP4wa3AlWlOyLTCth9opZcDYzQs22fTF+aGdYGwqh61AN97/EFGDTTBdLwETfytTXRSjVoAvGjBmCao6GMLe3gZ5mMeioCBcRF+dTnzJGlaZdMW/5emxeswgNy9hREmaM4QfeFFg3yErF2BblYVm8DKqXtIFThQYYN2ksvFzM6VpzTNiyEc3LF4d9ldYYPWYwqhbXo3rTw+Rdd6ne5Pd8cXQCzA3NUbf9ALbvrV00Cd6O1C4iUyw++Zad7fPi4AI0rO1FvlEAgb4FvL2r0XhWk/r+A7b+Q2/vhKGOLuo1qAZLU0t0HDQaA/qOxA1KEiWU9PcupQ+RSy+8SaBxjflRWQK2DKbxWciDc9VmmDx9Ovq3r0v310fv7Y+QSmVLONaXkj4hem32Q4rK69j46yvoPOqLc64jme23eYUL5g324MbusHCqiEET/8TGzRswfWAzNol0rNYLAYyIXUC75Ycs7RQqmOugXNcNlHzmvPSQJdxCPRMd6NWejrikNPZY1qcTKG1kAC8fH5S0tUGtToMxsr8vrOi3xebemD5vPOxMDFG/fX+M6ucLc30hDF0b4lU0JV3sHfLydv9gmOtZom7TetA1sEf7fiMxpGtjVuQyLdsS/tEJOdemf8S4FuUgon5cplYbTJg6HYM7N6D+ytiyK3bdCECGYtyJen4KNsZ68K5dE/YUPzfqOADD+7SGoVgAw5KtsGXlAJSwtkWjLoMxuk8zWJD/NXKui/sBUcr4IjPsIbpULQEdYxcMnr0OZ04fwfgudaEt1kOzqfsR/53LoRb0rA5Dc0dcfB6qIujK8HRRUxhq62HO2VCksvG/BKdHe9IYVhEtGpaGiXN1DBw5Ej6VbNk+17TvdLSu6ooSZWpi5LixqONhC75AH74r7iBB8dIg4sJ8OJibU7/rgrnL12HzarLzsvYQik0xfP9rJBcgqDKCx5iWFWDjVBbV3KzhWrEBxowfRf3OEgJt6ndkb80rOMHRywejRg1CVer3PL4epuy4pZxN+OTQRFhRX6nbrj+WrduMNdTvqtMYxRebYfHxF2wfYPC/vQH2JvrwrlmLxkgbdB4wHAMGj0Lg12h2XAk6Ox2lrPVhYFUKfUdOxLihPVDKUgcOLaYjOp7Gnq+H4G1vCY+abTBt4WpsWrsEHaqVgEioi/ozLiKmgJdc+SKNwWwai3RsvPEoPFY565nh5LLeMNDXx8YTT5QvxfZObwNDstdqlUvDqkRFDB49Fi28XSHgC9Bh3HT0rOUOuzJ1MXjEcDT2MKXjYrScckStj6khCcd0L0tYlq6BFp4OsC9bD4NHjUbbqvZk7wJU7rAAnxXLdZPPDIW9kR76b/NDIpvHyfBxTQvqb1aYfTkUKQUMl48Oz4OdMfVpmzLoM2IserWoAlNjczgaa0FLVEZduEh9jW613MheXTBmwUYcO7IX49pXgJGeEVpOPPD9wtAv5j8gXGThw6unePTwAa6eO4g+DUtBoGuDSTtufpdD/5n8uHDBGJQZRm+lJFdx3ZFZHSmALEbJSXFM3aX4CoIsA2cnekNAid2Ine8Uzykhx3AWYWRgSmRpODrIA1qa+lh6J78Bjq65fgjzh7Vl344ySXiDAQuxZcs2XHnykc6XKYULJsHVoLL5DJmFxfNm4MDdMPp7Msb61kCHobNw9t5rRMXG4N3tPahqK2YTfhufhUpVXC5cyO9jaO+JsfNWYM6ozjCgwIc5ZlupEyKTyUlkvIOvKY+93qXecHwIi0FIwHP8tWI69tx5z5YJ6efgqaOpEBUEKNOwC5auWo2Brasqf6Ns2z+RQA5TlhKIQWV0WXFF26wklh66jbDIcDw8sQIeFjrsPXiOHfA6gREKGOGilvIezNueQTOWYf7M+bjuH4Fj+3aha+0SdK9i0DCtgAUbN2Pbtt14H5kBqSQDU3s2Q6ueY3Hk6lOERcci6MVFNChpxv62piMFGYwYIZNgZd+a7Ft3Royp7jsE69YsRad6ZdjZFmw9qwgXgddXw1xbi87lo2TrSbjz7gvCPz3HzI6VwWfvoYmRZC/slLls4YKpF2pLpxodsGT5YqzeeZYVoQ7N7oeaLbpjw6HL+BQWjegvrzG0aWn582o64OCHgpdGFLRUJDM2EC0o+bUo74sglbdfqf6H4GlCwUH95YhmBi6FcKGpwYO1d288+iyfpSKNvIG6NkIqgwbKtxqHDwnye0S/PAErER+W9UYXsDRJBr9tfSmRF6LW/Ccq0ypl2D2uLnia2th6k5nxIUX4ixt4ESxP/ORI8XJDb4i1xGi384siqJALF0JNDRQTWGPDVX+6VnkB2z/VhQsZvhwZCBM+D+U6LiLHnjNoPjs0m45T0tdgJqIUA9/czpR0WHrgISV/2bctfCpeFl7fu6n+FRCqw0W+ztDSMsHhl8x+BjK83zMCujwhqs24iTSVOjg6ozEEWtpYffEjBWbSvMKFJBVLu3mxwcXwnY9yZpHIUrFvmg87s6fjrIMKQUKKw9Mb0TFjLDmT8+UNScIn9KpgCW3HxnhHQZ0MGZjX3BI8vfq4H6f6lifn/xWFjHcnYUGJAL9cX4R9c6kFPduDe/hISafyV2RZ2Du2OfgiS6x8Eix/K0kJwNKeNcDXNsW4A88U079l+HB5I6rY6bJ9IEe4YHz4PQTFqs5CkuHWhm7QpfYeu+2R8rzcRL9/hAcBMSpvQuk3Dk6m60Rosvge+2ZVmpWAjlWsYOhYHa9CcoSVxBfb4UCBdsk+O5HE2A35itzChUyWjgdPXiM9u70ImSQW7StZwtS1Ht4xQhxzXsYnNC1lQr7WCxffRyn7bHrYI3Qua0xJnzU2P4iktpQfz01BS0Uy4wLhU8YaluXb4qPKW8hU/8OoZC6CUb2lCGfFOLlwwdiRyNoLBx98ktuNNApjGzjQmKQBq3ItceadXHDLjHmFZnY60LKsiwc0hhVQrHxhhQv6HavyLXHWTzGLRZKE0+NrUt/QQp2J56k+5Xb8+e4ZBITn1Dn9Mu7PqgNtCsaHn4wiP8IckwsXYp4GtC08cfpliNLmGVLjA/DMP0zucxVEvzsCN1MRvLsspuAy/wBaEvcJF275KQN5hrSgCxQLiGBYayKiFZ/Bzk+4eHN0HvS0deA77yiSFT6FiQOuLWwGA6EBJh1hkjiZQrgQQVNggp7zDyOR7T8yvNzVCyYiHgR6Nhi+8YZctJJl4tjUNtTOBuh/6EOBS6yin66Bo6EQpZuPQ5jiLW9m0keMbuXJzlrRVhEusiL9cPNJoGIGgZzUd3tQ2kAEk+YrEF1Q8qcQLvgU8Jf3nYa3ZMdM9cY+3gpXfRGNl3zU6bsQEYpPAAfd3Q57YzEqdZ7DfhaYIT7MD8+D49TaKuDWRthS/bYYu0W5mWZhS0VY4UJbhD94Rhiw+hqSlEIgkY9wEXZtOWx0teHQZCo+xGQL6DQ2PL+Eax8iWV/7d4QLxlCfPnxKtiGPB1jIL8zuUg065q64/PKr2vN+i+8WLgy1oSk0w6BlxxUzMaS4va4rTMR8CI2KY+zOB0hgOo2Uxo1RDaEjMsawc2GKhDwvrHChw4eZW10cfRkh98NZSVjTqybEIgtMuxMmH8fINq8v7AQDbX3UGPkXQhKzxxMZ7uyaDCNdESp2X0DtJy9rtnDB03fAqI3XEM+UleLfc2Ors7PCRIaOmHvwvuLTvTJsGNkc2rqmWHLuqVJMOzS3G/QNzfHnkcfKhFWWEY4FLV2oTTxxiHyLSvN9k+8VLvSEFLPV7IEnX8mG6XBa9Es0KG0FnpYALg2G4sEn8m10n7SPx1HdRg8C5754FZXM2lxW5FvceRqoFPEYUqjfeZrqsv1OdXaGKtnChVCoDc920/AyVL5PUuyjLfAw0aV4jfpdnwVU//Kx8NPt7ShupocqXecijo4xxIa+w4vPcSrPCHy4vh729Nstx21GQrI8J5ELFzrg6dpjytE3Cp8sRxL7HG1cjKFj5YV9T0KV8VxmfCCOXX4sX0qYFYqnT/2Qme3/CFnSM7TyMIVB8a54QX69yM3zA8KFHo3NTPvcCIilZwWSP11HFUtmFpQW3OoPwNPgaHbcz4x7hAYUE9uVbYs3X+KUY68aCuFCrMWnuHcsXofIz5NlhqBLdScYU450/618PzJJ3FXUdjaFY7WeOH71Hh7fPA5fd2OKuTvhaUS8WtmVSMIwvK4jxNq22HLljWK2ZxYub57AzjbTEKgIF7IUnBpWBcaU78w7847GF0UtMvld6wowdaiEm69D1Nr3n+bfL1xQQlHFXMhumMgk2DwamPvPP4DIlHyb83/C3xEu7BrMR4yK0w+/upoSVE3UmHBcbYpyxJsVsOAVQ/tpJ8ngCzaoTwd6QVuTh3EHP6sEa+oUvMeFunDReNTmPAG7JCsrj7OY2dadEoE/wKswFAmUNDFkCxfF9Mrg4DuFg5HGY241CkroXD2nmvgaQw4u4xWa68qTbyvq+B9i5QOTGkrhohhKdlyIuExmQKWyRN+Dt1h+rUnJ+vhKyVP47W0QUZDMzBKpMXhPTnJHyc2mgfXYMjHix9prTHCvKlxoUOByNU9QUNgeF0xdqFUP/cay7tXl9+PXxJ1ECSSZifApayIXM4p3x7sUeaIuzYzGIp/i0KTjOcKFFLv7ubNto2nphTeKcxlkKbdQXSHwuHZcIn/zoCJcaJfsgPcq0/kYpPnsKXFnTX9K8pn64WPljYT8nSxRkHAR8nIXbHS00HrKwVw7tGdgalNbcpCeuBdOQYdCuOAZlsE15bR3BgkWUDKuqamPk69V3mRnfkRHMzH4zq1poJK3bx7SHqGhFR9apu3wJklRN5IP8HUSgWfbEx/IBxTwOMh8tgpWAh4qTnuoGCSzhQsBvGbcyRvE5xYupJGYWIESQO3SOBKRs18CiyQUI8tS8sAvicNBcjFoUS8v8HUtsOMOs/ltQaX6NmfmtYSAyrjpOvOVCTqQ9hTNbQTgmfjghUL0geQjurhqg2fdBW/ZL6DI8ggX6fFfaDA0gLVnG4SrLjciEt5fg72hGDZ1hyKDqfusd+hQgtrCdRACVcQpqgQ8nlsPAr41FrxIJdvPwvJ2lJRqmWHrbfnsgh8h/vFeViAwrDOeEqwC2v4bvNkxDEK+EUae/sA+ryQtDi3KmcHMvQECo1TtT4bHB+VLRVSFi/wIuMOIiDz0XHy20OnQucn0+wsOIj5KDzmqSFqpX49tAb7QHAtu+SsCAhlOzuwAgbYlVt1jxCY6lo9wkS8yKSa1LgcDCnaeB8sFwdRro2Aq5KHm2BNqyRLDi/0DYSjQRKc5J9USTFUKEi5CXu2Gvb4APpP2Kfc6kJOB6S2o7YWeuB3CJJ0K4UJAbXA5ml27m82phfScNF4vOfZCpb4zsb+zFfgCJ2wNTFH3o99ALlwIsPrce/X2S72GSmZC2JQfjOAkVSFNnfTbE2EuEqDNKibAY85SCBd8EXzXPKfk4tttnRodgOrOhijddCxiv+fLS1mf0M9FF0LXbvhAAT7z6/kJF6sG1YG2kS3OUhKkOibFB59CKVMR6g/bQUk2jT+scCGGnc98xKmIBElhN1DOUgzP1rPVvgyVcmMRjMVCVJlyAykqSztzkOLy+ArQ5utg6skQZULBkBVxGpX1i7A5Z+YbtC9Bz1huBAILenOnEC4MHb3wIlhl9of0KwaWNwBfryFuU5KWXcKssFeo7GgG+zoDkJSST4ygIM7/Fkpa6aNaz4VIVghD3xYuxHDxnUvtqPISiCGPcCGhftwKYh0rLL39Xj4G58PfEi7yRYaD09qTPThgz0P/nD04isD3Cxc6KN5hDaJVzo14dwJuFjqo2XMJElTqKOXyDJjrilFt3lPFm+G8yIULMUZue4JUFacQeXwcTHS00XzdJ3Y6vCwlHD2qu0LHoRreRFBSpziPQRr3Cg1tjCC0b4TnsZRo07Fs4aLmwFVqZZK8Xw5XGsvK9d+LGIqHsnm+dxr0dQzRdxvVPTvDKxOD6jnBzLEBnn5Wj4MCjw2Hpa42Ru14SX0k/+fKj+8WLsT2WHs/HEqtLDMBE1pUgq5dRTwODFcZT1MxpaEVROLKuBAYR3mB4nBuqN91dDOCuNxIvI+VCxy5yRYumFkezz9FqvS7LxhUyRRCg4a4/jVe+RtZoc9RxckSDnUHISa+4I0hY9/dQClbY9TovYjsSd7HsoWLmn0WIVZxLJugKxtgoq+H6iO2IVYhdBSNTIxr5gwD01q4FRhbcF3k5geECwN9Q2y9+DZHHJLGYmF9K+joeeJAYBTlevLDFORjREtPmDlVwaMPEdSPFcdVUQgXutb1cC0kJqfcNJavHtSEXQJz7XGAYjyT4uLKITDVFUGLxwNPSxMaQmusP/dCWb7cSN5vQzlzPRg0XolglRcwMmkSNvjYQE83Z6mINPIpatqYwKbOcITEJCrOlHN6UV8Ymtph/dXnNDbm/1v/BP9+4UKWhjsXT+LYsaPYs2MjRnZtSIlqMdh6tqJOrd45/lf8HeHCvtFixKkEB4n3t0CgoYnaU0+zwWA2Uf5bYSvURLsJh5THmQ1jnl7aj2mjB6Fd65Zo2qQJanvasorg6P1Bas5YlaIJF1pYeelLnuA5KzEUp3euxOhBvdDWpwWa0G86W+nS+X+ARwFjvKLXZgsXmiU64qPS+UtwqCczJZkS7eLe+BJN7SVLx4WZ9aHNLv8oBqGRPRq2H4gd5yiAzK4XpXChhfbLzuW8+ZLFY151uRAisq3I7gXwcM80Kj+TmGti0F+fVAJiGR6s6aWY5aCByXte0HNn5AgXWi44HZQ32C1MuJBlxOLGkc0YP6wf2rdpRfXfGO42iuU1/Oq4nSBBZloQvG0FdKwY3AcfUws68mzOKYvCyIry57Go2g1pElXHkYoBVZl1mH9A12sokpm/KYWLYmg2fT85zFweU5aJ9zePYu6E4ejSvi2aNW0Cbw87dgYJI1ysuK6+/4EqBQkXfqdHw0BLAzYlq6BRo8Zo3Djnn5ulNoppWuNyICWKUoVwYVQOt9WSCHLUPcpAU9MQZ/zkb4tZJF8woDgl3w7NCxYu6NqNg6tCS1OEzdcZ+5Yi/OwkGPO10XLDa7W6/fLyKhZPH4NuHdqiKT13o+qlIKR+VX7yPXXhgmeE0VcZ5Vx+nZJcwoUs7jXqmupA4NYWEXmmtktwsJ8zO+tj0bVE9l6fbjBvMIQQGNiiWbfh2HXucYFrE7NhpmjfPLoFE4f3ha9PS+pbjVHJzZzanIcNV7PfAkvx19ia4GuJsOJ8AHss4tJsmAq00WT5Q8Ua3rzCRWLYVUp4+CjXYga7DlUVacwb1LIxgLBka6RnZEIadgxlxTxomrihfqNGam1cy8Oc+pceRl1MovtScn99I5yMxdAxdYBPrzHYf5kGV1WDKQLJTw9AT8CDuOoIxBdp2UAW3t85hjkThqGTb2u239Us60Dl0sfwU3LhIiMpAN72YjjXHI6IXHMr892cU5oJ/3unMH/ySLqnD+tLa3p5QEB+qcfC04VufBz14S5WzZ2Inp180ZyxtZrlINbUoP5+WPm2PebeOlgLBXDuuZ19+y2TpKF/XQqcXRvAL0wxO64A4SIrMQQnd6zA8P7d0bplczRp3AglLPUpCKPz2JlFUryY4wWRlgDDDoerCQ8MX55tg60eH3UHrsklPuRQkHDhd2YsjAVasC5ZGQ1z2YKbFbO3lBXOs0tpsoULY4y7Ea/2pvLiuj7Uz7Sw/ORrFaFBgrODnSAUOGDt25SiB6CEXLgQYvMV9T02IEtEq9J6MHVqjLeR5IMUf3p/9zTmTRqBzmQrzahdG3k7Q6iphVYrmH1ImJMUwoXQCgseJOXzllWG+E9PsGXpDPTu2gEtmzdFw3q1YKTNR6nGoynwLli4yEj8jIMbF2FI765o1bwZtV1t2OtogefcBe8VM1jyChcSjGnmwr4VrVKzPhqp1Hn9OlWhJ9SCd9fliKdzs4ULh7bqMz9SIl+gkp0OKrWdh1jFDAWGjEdrYa0tQtnRF5CSyw+wyFKwookJBIJSFOgmq7VLQZtzJoW/w85VczCgRyeqm2Zo3KgmrLTpGT2G4eO3hAsnb7z5orLsjcb0cdUNyW82wb0Y+SwHBmmUH2o7W8C6em8V4UKKGP97WL9wKnp1aocWzZqifq2q0BHy4NVjvnJmxreFC200m7Y/78a6uYUL8hGzOpKdmLnh6tuCZz78beEiKwkPzuzClJED0K4NE9c1hqeTFbR0bLD7AbOnRP6/mx8/Ilw4ddmAOBWxK9r/OjysdVGnz3IkqogEGXcXwU5PGxWm3CXby9+vZAsXo3c8UxMu0q/PgTldW3eJHxLTpUiPCkAdDyvYVe2AiNxfTpBGYUY1S0rcPbA/hHwLPX62cFFn6Fq1Mkkjd6KMsQ48Bx+iZ8ixUb+jc2Goa4Bu669Q3VM7Sz6hRSljaFOMU6NeA7U+VqcK+QctLfRefkPRTkXju4ULbQdsfByVI1xIkjG7rRf07CvjeXAE61PlZGBea0d6/rI48yGWfX6GROp3u1bNw8BenVnfwvQ7ax0++NTv3n1LuHCtidfBKsKFLA7japtDZNgEt8ISqIRypFFvUMfVmnKXvirChRSx1O82LJqG3l3as/2uQc2q0BXx4N1rQR7houvcQ0hU8UEM93ZPgYGePvquO40kFb+Vm9SYTzi0aQmG9e0On5aM/6Sxj+xZbFjtfyBcGGHnlXc5y91kqdjUxhp6+hVx9HNMjnBBfmGCbxV2j5GH79SFZiXZwoVtA9wOj6MIJhspto9pDX0LJ1x9yAjx2a2WhbCA57h87gzOXbqBD+FJBfobhrjTk2BtoINqc54gWvUlfj6bcya+OQ9bU0PoWDqjbv0GSrtn/lVxtwdfaIK5Z3PtifMP89/bnFOWhvOjK4Cv8QdcWy1Hwnc49Z9FxLutsBFpoP6QbQUIF9fgaaAJ2zqzvilcJD0oonAhTcPVxe2hx2zCYueKes3boEvXrmhdixKonyJc8LD2amhOYsmQFYfxLUvJZw/wxTA1t4S1jQ30KMkpqnBxtA8lGHS9UrggpFkp2DihPRzMDRXl+oMCYjEm7r0vf9aChAukY00TMZvMC6w98Y46982toxXChRbGHFVxzMTLzYPAbLzHCCTjdz2lv6kKF6Vw/mveTWkKEi5kklQs7FGNXdbDbP5obEZBlY01DMSKfTGyhYuU16hkycyUKIYqk9VndOQRLqTB6FOSWUbxB2xr9SUnpuo4MjCipnwTVlGlgUhm1FAV4aLVnEO5HJsMF5b1ZTcDZZaX6BmZwdraBmYG8n01flS4eL2/P/Tonk6VGqFLl67oSjan+q/XqPUITaX2zp5xkZ9w0TN/4WLgN4UL4M25pRDzNdFm1n5kZSZieQdPCM0r4mG84q06JXEfz8yl5IBPybQNqtRujI6du6JL88qUTP64cCGNfIZKxtoQl+2KhDzlk+LMyLLgaQox/1I8tYP8aNLXBxjsUx1WFGAxNubd4092CnC+UNCydVQDdtMzC8dSaNzKl+3P9TwZoY+vIlxQQHBjI7thXdPx26muUrC+dw0ITT1wjYI6+Sl5hYv4r8fgYshHJd/5efY6kCW8R1N7Q/BdW7LCheTjHriKtaBlWZHqrkueNu4xYBIex+bMxEgMuIz+Lb1hYaRDZdVCjV5LEPUd608lwZfgQkGPlnULPM81aygPlNxfXTUA+gI+jC2Lo0aDluxmey2rlWRn8WQLF+kJL1HJWgi3uuMQlWsj07zChRRPD06FmY4ABuYO8G7YkrUZn8ZVKIDVKES4kOHz9XVwNRBCx8gSFao3YOurS6vq0CVbUxUuIA3FqMrk33Sq4lJIKgXq51HWRAivvtuRmP3mO7+lIpmxGNHEg4IJHTiUrIgWbTtQG3RBaXsjNeHixphSZMvamHgunp5ffrtsQl4dgIOhALX7rpTPqMmHgoSLNwfkszWcKjages5rC71GrsNXxSyf7xUuzg35ycIFUtGuvBFMHOvjdTj5Fgoo3/w1hIJ5IQwsiqN6g+boRM/QuUlpiLR4RRYu4j5ehrejEcT6pvCoXBdtO3ZGp3Y+lHgVLlykMct0ShtDIDaAc5mqaN2uE7p2aQ0Xfd43hIssDK3vAIFIF418OrB+QLXOu3XriXVnXrNv/AsWLsj+8xMuHn9LuIjDvDoG4As8cTxcfSZMfsJFavBVtChpBKGOEUpWqI62HTrTM7aCgy494w8JFwkYXyN/4aKOswVsVISLr08OwsNSnxJ/c5T1ro921C4dfBqxG1H/GuEiA5PaVoS2ZSncKShBIf7eUpFMbBnTEjoiMSzs3VC3WWt2nK1Vpjh4uv+QcBFwA6XzFS4W/7hwcWMeLFjh4i0rXKRGvEMNNzM41uiBqLhkxVkKpHFY3NAGIpE7/voczyaMBQoXUfkLF++OzpMLF+sUwkXWSzR0MYS2QQm0at8xbx/rOQRnXkV9V13nCBeq0+y/U7jwLUC4aKMQLt7Ll6+kBF+BT2lziHWM2X7Xpj2zcXwrFNcXQPBDwkU8xhdRuPjy6ABK29D4Y2iGslXrw7djJ7RvRf1OW4BqRRQubmwdBwNdfQzdegFJBXylSZL0AQPqu0KkrY8SpaugpS/jC7vAw0aP+syPCxcP/4Zwsbntzxcudoyl3zLPES5klNNePLobG9evw7p1Of+2Hb1ZQF3JEHZoFCz0ddBg2Qfy9yq/n49wEfP8JPUdAxg4lEO7Dh3V7J7512vAGDz6mHuj83+W/55wQciit8NBqxjM3NojODm/7vpriQk8gxL6GqjQZrbKuvMcpMEb4cDXgEuXHUjJdkZ/U7hIfXOU/W+zWiPxnlnDqzgv6HAf6GjyiixcjNiTvVElQ+HCRezp4TDgUaJOAfKETacR9DUMUdHRmOTjxooZPypcsFDQHv3lAy7vnY8yFvJNMrXL9pMvR1AKF5povYDqJbvA6QHoYsNnz9V3qolP0Wl4fmgOPRsjTmigw7KHKk5EilMz2sqfrRgPS8+H0HOrLBX5pnDRGu9VhIu0L3/BiYKzYho66LzsOAI+hyAqKgLzO1eT308hXGSlR6C2o/x5TFuuRFJ2Vkt3OjepmrpwgQRMqq7DihO6Hj7q+x1IP6OtK92H/ubgM5cGO6ZeChYuZJJINHbTo/M14NpuPl76B1H5onFxSS92vfmPChcBV2fAmGy5w6wTBQZuLL9IuMiMeIyqlCgaVe6DL6F+qOVkhFJNxyi/aCNJDIFvBRvoOnjj1vtQZRKS+WI1rIW8H59xkfwezc11wbNpiDd5NthMxcrmptDkOWCXn2JjwGyk6Qj1f4TZPq7g8XTRa2cAlSn3j1G/v7sC1mIt2PgsRWB0kvL+Z+f7sEtFVIWLrOjXqGelD4PynfElKghNPEzhUnugymZVeYWLpIgHKGshgFv94ezO/KpkhjyGh4UuzKr1ZRNbWdxFeOnywS87Fl8L2kw0F9LMVHx59xgjmpYBT2iOOTc+F24fqmR9xYjSYrIJI8y6xAyYiuP5kJkUjPquBrDwaIaHH3PazW/XCHpeQ6VwkZkSgtpOlOxX7pbn6xu5hQtZ8hP42JHtWTXBpQ85AWPA3bUw1+YXKFwwsyaGNynFvoE9fCdnz4Csd3vhSMmTmnBB3NvcA3p8AcZsv48H82pAR2iLZQ/k62dZ8ggXMkQd6wdjEQ/1Ru/P2eleJqXzPKFv56kQLmT4uKI+RDw+umx4q7DvHD7enA9zkRbaTjnAbliYHwUJFwHXZsGMrm0341iB18r5DYQLiR/qOmjD0r0bPlKbp3+5j3JmujAq1w6PP8n3H2DIuDsFlmJh0YQLJljtQuXkmWPW8deKxIN6fPRH1HAxgkeTgoWLY392g1Ckh+HsTv+KsUXyCQNK6kLoUphwIcOUNqWhbWyHS6+Zqcfy38yPny5cIB1b21tBILDBuifq7ZhHuJClY8PABhDSODHnxAMkZCf+WX7o6KwHYelfKFzIUrCobQmyHyusOP+W4i75mfEBd+BurQ/vXyFcULywoFtNiIwccexFkLrtqZBwciD5DSElyepLDYoiXGRGnUAFK1041x2hXAfPnHdoOp1nZP8DwsU5VLLQQZmOqxBJdppTzb+XcJEZE4gGZW1gVrY5QmNy4lmWjCD0K2kGoUVt3I5KZJPOvy1cyKLRtrwpzJ2a40Wur4D8KAt714SBWXGcf/ZVxTZ+gXBB486GgQ2ho2+LOcfvsuM5e2bWW3R2N4Y29btfJlxQXLewnRu0hdZYdvqlcn+E2Pc34WFrjOpFFC6eHJhF7aGHdguPICHX3+Rk4vrsZjDWMUKn1dfZvfzk1ZGJCc1dYWBa/TuFi1jMa1YWOlZVcDvsNxcuJGHo16wKnB0d4OCQ869kszEIjsuJDVVJuT4H9ka6cBt6BhEq+6/lJ1yk+V9FcVND2DUeh/DYgpf//E78q4WLpJgwhCblGlyo4UNODGQ3fXSoOQlR2fOoqMHePHmAF/7hakb6K0iP/UTBtBF07L1w76u6WizLTMC+fmWhqaWPYceYZFnxh78pXIRcXsXuhVF7iuqeF5m4v6wFRBqFCxcfTy9WCBfF0HzSYUTHRCA0Mo7+UphwQYne4oZsoq0pNsXhxyHs31LD36JrVasfFy4yI3Fy92F8IGcpR4ZVA+T7RGjatsolXNBvmJTFsuP3EREdhetbJ7NTspkZBC71RyGGBs+EV4dhzpMfK1FrMIIT5U4xK+ETunsXl88WMamNOxGMs/+2cLFxcA1WuCimWxZ7Xn9F5NdAxCRLKNGcBFPmU5tCC6x9wGwKSU+XGIQh9UuqCRfSrDT0rG7PihHFhE5Ye+k1Yqm+r+2eiRKKZ1Ld4+L01NrU/vR7QhvMuRokXytOjtHv8BiYsc+lgR7LFV/eKES4kGY8RkUz5vN0ArTK/sKJNAVbRjVRtH3hwsWhqW2gJbbAlkfqezRE+1+Ei4kQHs3HFj6V7BcJF8wMq5MD3MEX2GLUeiapEmDAunvKQCEt4gO8ihugeK3eKtM8pQi7MAOm/B8XLphp6Bt8mP0cjDH65Cc18SEh4Awq6vGgV3YAAhWJPrM5qiqST2tRXMBDpXEX5aKTGjIE7BzMJmNtNn/MCXooMdg5uhb4muozLpjjZ0dWhJCChzFbF8BKR4CuS26oJKx5hYuspAj4lGMGzkp48EW+L4IcSjhPLWJncDQcuUm+Mao0CmOqm0JL4Iqjbwv++gBzrfo+J0D4iSkQ88Vov/WdPMCmJPvrh5d49OxtTgCQBxne7+0HE0qQnesNRaDanigMUgqeH8EvOAYpMddR1kyIsi1m53yhg37j5rJeVH8GSuGC+Rxtt+oO0LYqSwFOzjMwm03O6lCG+ljOV0Uknw7DXZsHw2bL1GajPD8xDcZUpoKEC2lmEtpWsICFe0N8VNlHI+r2algJ8woXMR+uoKS5Nir6dEcbaz5MvQcjjJJN5bPmES6keDStIkQ8XUw+nyNwMOtWhzR0k5+n2IQ2w281++USlyZTEKba37ISsKWPJwQ8fcw/m3uGQg7+h2dALNBB50332Tf52cT4X6Iyi+HRbDQlGCoBUR5+jnCREuqHhw+fq29OmAu5cKGFjtP/km8UyEJ2dmoYLEQ8VOi9C3HU92NenoG5rgjluy5CmnIJkgTB+/vAREh+sSjChTQEI8vrgqdfG9djc75mlBh0FxXt9QsVLlYPrgehgSWOPcz59Gpm3FO0cdCBoNAZFxQ4T2sHodgAsw4+LHBfEoafL1zI8GJ1C+iTr+q4gEny5Ocws1eubRjC7qOi/KpIVgrGNS8PsU15PA1m9oySP2N65A00sqVn/JXChSQIfcsYgG/YFPeiU5TnhT07DmdzXXXhIv4jWnrYwLRiR0T/HeGC/ndufndoi/TRcfVVtc+/p0R/xpsQSqrpQVKezoWDnhA1h+1T7jsio6R006gW5BsFhQoXaY9nsdfWGX+S2jPHv20a0RxiOk9VuEiPD8Xjh48QHMMs1WIP5SXzFWqX0Edxr4EIjMn+DKQMt7aNg7m2ANq/iXDBfE1tQrNy1F9KYNOjr2ria8TTw3Aw1kWJZuMRo0iK/7ZwQW05tV1F6JkUx6EHgd8Qg2SI+/wGDx+/or5UsF/aMLIpdA0tsPXKG2WfTfz8AH2qWEGgJcbsnyVcpCdiXAsqu30lPP0k/7Qoexb1u6YlDCH6lcIF9bv+FcwgNGqKW6EJygQ89MlRuFoZFFm4iH60D3aGurCpPwYfyX6VxSC/8PJtELIy47G+kyd09UtiV1CMfFNJ5u/pIehfywH6xurCRczXD3jw8BnZR7bAkQuKR7f0rAI9PUeseBaObHNNj3yFwY3cIRKJfxvh4keQRp5DHXtDCB074WFwrDKejX5/BY2cjMFX+aqILDkAPUuZU2xUDaf8mA1z5ef+zvyrhYtrO4ZCz7w05u+7pTTktxfWwkGHjz809DH6NHVi+WFkvVoAGwoeLUq2RGDCL24ZWSYuzGjJfmJPbFsTRx5/ZjuiLC0Sm8e3gUhLA9a1hyJR1Tn+TeEi491RWDK7oJfqjndJ8ud7dmgWjNnPaBa+VCTlxT4YKBJ+DU0exGIRvPsuY5OtwmZcpF6fACP2qyDFYFSiEjp1bE0DivxLHcy9fkS4kEbcgicFQ2J9a9Rr3QVdWnrDUKjF3s+h7UJyAnStinCRXWYRlZnHLINgjhUTYuheGviZskoTsam1NfsbzLetzVyroVPn9ihrrcce+0NDjC5bn9C5zMnfFi5OLO6mqI9i4AlEEAnFmHXoHVKjTsBVIRoITUuibUdflLZgpsrLy5gtXDBixMlZ7ZVLYDR5Ara+2VkPzO8yz6MULoDIt2dR3IjZE4POpUSiRrN2aNe0GrtTNnu9uBRuBSlU18JmXFBy05yCLlaoEZigfpuOaFDGEnzlp2QLFy5urx3A7m5dd9pJcvIZ+PwmgP2ygSwjGhMbuNJz6KLpjOOIVbZtBh6d2oSRm1/Kk/pfJVwQkpCtcNbWAp/HQzFxFVxkNgNV/E2aFIo25W0gNC+HKyHyQC3+4yV4FzdiZ5/8sHBBZPpvgpMO2aqpO3bdYfqXDJmRz9C9Rgm2PiYdeqRog1QM9G2BXbeDkMk8ICWPBwZVouBFB4OPRSgTUFXSHqyAhUALelUmICiJbEGagcsr+rDT9Jm+qCZcEJLQXSipywOfz9RBBZwKVf0yQ17hgtk49vQ0H/A1tWBSqSceMIkx9a2AaxtRwVJMfcoCeyiIyv6Jh/vGQZevBZf6A+Efnz3rQooov2uYv2wb1SHVSfoDdKnWBEefMYIs2UZWGpb1rA4eJYArn9IATseyUqLRqoIVhIbOOOTPBGPsjfIgTY9Fv9ouZBdasKrSDedefJXfkwLa4ytGwtZIG4NWXkJqwlfUc9GnhKcmXoZTP6D7RT3cBA9zbervekrhgvE1zBcUGBtxaDINAfEZyEz0R/967tQHqM6o7yk350x7jlZWzOdYy+PMB2ajNhm+3NqE0orPIxe4VIT6xbDG7pRkOWDPE2ofuk4S9wzNy1iRT9GA+yB14YLZsX6YlyN4VCZN+nvXZafU75vPUpH4U/1gRHZRuedGxDHRVmYMdgyqCl2eJrStyymFC2bpYJ86jtAS6KH97EOIYZOqDPw1tQO06XrThrMQprbRqjpJdzeQ3+XDrM4UfKGAP5kC9fg0SigyYjCZAjvmk3iNpx9BlDJBycDj05sxakv250B/gnAhS8GWNtbQFmpjxLEYSibkZ+ZGLlzQeKApQr2hmxBO/iXsxTGUMdWBhsgZW/0S2ftlhTyAB41PIoeGeBAl7x+Bt7fB0ZD5CpZm0YQLes7tXRzYL/aM3fuSFR3Tw5+iR0XypeTT3QtZKsLOuKBn6briPPvpTSAZc7tXZ5cfaTkVLlzEP9sHex0Buwxux+0coTQzIQib58zA+QBmc1zm2p8tXFApw67D01oHOtblcfxVOCSURJxd0gMWujTmsp9DXZ4z46J/fQhExhh+kOqG7CArjWy8SRnyM/SMv3SpSBqWtLGHgPzufPbTp1KkfbmF9uUs2ZcrXt1zhAvm07IjqpSAQM8Zm19SwpEWg+CQRHbm5vcJF3Sr4JOoYKINLaEN5h99Qs8sQdjzE2hRxhatlt5lNzzNSqWyOhlA19IDR559RkZiCNb19YaRkR7E5N8KEy4k8WfgSXGEXaVuCIhg/FsmXu0ehuKGQmhoW6kJFzfXDoahni7qzcwRmPJA1w9o6AqRjhmm7X+I1PQk3Ns0kOI2I0qcyYf8JsIFUxdfTkyEpa4QfNPK2HfvIz0ns5fCFXSobEexCA+z9z9QJpZ/X7igeHnvNGp7Ecyprm/4xyhF3bhPDzB35gYEJCqESrLJRc2YJdG6mHcuTOEz8nJv+wToa4thX38UXkcmIyPiEbrWcKb2ZZZAi3/iUhGm3zWANrXp8APP2U+fZqaGYliz8uxXnXilfuVSkXQsbudCYwr1u+Mv2fEtnfpdx4o2EJBv8O5ZNOECkgjMqmPNCnkNh21EeHwa0mMCML+7N+zqjkJUXAJuzW4CI+qbdWZcQlRKFlVPOOZ2rAJdiomEBqpLRaRY2scbzGaa204/Vfja3Mjwdd8gWOiLYFyuFx4FxSL2y0O0r+IEfR1taGgJ/9XCBXkmLOlREToCPtpN3UljUioiXhylWITqmMb1YsKcGRfMb3490Ad2BmLYVe2GR58iFfkQEPbmBpbOXYqgSPnXZn4X/tXCxdfnJ9GkvD0bMPDJiRiQ42P2GBCZuGLs2tNQ3dhY8nELnPUFcPDqhy//g+UjsoxI/DWnLzlyMhINLegaGEBMAaMmBZJerUfgtn+U+gCe+Ry1rIVwabNObV+OlCe7YcDno8ncCyqOC4gJ3Mu+Uesy45T8OAV5l5f1gaUOH3pm9nB3cYCDR23M37IcjgbamHTsa05SmJusGGwbUoeCX0XiT/9qD1nHChfPNg2ANl+Tym2MnfepzKr3kMVh2aCGELJLMZjrikG/RHWMGtSV/VKFfo1xSFS8aV49oAa7ZEPfcwC+KiNBCS6OqwChpiaM3RshJJYGnMwQLGpXCToqZflDg48S1Trg0ttw+e+rLBWp2rYjajgZQkNxrgZfHx2n7kKsymCSGf8eU7vVgZ7qPemf2KQEBszdjTjlVPks7BzVjP3Em8CoJm5G5BUu4vyvoqGzATtjQn4fIRadCYZEkomdUztRUpHzGwITd0wf24Odhs4zaopHTAJK95DEB2B21xqsgCU/txisyzTCwrUb4GBEwWmJBgjOfntDg9KjQ4tRzYXZlDH7N5l/mnCr2RHHnqkkfxn30MCanG4xLXRbeiaXw5Thzl8z4WIiF0GYexSjJL3n1LGobsinRNsQG+8V7JzSv96Cj4cxNDQ0oUPBkYZ+G/gly58n9esDjGpblQ1OdY3MYW9vC2M9IQQ6phS8PVAIF6nY2qsqRBaV8VhliipTro0DKlNya4OL/qrCRRjGlqY+49r2m8IFIwwMaeAMLU0+KgzcgRQ1Zy/BuzNLKfDWBU/HAi4uTrC0cMToFSvR2FEX1ec9VQR+MnzYORA6YnNMu8N8zlJ+tRLqn7VttVGy3VrEKe1Xhstbp8KdkmQNDR70qI8zg7XYtAQGLjiAaOUmkFmY1bkyBdU8mFhYw8rMgBJyMZoOWYHIgrIxCo52TWzDigWm1sXhVsIOzlV8MHP2SOiK9LD1VliutkrFuOZu1O+0UK7XOvmeJ0pkCNg7CnoiU0y8nLOJnCzlC9aOaQsjESXOfBEMDXRZQc3MtQbWnH2j9slNSUoUdk7vQfZJyYpQD9a29rA0owBMk4cyvpORwrSRJBgTm3jQcwpgamkNazN9OtcYrUevUQaNkrRY9KheHNoWZXExqLDZG5Q8f3mCWf2awVjMLMFifKgh+VAe+BSgNeoxmQbYBMikElzdNB7FDQTQMbWDq7MDTKzK4c8l4+GqZ4rx57O/2kGtEPcO0zp5U7/ThECsQ35NC87VO2Dd1nVgPhE2ffdTRSItw9Mjs1GC2WTUyBLubs7st9vHzloEJ3Nd9Ft+kQ2i8yLDpxtbUc3RkMpoCmdXZ5gbWaDfnIVo76aLSmNOUpCrep0UfjsGwlSbR7ZpgyOP5YKPEpkEczp7wcixKl4qPh8sy4qiZ/CCkAI82xKuKG5jDY/G/TG+RwMY03kvvuR86jPs5Vl0rV2STYyF2noURPMpINNGpVbD8TC4gM+0KZClf8WctmXYa0U6epT86ePUK/lu+6lfH2JMO2/6myZ0Dc1gx/R3CgCZ/t5i8V3FM8rwfntfCsatMPNBgpo4d3XLEGpHEdaee6dsG6afXh9fHjo6rtjur9hLQZaIZQ1MwONZYNFD+eav+SEXLgTo2X8ASpqKqby69N8a0NS2xuh159hkkoUS62d/TYAb9VexoRXcXBypDstjzq4tqGRrgE4b/ZTCxYtFDaCnUxyrnuf93fiAS2hW1gZCsT5cS5aENfXPNkPnwKeiIzx9JtN4kr9wkfL1EQbWd4NIoA07Z1c4WBihdpcJWNKzDAzL9UVA9ldFQq6hsrE23LuvVUmeM/Di5DJUczWHFk8IC2s72FqbU6CvRe1eDUfeMJu10bWhN1CVErWSXVeprX9OiXkLb0cDVOu6VO1rI5kvt8GJ2cRt2jVKJPP3RYxoen7tGOoPlCxTQK9DyZ3Q2BkT1u/HIG9jWPmuU26ol/TxKjpXLwE+XwcO9Ix2FqZoPuhPjGvtBsOqjAhbsHAxpW1lmJWsA7+vKrYpS8K0BhbQsfbFkzgV4SL2A5qVsoZjvUHKPS5Cnh5BbVcziHSNqV3cYGFZAt1Gz0B9J3PU7b8MKYqvijC29uHoNBoLRTTuUR8XC9B44km2riPu74U5jW++c48oPv+pAvm3wRVMoF9uCN4rPy8pwfMTS1HB3pB8OjMG6JP/48Ohsg9Ov1RsyiiT4syq4bDWE1D9iaAtFsHIpS627V+JyiYGaLXktuKLLjKc/rM79Gj8uPss+8tCWdg9qxu7R4aJjSOci9vAvFRDzKO4wtDMCQceU0KvqKxLS3tDm8aGLhvvFPCFGDl+59ex9q5FPlVMiTXPoASmbN6D4VVNYNX8T8Qrvuog+XIeVcz1UabfNsSrCBexn+6gPD1v4yHr1RLQzCdr4Wykj9p/Pibby7+zvj8+Blb6Bpi8/zUlhTnnZNxbCgdDA7RY8yHnWoppT68huzMRQ0tLAH0DPYrNyOdYlMToNefY5DXbTGJfn0dxU300HrNZrUyymIOoYEF2P+6USpwHfDyzBKb6Jhiw9TrVleJ4RgxOLBsON0tqQ5EurGiMszI3ZtvTsfoQvIhVzOSRRmNGbVPqx3bY+IiSvwKqOovivFmdvdmXTHyhGAItHrx8x+DUwQmUwFtj8eVw8jfMmRJcmlIDRobu2PGCEmClkadgcZeaMHaqjlefc14iUE1jaWd38r3VcCmAkl46zvS7brWYDXx14eDkQv3ODM0HzsMoH3cYV5sI/7js2TW5yEyiflcVlh4N8PZztEq/S8S0JnbQt/HF/Qj5chwGaew7NPewg1ODIYiJl88m//L4MOq6WUBb1wgubq6wsHJCt1FTUNfJEg0GLke8Qgj7dH8HSpgboO+i48o9cVRJ+XIHfRuVhYh8mpDGHG1KsEWmrpi09TL1zUxI499itE9lqncRbB2d4WBrgxodxmN417owtm2Cu5/kn5Fl6nNeZ0/o6Bpi77X3Bc9QywzDgj712c17+SIaE+hf5dYjsWbhOBgamWLrmefKL4gcmtuRjllgzw1/Gk+yKykNu7s5wci8Bs58zdkklREuZnauAUvXanj8ITx/4YJsaEF9Oxg7t8TDcCq34jD9AfumdISxdUlcf8J8VaSAsheBiDeX0K6yAztOi3Wp7/C1qb7G4eLiVrCyro5j1N5KsYX62p75g+Fkqs3uwWRtY0e2bwSBQIwyDQbgrXK/tN+D/8QeF59f3cb29SuxZNlK7D9zB8mqwd8/DTnD6yf3YeWypVi3bT+efYrO34H8FGSI+fgYOzeswaY9ZxBOiWWRoSD53b2zWLtyOTbsPo4vcfkHX3mRIuz1VWxZuwrbD1/M2VjubyFFyNu72LV5HVas3oiLjz6oCyZK4UK+OWdaYiiObl+LFeu2434gBdeK03ITG/wCe7esxdKly7Hj0HmEJ+Yo89+DTJKAiwe2Yfny1Th63Q/pKoWL+fQY29avwqa/TiFS6RXygZzbhzunsW71auw6do19m1kYsvQEPDx/CGtXLMOKtVtw9cVnhbr8faTFBePIjg1Ys3E3XoQXEEQWQEZyOE78tQmr1m7FPWaWh9rFEkS+u0m2t5r64SrsOXYFX2O/7/6/ktRY5rnXY92WffCLUhVO/j5ZqVG4dGQnli9bhs1/ncTnmNR87i/Bl+dXyU+twupNu/AwUPFmvFAkCH99HVvXk40cvU428jP6Vm5kSAl9iQPbN1C/WImDFx8hsRDDSo4OxPG/NmPZ0qXYtOMQ+TOVt6MMlOQEPDiPretWY/XGXXgeHFuE5yyc9Oj3OL5nC5YuWYbtB87gU0zupSNAYthb7Nm8lu13EczMAMXxPEjT4XfrBPW7tdh39qHat+Rzkx75DgepXtZsO4DgfNs0fzKSI3Bm3xasZfpYGJX1bz5/XjLx/u4p1necuPEy/8AoG2oPv3vnsWn1cixbswV3/XKJI4UgzUjGrVN7sGrVWpy4G6gmZDG2GfXuFnZtXIOlbH+/jC9Mu/zEZ80IfwgvSuDt6gxDOCXGBd1adY8Lxj73blmDdVv3I4DxP/lclBjqh31b12HDzqMIjCVf8CNlpnH9xrHdWLl6E+6/Z0TEot1EJsnA48tHsHbtepx++FmZdBaZzAQ8OH8Qq5Yvwar123DxgfqGj7+SxJA32L1pNTbuOo7gxIJn60jTE3H79F6sWbcJl1+Gff8z/h3SI3H58E4ao7bhWVDOcpX8CP/wAJvXrmRjpZBCnqcoyFLCcOHQdixfuQ6nb7/OZ/kf87LpEbavW4WdR6+S38klinyDyA/3sZ3iul3HKdHO71pZFmZ28oKRXUVc8SvgLa8K6bFBbBywfsdhaktKChXHf0ekKSE4f3AnVixj4rZL+BqfoT7m/GQy479QW+7Cchrj1m/bh/t+zFKVnBpK+3QOlcwM4OwzF18T845FqjBf+ntx4yTWrVlHPtQ/l3D9c5FQjHj79D6sW78Zl16Eqi2v+eUw/e7oLqymGPxpIDOL9Ad/W5aGNzepvlatxE7KJyJScvn9rGQ8v3IEG9ZuwJk7fkjN58WPNPEJWpYyg633SLyJ+MZMAWka/G4cx4Z163HyxutCBb9/J2m4c/YA64svPQ8udJkhQ3r8Z5w9sAMrli/H+u378dg/7G+JJ7+K/+TmnBz/cXIJFzlfFeHg4ODg+C9wY/NwiEXm2HJd8fa5AFSFix8OmDk4/sVkfdqDslYW6LP2NhILmgLA8VM4OKsLTK3L4PjjYOUyHY7fBFk6zkxuCmuXmjj3jtmvgWuf/yKccMHx74MTLjg4ODj+u8iiMaVNVfjOv4LEb8wo4IQLjv/XyFJwZGh1NOwzH2GK5UYcvwhZOIa0rImBa28hPvdSIo5/nIyoD+hUrxpGrzyV73IUjv8GnHDB8e8j4zqqGjIb6vHQY+2lIk/T5eDg4OD4NyBFRnp63r1m8uHEn21Z4WLLVcXGsxwc/6+QITM9rYB9dzh+LuSXMhi/xPmZ3xHmy1vsuMH1hf80nHDB8a8kKTYSX0PCv7lmi4ODg4Pjv0tmahJCQiORzk3b5uDg4ODg+E/DCRccHBwcHBwcHBwcHBwcHBy/LZxwwcHBwcHBwcHBwcHBwcHB8dvCCRccHBwcHBwcHBwcHBwcHBy/LZxwwcHBwcHBwcHBwcHBwcHB8dvCCRccHBwcHBwcHBwcHBwcHBy/LZxwwcHBwcHBwcHBwcHBwcHB8dvCCRccHBwcHBwcHBwcHBwcHBy/LZxwwcHBwcHBwcHBwcHBwcHB8dvCCRccHBwcHBwcHBwcHBwcHBy/LZxwwcHBwcHBwcHBwcHBwcHB8dvCCRccHBwcHBwcHBwcHBwcHBy/LZxwwcHBwcHBwcHBwcHBwcHB8dvCCRccHBwcHBwcHBwcHBwcHBy/LZxwwcHBwcHBwcHBwcHBwcHB8dvCCRccHBwcHBwcHBwcHBwcHBy/LZxwwcHBwcHBwcHBwcHBwcHB8dvCCRccHBwcHBwcHBwcHBwcHBy/LZxwwcHBwcHBwcHBwcHBwcHB8dvCCRccHBwcHBwcHBwcHBwcHBy/LZxw8QsIf7QNndt2xL6H0ZApjnF8P9LMNAR9DERCmkRx5Ofw8NgKtG3fDQ8+UPsoGig9MRoBn0KRKZX/9/+eLDw+shw9Ovii3+g5uBucTLYjwZnFA/DnyY+QZhf0VyFLwbrxXdC+/3pE/HOVwPGbkBEfhs8hUdQ/OA/G8XOIfHcMvTt2wLZLAZBI///YlSz5K+YN6IoBs7cjNTNLcfTvIsG22YPQffACBMdnsHGG5PMZDOrSCX+e+oR0yX+vfrNi/TC8YRm41xuKt3FpKOoolZEYjuCQyF8/hv4gmUkR+Pw1AlJFn5Clx2DtxIHoO3ElUtLS2WP/NZJjI/Dx4ydEJVCc81PbRYbAM4vQrXMfnH0T/w/Gc/kjSUtA0KfPSM2QKHMDSUIQtsweic4dO2Py0r8QmpAGSfhTjOo7AHfefEXWT/SVqZ/vY2KPZnArbgMbe2e0mnwUUSmZv1meIkXw+YWo5uGBHuvvI67I8X8Wor4GIzopg/q64hDHfxJOuPgF+B/sCx0NHsbu81cmxhzfz6N9w6GtVQwtJuxSDuo/g/2z2kJToIODNz8p2keK2b5u0OSJse16wD/SZpLgY/DQ1UYZ7+pwsTaClo4TJsyeBE9TffTd/erXB/rSKHTxEEJLvx3e00DBmW3hpCfHIjQ0HGlZ/z2RR5YahC5uptAUu2Fv6K8LAmSxd9C3WS1Uq90ch+8H5k0sMvwwrkVd+M49hzTJz6lnSWYKwsNCkZCaoTjCoY4USTHhCIuMg+QnO8KAa9NhJuSh/8pbyPzN+k16cgLCwsORmvlzRXIGacwr1LQ2hGWtwUhM+1l2l4GBdexgZFMXz0NT2D6a8fhP2GmLUGfOPaRk/Nf8kgwXVw+Crr4lVpx5jowi+gNZWggGVSkOvtgJ2z4lIfM3G9hk6eEYXssVAnEJbPqYiAwqnyzpMzpWKA7zCu2QkJSiOPP7SIqLJHuOpcT993lgmSQdQc8voG/T8tDha+GPP/7AH5oieNTtiuP33iH1p/gEGe792Qj6Yj0suMCMz4rDvwm7p7aDjlgfw3Zdpz4qL9yNTaNhbGyJShU8YGagA9vqPTB+QFsYmjnh5MNPyPxZIqQ0HWv7N4CurhEaD5iG5YtnYvC8k4hOlgufvwsZ0W/Ruow9SjYaipD4pCKXLebactgaakO/1gwExaVwMex/GE64+AVwwsXP4d2lZShZ3AEj1l74qW9L8goXMmwZ1xL2TuVw+lnoP9JmSQ+2oGylRngTloS4ry+xZHALuDk6oX73qQiITfv1TpgTLr6Lc0u6wMLcGvseMm/yFAf/K2REYE4bLziXa4EbcRlFfrP5vWTcmwkLIRPAFoOhR2e8iM/15iflGmro8KDffBWSflJCGXh/M9xsLDBqwzVk/SQx5D+FNAIzqtnDumJ3BKT+3ID2dxYuLqwaAmsHd+x98PNng3DCxd9HGnkVDVxs4TP/AmJSv8MXZEZjaff6cCvbBBfDk/HbTUTJjMOqfk3hWrYRztHYn0Xl+/vCRSbmd6kIG/umuP816bd55nNrRqG4iTb4hiXQdcQMbN/9F1bMHYeabuYQGzhi051IZPxtN/97CxcX141FSbeyWHruKdIUY9qJpYNRvfMyfI5LwPt7J9G9UWW4lPTEkGUnEJX083ywNDUGXWq6wrpcU7wPif1N4xYZLi3vAQuH2jj0KJjsoeiFTHxxEPUquKP6oK0IT0r/qWMXx+8FJ1z8An6mcCGRFM2TZ2VmFs0RUYEyC5o/J5NQQPnt38vKyvohpyCTZv30oFAmyaIE5Nv3VC1zXuHi2zBlL7zoTL0WrV6YNi3sPJlUgowiBfYyZGWk/406peuzk7dvCRcyKTIyfmRKIf1GEWyq6BS9nvPyd65V59iMJuBrCrD1ZlghdkHPnpnxXYFjUeuK6e9FnkJKRp5vkk79PetHEkiyBaYe/y4Z92bAghJZV+9q0Obx0XbmGaSo+qZvCRdMP8n4vvZ8f3M5TMVa6LXkLDILEy7YOsv/zhLJ99T9t30e098zmYzlWzB9sChzn5nz0os+U0bNH0lCMNxFGwKH5nibUnDQXFQfJSX/nH2PbwsXTP8sernZe+dzLjMmFGUcU+XYvG4Q6ppj8813hbatjOkz+f6dKTuNwYr/UiU/4ULKjIXffE7GfxTkc4siXBTN37FtWWRhUJZ/TML6hO+r8++BSeZv3X2ClKLEQ0xZvsPpMnaUUQR/JqEY4nt8uRpsHy9C3yWKIlww40rBdpqByU0dIBRXxo2gxELLLMnK/HZdUX3+3TE8xX8/Ktnqw8ixOo49CVL7zczUCGycMQanXsXTccVBBUz5ilLnTNvI+bZwIcmgMbmoTkYN6k907Q9dWkSK+rwyapP074zHMpPC4VPJHk7VuiEoMjHfa1lf8J1j6s9Fhq9v7uFpYHSR4nop1VfRy6qIx6Tf6ocKv/urKoHxT0zbFeX+7Llkc98wOin5xaKEEEWDnv+76vV/Dydc/ALyChdSvDm9ClPnbMPndFVzkOHz3QOYPnsZ/JPV38T439iBBuUcYGhgCBevFhg2aizGjh2LcROXICBB3vFkScHYPHMgyjtZw0BfH6Y2JTFg/mEkqBq5NB0Xdi7H8p0XkJEahJEtK8DQ2BKDNt8hByw/LzMuAEuGt0MJKxPoG5qhQuM+uPYuKo/hvru2A408i8OQfsvapRImbLmJ1CJ48bTPtzDctxZMDQ1gaGqPloMXIiwlU/HXgon/8gJzp07BuWdfFfUow/OTazBz7XkkZiXiwoohcLczhbGlI3rOO474fHpuTMBN9GpYDqZGBihetj72PA7Fvplt8ggXr67sweQZixAYrb6mND3kPga1rMqWnfmd9qNXQHUPiISPNzCxdws4WBhDT98AjmXrYdWFdzT45C3L28vb0LiCI4zoXnalqmHeoSfIUJ4nQ8DNv9C1SRVYmRpCz8AIFRr1xJm3sXkdnCwTL46tRKNKrtTuejCyKI5WA+cgMC61yM7m/qEFqOBoBkMjc9TqOhWfor/kK1zEBj/G9P4+cLMzhz49n517NSzYd7tIS3ceHlmMqi4WVEYDOJSujRWnXyvrRRr3HqtmTsOO6/5KO2SQpSdgz6o/sfKvi2oDV1LQXUwf0Ia1Uaae7UrVxOLjz4oUgCQF3cOMgW3gZG2qeIYaWHT0iVrgl5USjU2LZ2HT0fu5AsIsXNg2HzNWnUMcBZ7piWFYMXcyWtcoAc1iWmjceQjGjBmLWduvqgyIEry/sBZNqH0MDfRhYGKLFgPmwj9RXRBK+fwIc6bPwaOgaER+uI7ONUvCxNAQbjU64oZ/ZL4D28c7e9G6ujuM6b6GJpao32k8HjD7oaicm/juIubMXYHAxDT439yNeh62bJ9vNXwF4lOZfidD8PUNqOFOiY+ZLVqN3oLQFJWykX09PbgCs5btQpwyuZchwf8qxvVoBgdLua2X8GyIdZf9C030CkMuXPDRZOEd1C1pAh27yngeFp/zLAUIF5HvrmF0l8ZwZPyVngFcKjXG+nNvkVFYOSSZOLxhIfp1rg8xTwNl6vhi9JgxGDdjE4LY9cZSXN27HH9uu4340EcY1Kg0TIwtMGItY4dUB7IU3PhrIZpWdYcZ9V8D+lujntPxOlplgKcg48ah9Vi88TgS0zNxetUIOFFdGVk6oe/c/YjPFUVLUmOxdVovlLSl56D+XpH6+9k32W/CZIi8sw1zVx9EbHoKHuyfj5oe9ux5NTtOwtvYvIGFLDMJJ9eMQ5WSdmTnerBwKI1+s3cgOlnd10a+O485s9fgXVQMTsxuj+IWJijXeAgCHp/GjAlDUcmYDy0DZ/QZOYodc7aeekzJKmMHMny6ux+9W1SHtZkR2YAhytfrgmMvIvP4u/SEYMzq0xi2pkYwtvHAHPIZ7y5PLUC4yMKN3bPhVdJGPo5Zu6DrpM34nKQeQCe+OYu589fgc2oGzqwaDgdzE5SoNhRvFVOd317fh57NvGFDv8mMY2XrdsLZZ58L9RHS+CAsmjEFbWp5QJOvjSad+rB2MX7uQUSQXWSlxWPH8j+x++IrJAeegU9lJypfSWy+8561e2nCBywb2wOli1uyZbd2roixG64hQWWMUBUuYuNCsWpMOyo7YxcuGLP2DDJyJYVpke+xelJvlHexhQH1czP7Mhi96rjyDa2cwoSLuwi8fxgda5eGMdlqmXo9cCM4JVdCJEPY0+MY1K4u7Gjs0qe29Kjpiz0PmX2eck5M/foM82fOxp0P4Yh4fxWdapSifmEOr7aj8TYkkfXd8a+OwpfxScamqN1tFt7HFjZLKwMP9izAzD+34lOetfUyPD2xFtNmb0MQ2SzztxT6/YWjuqCUA9Uv1YWFcyVM33FNrS5kWWk4uGERtpx4ioTAy+hcoyRMaUxceobG16x0vDy5AbOXbUN0rkQvJfQVZvRpLvcj+sZwqUx+5MzTPAJDbOBdDPHxhpWJIUwoBmgzYgUC4tIV/TQ/ZHhzbhPmb76A2JQ4XFk3DpVcbWBsZo0mAyh+i1W9NguvT2/GnCVbEZkut+PChIu3V3eglTc9n6E++W4bNOo6GY+CE5RtGxN8C/OmTYC3kwHZsxU6DRiGMWMnYMfNQDWhMeL1GfRqWgUWxobkU0xQrdVAXHwXk8uXp+PO7hnwcrOjccwIjuXqY+P550V8qaKCLAaLG9hAzNfD0P3+SMlvvQ7ZUfZRWVoEjqychDrlXWg8pJjRzAEdxqzB1+S8b9GTQx5iSCtvWJgYw9q9NrZffoUbsxvkES6kGeQbN85Cw8olqU/ow9jCES0HzoN/BGPD8nMKIiP5KzbNHkx+1Z4dzy2Kl8GAuXsRnpgt7KZg35o/sXjTOcTQ+Kp6OwnFM7vXLMDaPVeQRGPC12eXyPcuwOPACKVfkqVH4cS6aahf0U3+vBQj+45YRv4v70xbSUY8dv05mGJ+K9bf2LpVxpiVpxCl6C8F8f72UUweOxzOFnowJH/cf/BwjJu1Bp/oN5jWjHx3HeN7toCzLcV5TM5RsSHWnHxGbZXdzyR4fmYHpkyawI4JOf8m4siDL2QT+f16Cg6vm4/5a04hMtdyFGb/uoMbF2PljvMUk9DfZOl4dXYTujZm4l8jGBiawLvVINz6lEA2qbiICHt9A3PmLMar4EhcXj8SJe0tUKrJEMQwS0qSA7F10VxsvfRO3VdSPPPy1Fq0qk5jOtWvkYUDmvebCb/wONZ/5SBB8K2daFerDHuetbMn1e0xMHtm5Pd0Uf73MGfGTJx48CGPD08IuI2Fc/6kPhWSM2skKwFn1kyAl7s9jAwMYGLrjoF/7kFkSl67lmUm4+ymaahZtgRrc+b2pdBr6kZ8jUlRi/XSafyaP5TiYksTGFAsX6/zBDz6SnWWX4G/SSaeH1+BppXdYGxkCPMSnpix/TKS076dq/2v4YSLX0Be4SILG1obQYPngeOhqsGYBCfG1YMG3xZbvyoUUFkW7m0ZCUttMco07o6pM6ajV8sq7F4POiY2KFWmDgUhmchKikDHyrYwti2FNt36YeSIoWhTpwyEWpqo2Xe58s2lLD0O/SjJsi1VA76eVpRAVkcH35YYuOYG22kzgi6heVkraJt7oO+oyZgxcRiqlzCErlU5rLsboXDqUnw6Pgn2+trwaNQD02fPxsi+7eFkUQ4XPxeuzr49twxOhiI4lK+PcdNnY8LQrnAzFcOkdCtc/5i/6pvN++srYCjQQO+l5xUOJgur2tuDZ9EYPTtWg55lKbRq54tqpW2gqaGBluO2qwWp8S/+greDPrSEJqjX0hdNa3lCrEOOrpQj1bm2mnCxaURdaIkMceJZTsL48vQKOOlrQcfCBS18O8G3eR1Y07NYNliCaKrf8Ldn4GSsgxLlaqHnwGEYPrg3vJm9AbT0MWHH3RynmJWEw7M7w1ykBRMXb/h27IRG1UpDxBdh2AZqB0p472wYDD1tA1Ss0xIDhg7HkL4d2WmV2hblcc6f2SRRfitkRWLziCbQFWjBxq0K2nfphpb1KkGPpwl9x1o4+CRMzbHlISsZh6a1o3rVhGEJL7T1bYNKTqaw8KgFZxNNaKoIF7LIs6hGA51t6Wro0mcwRg7th5puFtAUGqPb5pcFJ4o0CF1c1A1GOoao3WkIZs6aiUFdm8OufD/4KzalynyxG6Z8LZQefEBtvXJm9EdUdzZG8dp92A2sGOIoGCtnpQ97st0eA4ZixJC+qFWKyqGliyFrrxWaOMd/uQNPG+baaujeX3Gth/zaQauvKIP0xLDXdJ4Y5X2mIVl1vqo0Gn3LiaCp54NXyVlICHuCVjU9YW+uh2LFisHa0Q0eHh6o3GOF4i1vOjaOaQVtHg827lWprTujTUMvGFPb69tXx4kXIUq7CD63BCKhHroP7obSdhao2tAHrZvWgAEl1tp2tXD6fU5QJctKxd6Z3WAm5sHIsSJadSB7bFYbpjp86NmUx/aH2TM/ZPDbPgAiHRuMndYDzvYOqO/TngI2J/A0hSjXcyM2zesDCyNLNGzZFnUr0nHqO/WGrssZfKUxmFvbFjzz6nioSC6+Pj0Me0NtOHvWltv6oF6o6mIKDS0DTN/zoEgCUm6yhYumK9/h8tI+0Kb+UHUEJfjZSV8+wkXsrVWwM9CDW6W66DFwKEZSnyvvYAK+rg0WXPpYYDlkmSkY16UBXCng09IoxgYvpUp5wKNSJ9xil8NkYjQF1zol2qNRFUfYlqkNX59GGL38BLKyMrBuUAPoGlmhTstOGDp8OPp0bAQzbR6sKLn4EMlspEtIMzG+VXmYO1ZGj8blYe3ggbbUTlXcrNj9cxpPPYrE7GeTRGBRh/IQ69mh46BxmDdrMjo0qoTqXdcinrU/CW6OLw2xZSUM7l0fRiZ2qNvCl2yJ+jpfE1bl2+JFaIKyr2dFv8LoFuUg4gngVrkeOnfrgvqVXcHX5MGxRm88+CpPbhme7egNfaEl2nZtC6GBI5q1bo2Wvr3xaN9MVClHiSn5XA1KMlxKlWJtu9fMvaxtP9w+Fka6BvCs2Rz9KPAd2q8LXMg/iE09cOTFV6V4kRJ0E+09LcHj6aJi/ZbwbVEbZoamKE/9RqSpiX4qwkVG4ldM6VgVYoEYTpXqoX2nTmhaoywlOZqwr9wRz6OzN2GU4fWGbtDRd8TkaW1ha+uE5r7tULfeIDyhhObrgX5k0yaoULsF+g8dgUG9fOGgx4e2VSXsf1PwW+fU4Aeo71UR9hYGKKZBPtXRBaXomUtXHQK/hAykRgeghosxytbyRVkLHZSt3hhtmjfDultvkRh4DxVsDGDjUgHtew7EiOGDqJ85Uz/jodOcg0hX2Gy2cGHo6IkmNNbakV9o094XVRwNyS500Xj0LkSlKsZRaRg6V7ImGyqPtjSujxg2GC29HCHQEqP20N2IpkxM/igFCRdC2FdrCVtTC1Sq14LGrJowJTvVsfXClbfhyv7x8th8GOvqo7RXI/QZNAzDBnSDh50hBGSPW268U4rGX66sg76OPjr06Yyyxa1QrbEPmtX2pDhDC05NJuDQ1skUB1jCu2ErtKhdFrrUbiUbj0RIgSJ6Fm7MrAk9au+BW58jVUXgYfa8aWKnA90yQ/A+Ph1pie/Q0N2CTc469RqI4UP7o6GnLfhUZx1mHUNCujwrzUqNQSuyN5cqbVG5uAncqzaAb8tGWHzqATIyYrG8VSmILKrgVmwy9SoGKUJub0ZNVzPwxWao2aQ1Orf3QWlqS57IBK0m7kdEiryeM7+cR+NS5jBxrYvhk2ZgypiBqFnKDnOPvEV6gQl8Frb1KQXd4g3QqUVl6Jo6obGPL435HhDTOF2q6UiEJiuSUlkSVneguMSsAq7HJLHly0+4kKbHY/ukDjDXFcLUuTJate+E1o2rw0ibD6PiVfHX80h2LPt0ZzVqVy4PM7L9YhpiOLq4kz2XQc81t5GiGNfOrRkNewMRDOw80KxNe3Ro3RC2RtoQGzth0akXyuc6OIfGcH1jNOo0CNNnTkP/Tk1QwXcK4qjs30N60C2UMtGHyLkVXlEbFFRrcqSY3qEKjK2c0KRtNwwbPgxdWlSFgYgP14Yj4U++NtuPfbm3h+I7slldK9Ru1hrN65SDsakDalawIRvRyREuZAlY3ckdZlaOaNC6C4aPHIkuzauRrQrgWG8M/GJTCyyTLOEFOpMNWjmWRqvOvTFy5FC0qFYKfBqr6o7ajtgU5oVjBkY1d4eeqTPOPfuiFo9EPN0AVzNdNBq2FbGUvF9aPQT6BqZYdOaxIrmWYX6P6jC2LIGGVLah9LzdWlWjeIEPh5qD8CY0JwaIC7iBLtWdKGbQR7kajdG5c0dUL+NIflaAir7T8S6m4Oe4vHkSKpcvAz0xH3xtQ7i4uaN05ba4GpmIiNtr4EaJr1uF2ujWbzCN7b3Zl1pCfVvMPfNO3kdlGdgzuStcHO1hbW3N/rM0FkOzmAaaTjuF+HxfRGZgmm856BpY49DdQLVlHwnvdqIsxXQ1+qxDRGIazq4cCGNjc1Sm8YKJfwf08EFxU4p/rSrjzNPPyhk6t3dMhJGhMTq1qgdri+Jo6tMajbuMRlxCErICDqOcqT6ce25HVKLiBWRmFLaNbwNT6jfWrhVpPO6MlvXJvqh+9YtXx+5bAUp7/3BxGVwtDVGmti+mzJyFUf07oXLV2nj0ISzfuCLq6RE4GOvDsfkUhMUnK44SMgm2jfGBgYkjttz2IxuUQpr6EWNaV4GOWBceVWmc69ABDau6QkfAh0vdPngWHKUcP7Ni3mJyey/oi0RwqVALHTp3RgMvdxoTBXDw7oprH6JZMUcS9RT9ajrD2K4Ceo+chJlTRqE55RUdltxBHPmv7yMD68dSPRmaoE6bnpgydQr6+daAib4hGg1ejc9kW3lr4J+DEy5+AX9HuJAkhaFlWQtYVPBl1VsGaWokulUlh0GBXAwFOAxMIH78xBVEqszgkKZG0Xl2EDtUR3C8fHDJFi6YJEvHuS2eRao4mKwozKxtBb5RORz+lKP6SRPuo5aNCCal++NzKvUQaSQmVTaHwKk5QlUCDcq4CzVmWeobtHUUQuTQBk+jchThd5eWw1ioBZ8pewp9c1+QcKFR7A/YVe0Kv0T576eGPEMVGz3wHRogODvpzIzEhOq20BKaY/xZJqimY9JUXFncBSZiLRTjfUO4kEahZ0Uj8HRsceRpzr4X0e+vY+Tsk0iiG6ZEBeHgtbcqsyaYv19GCWMhPHwmKd5SkoPzuwAHIwFsvLojKlsJlqbj9sZhmL7pGlsHXx9fwNlnqssOZHi+fQQFrEK0XvNE6Tj99k2ASIsHh6Yz8YVpGxYZHu8ZBUOhJsrRAFbYFPjYjzdQ0kwE0zKtEZwuL0t63Cf0q00BN9mIhuqMi4xAnD19i5495/lkcbdQ21IALeue+FjAXhiyxC/wKWMF2xo91N+Mqdzne4SL9IQwHLv6HOkq1yd+fYjy1jpwrj9YGZDlR3piBI5fUb82KfQxKtjqoETdAUhS1EFRhYvsu+S/VESG+JtTYCmk9qk5DEGUEGf/6ebGkdDhacHBdyklr/L7M8IFIzRqUrA8dO01GkCZs6W4s6wFdOh4y2knlXUT/W4/nA35sPfqii80KMvvK8X7I1NhKdICv+RABLDlkwsX7H21LbHk5Eu57VBCNKKaGSvwaVuUw4aHkawqnxn9GvUdKGC3qoMX2W9A8xEuEsP9sf/6BzWxKvLFSdhSAFyu0+w8bxyKQvZSkSYr6L7pnzCokgm0NE2x6XaIvMz5CBeZ1O6HLrxUC4ISn2yCvZgH87YbvrkXRsFLReTCBVM/ltUG46NKWzP1/PjCGTwPo8E7+yAFJ1tHkA2ILLHmcZA86FAIF1qaWjAr3wn3PsuDbGnUbTQk29IUVcHlMErE6Vjmm92wEwlRbcoltQQop4/IhQuhVjHoWpXFgScKYUAmxeoB9cDX0kHXrQ8UzyDDwaltIRBoo/G0I0jMbgtZCvaNrQNtSiZbT9mnbCNWuKBjPAMXbH6Z87aWpZClImHPr+L0kxC1N/Kv90yGtkCEZouv0/3lz/HXxNZUFh34Lr7ABm0Mr08shKOhCMX+KKYiXMjwlMpiSDZQu+9y6u+KYEuSgv3jmkGb+kupYecVYo9cuGCe5Q9NXcw/8lQ+E0ZB+rtTuPHis8p4IkPMhZGwoAC1+oQL6kuQ8qGgpSJpCuFCQ4MS9barEKpIaBmkiV+xdd8NxKj4wXTyLVUt9aBfoTuN1fLgOVu40KCYwLn+UHyIVLw1S3mLVqVNITK0wbnn2cFxBq5cuo5k1SUR0lj09LKGvqUnHgYlKfxNQcIFH1piU0zcfVvZHgdndYKQbKPv5itka/L7Rr27jyP3v6h9fcT/9FJKbCghm3xI2RascCESsGL1wFWX5b5RGodVPg5kmxoQUHIz7dhL1oZlGYkY3bQMBEYuOPEulPxLzr1VSQ45jjJm2ijdbDIilGvRZXi/Zyz9vh46bHzKJksSut/Zqw+RouJbMpOD0MTDDDblWyMwSl6P2cIF0++KN5uLIOWbcEKakEe4yIoLQBsPG4iMS5IfjFDasyzxNTpXtAafEsPdNwOpb0lwf34z6Oo4Yq1/PLtxphzyssr/nx9y4YKZ2WXq3hjXP8v3mZCmhmFcw1IQ8Eww6hIl1czBIgoXwfc3ozglii71ByIsOTuJyMLbvaNhqy+AqPQIfIjJfkNf8FIRadwNeNvrw8y1AR58ykmWgq+shpOhGHzHDnjCiANIRyeyOcdK/fGRecvLnkVlK/zB8+XL3X2UAGnDudV0xBdB9Lh1+Sq+Jqsuu5JiTlcv6JgUxxnytXJRTYZZXbwg1jXD7KNPlHHG2RVDYUFJarFiYpUZF1l4cXYvgqJUZleQb9zRywM6QlMsux5B/UBxPDdZkTi79wQiE6huFdfKUt6jdxljCE3r41p4It2dfndZf+jpGmLYzpxNN5l2ODGyEvS0rbD8eiiVRZaPcAHcv3YFnxNVl3pLsaRfbVYoP3j7g9LHrx7SEDo6+hi87gKSFaKdLD0E833cocPno/fqu0gs8EGo7ySGo2VFOzhV645glaUimV8f4cTVlzn+l0h8ugUljXVh0XotwrNFABWk6eFY2MIR+kYlseVheIH1d3XjKBjo6qHv2jNIUr65z8Tl8V4w1LHAnxe/IpXqxf/pLRovE9XGlkvrh0NfTx8jtl1UPi8jXBjoiqAhtMTkgy/JH+VYSV7hQoZ3B6bAXF8H9o2m4C35XfntZXi0dwJsjCjeazsJ0QmM6JCJDd1LQdfAG2c+xqhs4ptTnjxkfcW4SlYQ65XF3ndRSFcURZoZj641nWBXtgVeBcfSmJSOq5NrwEhHjEajdyE8QeHzZFlYM6w5dEV6aL/6qmJGpgxH53SFAT13vXF/5ezVIUvF4anNYUr+vcWYrYhLSsP7wzNhZmiBUYfvI0kZs37LN+VP0r2ZcDU1QN2RexCWXT6yw6UDGsLAvAQO3XunHE9+Bzjh4hfwd4SL1KgPqGQnRpUOi+QDGwMZ7ZpuVaFlVRH+8anyY/khS8OqrlWhaeKBe5Hy3XizhQst/RL462WEym8DCe+vwZ4GvUrdF+VRFBf1qAShgQNu+1O5KImfUsUcWiaeOB2cbdTf5tPh8dDW0kbXXX5qg2dW1Gt4W+vDrt5w+t2CO0OBwoWWLfY8y/mUKWTJWNemBAVXJXEsSR5EJn96ADcKjuzqDEaqaoIiS8faoXWhyVdfKpJbuMh8sgiWFCQ7dN7NihRFRRrrj7qOxrCu3oecufx372/sCrGmJoZvvJdHqCksEMh8vRNWlNyXG3FKnjBSsjS9XUVKOIrjxCv1TUSz4gPR0t0CAtuaCCAnVtBdXx+mwYCnie4LL6i1eXrUEzQuTgFqQXtcKMnA2LpmZLNeeKQiRqnCCBety1jB0K0RPiTlf873CBf5IUsKRdvyNjCr4IuE75zKJksOQ7sKdpRctkYc+8bkJwkXlPAvqGtFduSMze+yEww5stQA9HQVQlPbE2dC5OtkWeGCJ0CDyQeQrDIoxH2+CncTPrw6LkIyG9xIcGZ0OQgoWZ18NFB9hoksEXNbOkCTkrmd9+Sf/GOFC54OOmx4zAYF2Vxa3hEiLU2MWK+6MWU69nRzhha/BLZ8Tpf303yEi/yQRr+Cl40BbOsO+aHPPKoJF/TDfhdWwEyHj7LtplFQR/cr6uacmS/hYyOEoPwYhFCAU1B5Gb4lXPAoQdtBfiG3P8yPVztGQMQ3xIhTfvI2UQgX2pYeuPxWddNWCQ4MKQ++lh42P6BEgn426+1fsBcL4OizBKHKt+iqKIQLvjHGH/2glmAmPt4EKxEPRk0XIZ5ZjyxNQ+eq1jAs7oWnFPyp+oWET3dRxloXtjV6IS1d3k/kwoUWWozboZwVoKSIe1xkk+m3H/aU2JYeuF/xRQ4J+tZ2gL5NeTz8FK9SB5m4t6sfjARaOUtFJJ8xrJwBeDoVcPKT+iaCssTHaOpA/U63Lh5GMLMusoULATwG7EdUUTZoTLuGSmZCuLZfh1h5BlMg3xIujFzq4SUlKd80C0kExlcwh9C+IfwUU72zhQujsr5s8KzaPgdmdoSAEuXJxx6q+cHcLO7tDV1je1x+Q8kme1rBMy4qDj2EGJU3btG3t7Bv76qPPaiWnOQmK/AcnHXFcO2yWplkyIULMWqP3o44lToMuzQWFmI+6o3chQTFCxZ6UlyZ3wlioTmm3fioJi6qwswe6FPHFXr2Vcheo+V1KknDvM7e0LEqgxv+EcqEOjeyzFQMa1IaJs7V4fdVbl/ZwoW+XSVcf59r2VI+wkXQwx2wo6SlZt+l9JzqS3SvbRoFbaqrrktPUl1l4OFCSizEpui37w1Sihy4K4QLgQVWXlKvh9hLU2GtI4R1l33yF1NFEi4k2De0AnQEevjzBPkCFZ/O+P9JzZwhFBjg8IMQRVJfkHAhxdN5NWEo0kGfzepJHxNjbutZmvqXDv489ZF+g3yKlw0sXBvjCZN8qfzk9/L+0noYkl1V7LkMiSl5k+CicGxud+gaWmHrjTfyfiJ5j6YljWFVqiPeqPbLzEQcGFYVOkLdb27O+WFPHxpvxBi3x4/auqhty5CFfX3dyS7csfttLMVmlPi9OgQXQ11YN5mJsES5sCSNvo/GdgYw8R6Bj4qvXOQnXOTH2WUDoGdohtVnn8rFxszXaF7SBCZObfCU7F61a8X6H0VZaz2UaToWobE5IlNuChIu8iXjFTq4GEFcfiQ+UL/Jfe6dHZNhqq+PzvMPIq6QL3QlvzsNd2N9WNYbj6/x8rLJYp+iRXEjmFTujw9k8wXVfPCVTfQbBvBllr8rfoMVLvR0UG/UBkRmz1pSkEe4kGRgTtea0DNzwcGH6v2QES/beRaHjn0tPGW+oEXj08YeHtDVLY711wNYkenbyPD5QB/Y6muj5azziFXMOkl7uw4eFnrkGw+wm6tKKbaua2sMHbc2eBLCfK2LPY0l5f1BeJrpQ7fiSLyLpv5PfrBvPTeYFq+M235hamNRYvADeLlaws67CyJjEuB/eBbMDYzQdNZhROXaauC7kMZhZbPi0Df3wsnAaBWBlvru0bkwNzJDv603KM4ufAz9X8IJF7+AvyNcZMZ/RgM3YzjXGYQ4hYwpTY/CoJpO0HOpj7AkFccvScG7RzewZ9NyTB43GkOHDEIddytoGrrjZi7hQt+Vrk1UN+6Am1uhL9SEY8UGGDx4CIYMyflXp5wdtLTNcOF5OJtcfzo+EQ4GAghNSmLMoq24/zqowDcqciQ4ObU5NDTEqNapNwar3HvIgG4ooSeErmdn5ayE/ChQuOC54myQakJFvzXEA5pajtgRJU+6Q56fgIWuJmoNWp1HHMlvc0514UIG/3W+lJjy4buTCaLk5+SHJDkc96+cwvqlczBu1HAM6d+NnYZp7tWTkg2m/ST4q38paGmKsP5OQqEBQFJ4AC6f3I+lc6dhxPChGNy1EfS0NOA++CjrdGXk1DpUtoShoxfeh+cSkGTxWNisJDSFztifkFXgYHB1ei3wNPhYcC7XppIFbM6ZmRyNh9fOYtOKBRg3ejhrYxXtdVCMVwEPIgpIapmlIgu7swmijkM1zFq7D88CwskJK/5OfK9wIUmJpHKcwcZlczF+9AiyoV5wMdeFcTmfbwoXzLWPrp/BpuXz5NcO7A1XGliMy7RUTPX8OcKFLMEPjahMfBcfhDAJpfywgizs6VUcPE0dLLkhDyblwoUIHVddVU7NZkiKfIcKlIh7tp4lT9ipbSZW0iab9cSpiLzrx8/OawWBpibmH3jO2jorXPANMOyM+rTVu7uHsG+xZ+1nzss+LsWlMZRU822w7G2q3NYLEC4kSeG4d+Uk1i2ejbGjqB77doG1rgBWtQb+FOFClhqGCfWcwRPbYPY1CsKTr+YrXKQnhOPOpZNYu2QOxoykPje4K1z0tcDzGI7gfEWAHL4lXIgMKuNRKPWtPDeRIiLgGU4d2Ia5Uydg+NAh6NbQk/q1HoYcfSt/U6QQLvTsKuLlF5W9OojrcxpCqCXE6usx8sRTEonFlLCIeJrwqNsF245eRlAU+WzlNQrhQmCD1c/V9yeQJd9BHfLF/BI98YHaR5LxBtVsRXCsMph9U6ladFlCMHzK0HM51UdautzW5cKFANMO5SwJUPIN4SI5KhBXTx/E8j+nY+SIYRjcvSkMyKbc+uyWr4eWxaKxqw6sS3fDpwT163NvzimNuIxKOjSmVBqNMOrD6r+ViWnNyAa1DHD8JdNfFMKF0ARjrkZTfStOUyEhjPGfB7Bk3nSMGkF2MagdLLW14Nx6JWL+pnDh3mikUuRUIysJL+9exo51izFxzCjyj31R2VIbPJt6eJkoX+aS3+ac2TzZPYUSfW20W3YxZ2lJeiJe37uCXeuX0rg+CsPI1mp4WENoYItLr7LXxhdlc045ma8Pw5SOlx+4CymKN5cMaXHBuHn+KFYumMnW1+CerVhhqUTH5VROuU+VCxfaaL3gFNJU/GLM66VwoAS81ewLKjPeZHiyoR/bRiPPqItt6khwbm4niEUmGH1CvuQiI/EjGribomT9YQiJz0lImH1gnt++iG1rFmHi2JEYOngAyhU3hUEJb7z9wqxRpyZQCBeOVSkhi801pTkf4eLJvmEwFvMxYOUltWdi+HJjKwyorioP3Myu7c76ch5NPSzBExjAZ9AMnL75jF2iUtCTyVEIFyJnHHgdrzbuyRJPo6qJGDplx1P/YN7iF0G4kIZjVFUj8EWVcfZLYp7163snNycbEmDDyez9JwoQLihGWFrfBEKhG3Z+TMjzadjn23vBRJvqZcVVpFLseWBuTxhrC2FZpj7mbjiIF5+Yflf4k+fHh8sbWOGifLfFSCiKcCFNR9Creziycz1mTh6HYcOGorm3O/g6Zth47TUbL8hi96GciTbcfFepzNphyH9zTmZz9eC3j3Fszya653gMp3t2a1oWYp4Ao3e9UusvuZFmpeHt45vYu3klpowfTdcORrOypuALnLDjVQwrXDBj9PxG9hDrumP3S0r+6JjfsQUw1jNEz9U5MwbyFS6kGQh+8wBH/9qImVOYsg1Dq1plIBAbYpniPEngRnjQ8xb3XUdxvHrslxH/BY3LWsG2QmsEhucsH8xNYcIFM6beZeLYZfMojh1B/awrShoLwS81FH7R6st7MiMeoHV5K1iW9sXDQBrPCjMJiiWWtXCEjo4rNj+Vz2zxP7capgYG6LjgKBKVoocU8V/9cOn4HiyaPRWjhg9Drzb1IBYI4TPnoLpwQddO3XtDZWaLnNzChTQjEd1qucDcrQaes7OLFCcyULK+tHV5KpcLtgdHg5m4/uHScpSyMoCBtTuGztmAm88/kv0UbBcMWSmv0NjDAiWq9sD7MIrvpWk4MaQcDA3dsPERM6sKiH9+HFZG+nBrPx9R8ep71iDrA/qWMYVIry4ufolFRrofGpIfLFGpL94z+68oTmNgXgh29nKFrlMdhEfFQhL9FP1quUGbr43q7YZg35mbCI1jxoLCGiQvsmQ/tLE1hdDICV379FPLA/u0rkX+XIwm884qhZnfAU64+AX8vT0uMrCPSaK1tOHVbRr2HdqHKd29IdbSRO2Bm5CePXBIUrF9RBNoC3jQ0BTDycMT3t5eKGGmB40iChdvLi+DLl8DJnaudK13rn/VULdFb/hFZE/tkyDw7kE0cjWARrFi4IuN0Hjy8UJmI2TirxH1oaEhgGP5Svnev+vkzXlmIKjyPcLF6WFlqM4csT1SnnQHPfyLgjVNNBm9TSVJk/Nt4UKKh/MaUJKpjf6n1N+cq5IRG4iulR0goORDiwbVMhUqw7uKJwxFPBXhIgtrO9hDU9MIu56rTDXPRcKrg6hkpQctDQ0YWDigUlWqI08XCOm/c4SLZLQsbQhTt/r4GJ0reJKlYGPnstDkOWAL/S1/dyvF8ZEV6DcEWH0z13PlJ1zQoDPVh5Inej6BrilKe9LzkY3ZGvILFy4YKIl7fnYdypgIyV40yDFbYujWO8qk4HuEi6ykMAysV5LKoQVNsQmVg+ypaiWYUtLzLeEii5LtwQ1KKa/1yL6WEu6fLVxIo56hErMvSbluSMyTyEtxfnR5sik+5l6IY5PXgoSL5Mh3qGgjgqfPTPmyEskn9HMWQlO3Fm7lM4Pl6pouEGlpYO5fj+i+hQgXfw3NX7gY6ykXLt4ULFykR/mhXXlbsnUt8HXNULZiFbL18tCnRMeq5s8RLthjQXtR2oBZf+oLv5CLqJ5LuJDFv0CvypTEkT8UG1qifOWq8PbyZPdl0PplwoUMLw/OgI2BNjQ1NGFR3B1Vvbzh6WpN/61bJOHixrxGrHCx6no02/YMEkq4Di3sB1td8uEaWtCzroitD7IT04KFC+o88LEQQcumPdlkBt3nGjyZmQV1JiMi1/PLUkLQo4I9+Pa1kapImn9UuEh8exLV7AzJ7jWgb2ZPPsoL3hXcIKL/VgoXkkDULi6GvedgfFERvRhyCxeSgKNwpkRJv/5s5X4FOUiwqL0b9RchDj2JZ+ukMOGC+VxmPTczKpsmDCwdUbEKlc2rDPRofPtVwoUsLRx/kn/UFWpBS6AHt7IV4OVdmdqTDy3rogkX747+yQaGzf88o0hkpFg7rDH02OUZ+nAp40n39EZxS30I9G1+TLh4cwTmrHCxUylcpAReQV1HEwjIb+gY28CT6UcVKdmmtiyScPF2WeHCxenChAsq08cD8NATwbjRQkRQvUZdmwQrXRF6rnnMLhNhkGamYHpHb+jSeKpJY3PJchXh5VUV1kY60Hf0+mHh4u66ruyeCWO23M0z4yj6wV4YUV2V7bkGSYpkKeHzE4xtQ0kOM87zRSheZzheRKQWGBcwY35BwgXSb6KulQ60XQbjQ1wRhQtKbnq6G1D7N8StqOx9OnI4+md7+i0B1hx9XLhwIQ3HhPJGZOcVcZIS19w94u2xkTCnMbXPonOsnUiz0vH0+GKUtTWk+EUTQm0jTN55o9CZAvkRcv8gTPV1YN1gDGKSCpkxrODcisEwY3wt9X1bl9Lka71Q0sGcXQKVLVxIPq2Du6EYHr13KcdwOfkJF+S/94+h2FiXYkQh7FxLozLd09PNkvwLD6MKEy5kyTgwrgG7twhPqAOX0tQfyfeXtKLy8VSECyLozFjY6InRfs4Z6j8U91F8bmDmgFOPcr6ikp9wcWXDaFiSTTPPa+NcGlWobKUcraAlNFAKFxkP56EEPa97vwOIyfV2PTMxDC0rOcCqXFN8VN3cOhcFCRey+JfoX9MJOjSWa9OYyoztXl4V2P20eLmFi6xYLGX3rXDG6kdhObPCCyHy+hQUN9RGs0lHyYdmYsek1tA3MsfeG/7K5QfBt3fC3dqE2kMTRlZO5L+roqKHE3ha/B8WLiSU+7RjltiXbog3n+W+QgnFy1t6Voau2BFrAqKRRn9jxK2wZ0fh6+0EPsUXPKEuGg1Zj1AVITUPNObP7VYL+pZuOPssEOnhD1HLygi2DcYhJE4+UyX03j5YGOqhYp9ViEnMZf/SUIyqZgGRyAung2KQlnILNUoYw7XmGASSP1ArcmooBtQsBW2HGgiPjGGPpcd9wcqRLSnXofGC6sqqXGtcCYzLI0oWhjTmOeraGIOvbYqKlSmuy5WrVavVCOuuvFHMqPw94ISLX0B+wsUmXzNKuN1wWG0zy7zCRXr8J7QqYw5Xr+ao71UOxe3s4Fa+OobN3Y6ghBzDiflwEE76PJRsMBSvwxUqniwNG3pVg5ZR0YSLj3d2wECoiYajCxcQVJFmpeDJ5QPoVtuZgnYh5hx5VYCjlODsjJbQ0KLB7hazIaHi8Hfwd4SL0BenYKWnBe/eSyjQUx+UijLj4uPG9uBTGzZb/1k98FAiw6213VhBqcPU3YhVLHCTxX9EI2cTWHhnCxdS7BngAS2qq1XXovKvB3J+k1qXhcDADsuPPVQuG8h6vxf2NJiUUplx0bGKJfTsK+FtaK4ATRKDqXVdoGVQFtdV1mGrI8P12fXY55p1/JOiThXkES4keLK6EyW6YtSeuA9fKMiSQ2VtaEk2+w3hQoEsIxY3j29A01JG0BDaYvN9+dTgzFd/wYKvBff+e78hXMjwYlc/+dT20VsQqZgCzSz36FjRFiblWxciXMjw6q/+7LXNRm5mN1xjj6ZEoEtlB5iWbaUMepLC3sDTVhtlW0368RkXiX5ozMy4cGgC/zxv5dKwsa0VeDxrbHkpD3qLLFxQ20yuTIES3x2Hg+XLTFQ5Ork+lYWHlWcCWFv/+cKFDBeXdoKYru0+cx+7pp+9MuYNalEia/2TZlzIkWLLmCbg8bUxcesiVKPgSSlcyLKwd0xzCEQmGLD6JCKyZxdk+aF9cRH4v0i4kKRHwqecBYwcvHH04SflW8d3f42FmOr5R4WLbOLDPuDw+ilwNdeGeelW8GeWE1D/K3DGReRFVNbjQ1B+BL6S7Usy3qK6nQj2FXvjc4J6n5TEBaKRuyUMy/j8zRkXMsztUhVCA2vM33cLCYo+kuV/GE4UNJVUzriIR7OSurAq1Zb9eoLq3fPMuIi8jMqUEAg8BiI412781Aswpg4lK3xHXPpIgTNVZoHCRWYEZta0gkDPCfPIfyrXeWfcgZeFGC6/SLh4eWo+DMR81O49FwGK/RaYvjrNyxJC2/pFEi7ubRsLEQXIvbYwe9xIkXzvTxTXF8K11Uy8DslZarO8f03oGNv9JOFChrVD60OkbYCJG8+xy2iYO0qCL6KUvghO/wPhglnisKC1EyXXzjj84iNWNLeD2LI2Ln+lxJy9TIaQc+NhTfZRvddSfMyu36xUdhNaY+dqPz7jYv9wdsZF78WnaYxRt4uAi2uhJxaj/kSyZ8XSKhaZFEEvb2LuwKbQJxtuMWYLUgocdwoWLqRf9qCsoQh6teYjhJkpUMQZF2O8jMAXlsaxgLxfDNg6si5EAhG2X3qvSJALmnFBddHAlM51xIY3ccqEO5sHq9rDUCTEmG2P1ZZOMInxlf2rUM1GB0Kzyjj+kZ4pVxkKIzP0PjzNDMAz9caF4MK/eMDMJqtbwggWpduQrX9V+tpTC3tDl5Jq5YyL+MPwNNWBc/MFCKV+lnPLvMJFeuB5VLFkZli2x9mn5L8VDjjg0CBY6IoLnXHx6cJKWOrporTvFDz5xMyWY35JgiNDykBX21lNuEiNeoXa7hZwrdsfIZFv0b6CFey8huMD2W723XMLF7Lk+2jsZgIT1+Y48zRIOQ5eVJynnHHxaRM748K+2RJ8ZWbqsGfJSYsNQL1S5nCq3gOfC1kCkq9wIcvA/gmtoa9vjr7Lj+Ark6Qzf6AxtWspE4g91IWLt2eWwt5UF01HrC3SfiUMGUkf0cLThvpnF/iHvEH3qrb/195ZQLdxbH28sS00M3MSO4khzNAwc8PMzIwNMzNz0jAzMzM4YDt27JiZSdL/u7uSbckU9732fXmv8zsn57TyajU7c+fOvf8dgIX3ILwLUy3xUaRgCvVRA0NHrD75JGe/hu93dsHSyPDfmnHRu74bzEvWwEs/bgmZ6kKOrBjMbe5FPrU8zoeo72nBjfcJeH37FPo28oRU3xoLL74tYo8kBd4enAZzI1N0oTjuyclV/AmEg9eeRaJqCV38mzOw4TbxbPs7IvLOuEh7g65uZpDY/4bH4fHITP+EJuXM4VSxJz6Gas7QlsUHon2VkjDzbIWI6DjVpxwKRPq/wq75A+BkIoV7k0nwV+V/xYHbs6WLkzmkzi3wMjyW90E/O0y4+BvIL1zIcHKoGyX6xljzINexZCWFYGTD0iihJlxE+VKyqivAkC3ksKhjFiYofDs3EgbaWui19hF1SNU18lSs6VkN2sUULpJ878CJgiT7hqM11tgXRPZPZON/fxcvenRbeII6V8Fl/H56OnS1dVBx0tWig5hC+HeEi5Rvz/g9Liyq9tY4mk6WFo2p7cryR98VucfF65WwFWnDtOEyRKvtPMQdvRYezq2Jk2FHn1L5ZlJkxXxCQxdTNeGC2+OiB/8mq++yS2oJIyFLQ3IKOdisFLQvbwbLss0QGJcbDKW82QU7NeGC2+Pi906Voa1ri93POOFBdSHBb1DqZASzSl2QqraZWV4+nB7Pn1rRcdYxKouqXigoi313AN4mgtw9Lrh9Q7qVpzopjRPqS09kiRj3q+UPhYu8n3++OBHGlPiO2P6crwNZ4Fm4iXVg0nge4rmEh0eOb4/3wcVEpCZcyHF0SFkItI2w+QmXwCivlCUGoWN52x8IF3KcGKb87sbHat9N+o5OFe1hpiZcpEV+QQ0XIzjV6Zd7P6qX6Fd74WkkgJa+pnBxel5LcEuJtt4MzrV/eSyWNuQ2iaPB7nGsRoCWEXUfDYxFEDl3wQdVolBs4YJs7eKEChDp6GD4jrc5wRyHPO07hlQxgrakDK585TZ+VO1x8ZcKFzKs71EaAh1THHmTW4+Zka9R085IU7ggG02IiUJ0XOFrV7MpWLggu/9yCWUNRdAvVx5u1P9zhAtKWia29ILEpgLefY/L6XPy5Jdoa1884eLLvXWw0NVB78VnVRtEZlO4cJGRcB8VLMXwbDEXMao31pyFv9k5GpJ/VbigP2qUk+ptSY9alGCVxRM/TuBUCRcCXfTdSIloTh+hgPvEbOiKhPAacZR/C8LtcdGjui30bT3xwDcmp304wt6cRklzSlo7zUK6KtArWrgIxfgyuhDZNcMbjWPgstCjhg3MStbDx/Bcf5fy4SCcpaLcGRdkK4MbOEPP0h13P6v2LyDkmYk4Oq0B2Z/aqSKyYIyuYEh25Yq9bylgUitKWtBxVKb+Iik3XnVsZuHChSLmDWpTEmNQqS8l4bljXFb8VVS2lBRLuDizuA/EehbYeMun2MLF5ZVdoCsUYMmJNznJkCIzDBOrWBUoXOg6NcSdb+rPKcf64Y0g0jXF5psfqC3keLOsMbWtPkaeiaY+obqM6nRp3xrQM/mrhIssjG7sDAOLcnjgn7s/QJrvebjp/4eEC+LViakw0xVh4PhJcJWIUHHg5pzf5erm9tQq0BMZYt613LpQkB2NbOYB05L/unAR+HQvv8dF5c6/U0KkvnRBjmMLukMikWLWHw/4vQXy7kGVFvIGlV3MUa71RCSlFJa4qYQLoSFmH36B9GxjpT79dkN3qk8Jai14iiTuZUcx97g4PKoy1YUQU/e9pkQ2t23lad/Qt5o5RPpeuOWbvfdBJma2doFY6oWb/ur7IcjxalE9frZJ+8X3aJzLbU9FegRmNbam77hg/+tYvn9pProCAetbwEhqhCnnI5UzGRRZSIgmX88dRZmnnjSgWGJfrzLQE+qg7pgjiMx7vCR9Nyk2gtpChsxXi+FqJEX1cadVR3crOT6vJ/TUhAtuZlfLcqawcG2OV6q9Tjgyk79hbgsXSNROFfl+dS3M9PXQYOaZnGSSq4t3e/vxe1wUJVxcXz8S+vqmmHbqYe4bZ/K3+6l99aSawgW3bGxh55rQty6Pc3sHwZ4S7J7bPyAxe9dGIq9wkfVuJUqb6MJr2DHEJOc+77kVg2CgJlxQJ0brMmYwsamHhxrLMxQIfrQcJU118eugTYhOLnwpToHCRWYSxcNVYOBYGS/8w+m+yhvLUl6hk7spJGrCRWbca/QsbwFDu0a47kvxTcFVlh95OtYMaAQDqzL4Y+sgOFG9dNz4FvFpqhvIfNCuHD1byb54R+XKvm3Atc38Phr/qnDB7XGxoGdd6Jo4Yts95eke2aSGvETdsnawqNwFobEJ/Gd5bTjq+gpYGRuhxdI7ZIuFjx/yuIdo5WwK/YojMW1gPWo3Wxx9lCtCyaNfoKGdKUS2DXArMFojLoy4vR6OJgYo2WMTwjlBitvjopE7f2TttTe5p6lwhL+7gPKOpijfbhIfX+Xrc4pMDGvhCVv3X6ktKc7g/5yF+JhoxNJYVNi+QZygubmdCwykTlj5MEhjX7SfFSZc/A3kFy7os7OjYKijhUq/zeIT4ZTQN5jUrgJMDSUoIcgVLjjVtq6LIfTNHVGtZm3Uq98ATZq3RI8BY7D7wrMcZxHxZgNsxFqo0nWRSg3MxMs/ZsLVVFLspSLIisO6jqWgIzKmRPYPRKtteBb4+gY2bL+KZBoR5NGfMaDfOFx9G6J6ngycWtSFn649Ze9TGjQKNnRFii/6lzeCltQe8w4/zrmOmwL68soBnLvvk7/zqfHvCBfIjMG8pi7QpuCh/dwziKPBI/H7K4xsya1r1C7GqSLRGFqbklChMSZtu440+lCeEoJNk7rA2Ws0giiSujxX+aZ79NYHSoEpIwJbx7akAVobljX65AgXUZ8uw4XaxdCpBg48DuEdV3LYB/zetwmGLD6BrMx0DGlQEhIzN5zzUR59Kk/8gmFNPaBTInepCMfn47NgQAksdyrI+TfK9kgOfYsZXapSe+igT15xJA/xgQ/gZa1LA1V1HHvPbbqVhfeXNqKqkxEl3Fpqp4pk4eqMRpRU6KP91jf8EiVuU7U9036DmVgbvxSxVCQp7DNGT5yPJ19jlXWZGY2tgypT4m2AFTfClUFGZjCGe+pCW2yDucdf8snCqzOrUMHeiJ/F4qQ24+LRipaQ0LP1W3FDmVRkRmHf1PYwFuv8YKmIAk9Wt+JPYemz/LqyDqks+6d3gIlUoLFURJEWiSG1S0Ggb4cZJ97xbed/ewdqljSHlBKzEnmEi9vbBvH2P2DleWRlZSIsgkukFYh9sICSB2qfMs1x4U0ob7dZsb6Y0a0WBGRzAzfdzBEeii9cUKLw8TjczUQUsNfB4afB/CCUmRSMZYMbQZcS4nozLyKRdw5/h3ChwMkZDSDSFmLy7sfKsqaHY/3IZrytqy8VSQl6gQblS8G5YsfcU0oKoTDhghoJzzd1ghHdu8Qvv8AgZ8ZFBtb2qwuB1AoLrnzmn0GeGYulgxpBT1C8pSLfX52EnZEQ5X+biWQqc3xkFFL4uihcuMhKDUaDUgawoDb9EKH0qwmfzqKppw20/sWlIp/OrcOohfsQSgEWd5k8yQ+dKttR+9bDx9Bk+q5KuNApAZGBHYavOYdYipDTwp6jczUn/vjXHY+yNxFV4NTcrhAJJfBsOxEvgpXrnMPfX0b36g4QCoyx6NznHFsoUrhAMra0MIZQZI2514IpcEpHTBTXj+UY14qSMRMXHHlO9sfdK+UrxrYh29HWVhMuKMmY04UvS7W+yxDIzQDJiMTqUW2pvwr50600ThXZPwymEgHKNByIV6oEPP7rQ/Sr50btTL7hZhAlBlwZi5hxkR6IAaWMIDT2xEHyadwjJYW+xuCGbpBolyjWUpGH28dBItJFq3mnKCDOQGRgCO/zihIuHv0xCfpkvx1n7qfklLt/Os6vGQ5L7mSPApaKaGlpwdy9AQ7d9yOfkYYPp+ahjIUUJi4t8EZ17GHs2eEwo8SyYv+9/OwybnngzU0j+HH9r1sqosCinlUg0TfD5msflcFx6jfMIh/FnRTi8h8SLpICHsDbzhgGBobQJt+47HT2UgclAXu7w0QiQsspx5U77mfG48ziXrA1FMHg31gqkhn/Fd0rOlC/skH/ZacRkZQJeVYqHhycA09rfejat8CTQLq3LB7bxo/CljNPqFzKZ/x8bQOcKElsMGQNkvPMnslFJVxwx1pblsGMvff5/cpCX51BvdIWEFtWwtUg1UyIYgkXQNCTPXA114VVuSY48UI5EyE1xg8L+1CiJNJDo/m3EJsjRCiwtj+1r1AXay+8Q1pqKp8UcWORPPY+6pakOrfxwoYLr5XJXFYstk/rQv1QiipDuVmNGRQ33sfsWSvxhnwJV05Z8nfMberE7+Gw73M83/8Sv9xC9bLk6yt3xyuq29yWy09W1FO08LKCWNcU7cfRffmp+zSGJUfg/LY5qF3OGfNP+SM14iQqUxs41BiCL/ymm1kIuL4eNWgc1pGa5QoX9GtL+lNSqmuIbvOOUOyaiYzIt5jUuSbZH43XJXRzhIuUt4fhYqwHi5qj8UE1++HzzZ2o5WoKHS2dIpeKvDs6F8b6eqgxcpuyXuizW7tmUH+UQkvHVVO4oL8GnpgKKwMDWFnoQuTQEI/DNE9tyjfjIvYCatgawLJCb7wL4d6wy/Dt9lbUdbOEQGyYK1zQvbdwsaVUFw0HLsbHCGWf97t/CI3LWEBk5I29z0LyjKOaFChcyNOwfiCNn4a2mHP2HY3j3Gk+MVg5vAV/2pNOWZVwIc/A/kkdYKBvis4zN+Dsxcu4evUq/buGp+/JR6uE24JRIPj8fNgY0XOSDYvsauO++iaVijgMrecAfRN3nHqhXFaT/v0+BjT0oJhR8K8LF/S7X8jH2hrqwdyjDY498uP9S3LYO8zpXZf8mgi9F55EIufXM79g8agJuMzPeqFnoXY4MbcHjAwsMfnUS81ZuPnIxLGJ9WCkZwpDfRGMa8/Clyi1/qBIx915TWGhJ0H51uPxMogTnuSI+XQd3eu6QdfUCdtvZQsrCpxf0p+3ubItRuH+lwh+3A73uY5+DehakSlmH3lB5cnCle3LsGj3JUSqZhylfruGBmUtyQ8OwifVbBZ55Ak0q+CGWu3nICAm/yar2SS+Xg8vW0M4ks+59j735LDU6K84c2g3AsK45c2Fffs/DxMu/gb8Tg6n5FKMace/5gSvGQmBZHilyVFygag59KVSOFVti/3ze0Ascca+EKUjkWXEYWWvapAa26BR02Zo0rgR6terjXJO5jS4G6LDkhu8mCBLicbEjpUp8RHCpUINVPMqCXPXapjUrxElwJ54kC1c0P2G1y8Nk7LNEJ5XuCAU8RTgNfGCmAI8AwsHeHp5wsXWhJIsCbxaLUUUZdnymE9oTwO9UEhldvOAmyMNIjQoelEw9zG2qA5NydmTQ6hb1hoCLQHMndzh5VEWNjTwc+t3R264yg9ehfHl7kb+2NQha6+rrsvCpp6loCPxwtVg9aRIjisTKkMoKY2D0Srhgkj3P4fmlFyUoOTf0NSMgkwRHLybYOakITQoGOD4g8Cc9tk1oQm/xuv8m9zTSnxv70RlJ2P+rGo9EwsYUFl0TRzQbdF1pJBzjfa/iYY0aAgkxqhcpx7KOtqiXP0O6FfDHrZ1ck8VgTwFF8kZOZqI8UsJbZhaWPDH+umau2LuH0/o2eR4fWQ+SplLIDRyQPWaNeBgaozGA0ejlQs5u3FnVcE7oUjA4RmdYGMgooFTDCsba0hFOhBQ2ZsMXovvKUW3BzdQXV7OvQ3gjgwTwszUECIqf8N+SzC2QzkILXrClxcu6NKIe/itkgO/T4lHlZqo4OaI0tXao1+nWtDRrVnoqSLcsoumHpbUHgYoVY7sydoYApEhfh20ERFqGYfvpUX8mwItSogtLE0gNbRGx9GL0KmiE0o1omRYNVgkhj5Bmwp2EFKbVaxdD56u9ihdszX6/VoaVpUpuCtUuOD2rnhGQa3qu7XouyXtUapGK/Sr7w6rih3UdsSW4+uFxShjrcfbi5GxEdWLCVqM2YxZnd0hMu8Cn9TcpDji7Xl4WlLwoi2mslN/rjUZGXyAIce+Ob354FpLWwQzS0teiOE2FmvcbyGC43PfNn2/tpYSf1302nRHQ2BIifqCao66qNJpYe6mlLI0nF42DCUpICrB2ZC5BQzJHrXFRqjbbSpCct5i0WC9byQFb6aYePW7xn0f/zGOfk+EhcffqQ1CctyZUZ33QRs/cao891Ecljd1hsSuPl6qpvBH+FxC3dLm1EdMULl2Xbg7WMO7cSf0q2wJx0ajcoSLxK+PaAA0gNSuHp7k2SgyL5nPFsGW/GC7TflPIMhKCcWABu4Q6ujAsdeenLddMS8OoXYp8j8iY1SoXhPlHM1QvtlgDG7mDN3KExD8A+EiK84fvWu7QKCtA0NzK0gNquB8FLfhaSYmt6B7mNfFyzBN4YJ7s3hkfl9Y6Ipg5ODB7+1hRn5gwOi+cJGaYOzZ3FNFZpBPNnKujvffNTdJu7esNaRCfWy+x003Jt92ZhGfAImNrFGmXBlY65NvMXPGqA23yLdwfUQlXAgt0KZ/V9gYSqBrYEy2pEV9zxztx29DjJrQrEj0xeyutfn9dXTEerC2ogRJQD7G1AWDVl8iO8rtd28PDKGgVBdzT1ECnafeOfuJuzWXT5R1yN+bm+jh1wFr+MT8/enlKGOpxyfQ1WpWp/IboWHv4WhXShfeww7ltFFmxAsMrF+GT4Il+kZUJh2Yu1TG+GXr4WIuxfCND3Jmu2QlR2LhgGYw11Pu1WRuYc7v1yI2tkef2Xs0kuJPOwfQuGmJaXfy7nGhQMjlufCwMYDYwBrVa9WAq4Md6vaYjfpelijXZfMPTxVJ8b2Cei4m0KZExtjUFAK95ngWk06Bmz/qu5vDq+VExOcRLriXD11rlYSYEke3yrVQyd0ezhWbYV7fCtB3bY732aeKxH5AQ3sT1OzQF71/LQc9iRjG5F+4o3eNHSph5bXct3PcmucJrctTu4tQunw1VPYoBbuytdH7tybQM3PF9Q+Rqr6biZGNnWHm3Bxvw5RLzzJfr4CLgS6aLX3GJyDZZH46DXt9KaqOOqASLrgNE7fB2558HNVXVW5vLEsz1O7cH13d9VCuV+6pIiG3t8FEVx9dVlxUJVBK4j5tgKuBFJ0W38jx01w7vN5JsQ/5uimXfX8oXHDTtZe1L8+/SNCzrYVHX9VPoaFyJ39BX/LTYrJVbvwp7+YMpwqN0LtZZZi51YOP6k27LC0WHavYoVTtgQjKK1woErGhszf0ufvHZe8PoUDMy4NoWYn8ALWBrpEZzIz1+ba392qCAy8jlYG7PAFbBjSCiVQMU4dSKOvmxJ9qY1O2Po5RkqjuWzVRCRdie7Ts0ARG1CcNKdni+oPQwBbDV5yiOlPZoyIZW3tWpfJVw4Ns4SI5GL2qusKmWrcc4YJ7M35kfn+UtNTn98Ph/D+/two3dvedg4gUpQCazfMTC8EdCyqQ6MOc+mndGeQDVH3g1u7Z8HJQ2rqRmQWMpTSOiPRRqflgvKKkio+10h+iRTkbGhdoDC9TDk5WxrzPbTdle85yp9j3l1CSEkU9x2Z4pCp7UfjdOYDWNbjNBLUplqVx08oK+hIhBORDqzQbgvv8shYZ1o9tTWUSw9atAqpXLAdTu3IY1LMtDIzsck8VIaJen6akjOJSqlc9I1NIBDRWVGyBpRvHUpJsiZU3IqDU6eJxcGJLWFJSaeHkgdrVvODgUhY9x4+Hg5kRphzyofbQcCg5KBI+YVKritAXieFUrjKqebvCpWxdTJjQEWZGXjj4QXmqSA6pb9GzgjVEWtqoOXA5EvIsp7i5aQzFFlZYdeklJapcjcmxbUpH6mNi2JTyQo3KHjCzL4u+PTvCwNAC6+i67COMU4KeYHDzyhSHCiCUGsDK3JgSe20Y2nrg9wP38yXyeclMikD7as5wqzdQY4+L2JeH0ciTOwbYGN5Vq8PDyRIVmg5A3yYlYVRlAj5TwivLTMaU9lX5zaR/+eUXjX/uDcchuIikmCfNBwMq21Ef0Ebl7nMRl6i5ZOLevtlw5WbNWbmgeo0qsLGwR/tePeBhSL5H7VSRh/tnwsTYFHOO3MsvXAScQlWyU48hBxCVfYgB9f+j83rD2UwXOrzNWVJsRPWna4YGA1bgS4xSAEKWL8Y1KAs9kQR2rm4o40K2T+NoxZbD8Cnkx6fqfHuyC2VtuT5iipEn/ZGkfjQHIc8M419Ucpvf6lAsam5OY4y2NvQtS2LwkhP86SPZ31Ak+mNR/+x9VXRhRfGlREjxgakT+iw+yZ8gwr1MurR2DOxN9WBo6YAy7qX5/cZMHSpg6fmPyD4xKMt/PTws9OHWeGaRwgX9Ko4sHQE3awM+N3JxL0v+zgWG1A+NXarh5pvcfVp+Bphw8Tcgz0xFXFwcDfSazjAzLR53j2/CxPGTsfP0fSRRIqS8ltvhWWkUQTemw0wkQN8195CRlQWZTIaszEykJfmjrzclLaKqeKA6OUOWkYrXNw9j5uSJWLH7HKKTUumzFMTFcypvTjdAalIC4hO4qUWqj/KQRff59vo6VsydjrHjJmDB6h147PMtJ8jh7pGRkoinl//gd2SeMnspLjz+UqhKrYkC6SlJeHblD/w+ZQLGTZyGdbuOwy88hl/TWxTc5lBxcbFq5aDxNCUBsXH5d9bOSk2kz/PvlJ2eEIqLu5ZjypQZ2H7iHv/WTJaZRtfGUUfM/f2M1CT6LF4zkFfIkZYYjYv712HyxIlYvP4Qv3Nw7m/TsyVH4MLeNZg4cQoOXn/F70Senkz1nR1wZEPJT3TgG8xr40yOywGj1v+Bb1FqajwN2LEhn7B9xVxMm70E1324QTcLKQlxatMblXCbCCWE+mD/ukUYN2YM5q/axb/ByBE3fgSVJdzvKVbNmYrpc1fi1ocwsjWunRLIdpRvJLLJSAzHtf1rMY2rv5MPEcu92Ujj6ooClcJ+jgwtNTkat07sINscj5mL1uLuh9B87c29VY779gIbF80im1qGh59C+DZJSYyngE19EyOubFG4emgDJk2Ygr0Xn/CBdTrZZHziDwZM1Xev/bEBk+m7ey48Lvy7nAoe/A6bFs+gNliOWx8jlPVC7Zm3Xrhrk8PfYcuS2Zg4bT4/GylbhFPIMhEb7ov9GxZhwvhxmLNsK175h/P3Uoe379i4fAMw93Y7MZ7aPe+0T6qv+IivOLJlGSZR0DVz0Xo89Q3RSCg45NSf48iW8x7pxfkL7vdypi6ryEpL5H2Q+puj9KR4ema15R70bGlk6+f2rMbkSTNw+NZbpa3TdfHqbUVlTKKy/7hdCFk64qkfJucZ5LPh+iRX3uyAW4kCKbHfcXzbckyd/jsO3PiIJPIPGZztaqx1LgzOl0XizK4V1DZTsOv8s5wNj1NVz1yQXStkGQj9eB8r507D7KXb4BNOviIrAwlU/lQ1u07jbCUhd/p9NlnpymfJTlC5PhwX5osDm8k3TZ6Mhev24fN39em3uXtcrHuZgEj/x1g9dyomz1qKBz7BuaKoGpw9hfvcwwayyTFjx2PljlMIjOGSAc3C8GMEZweF+l8ZjQfXsHjWZEybvwbPApRvtnn7C/+CPWvmU/9YjCvvw8j2Mgv0UVlpCXh0dhdmTp2KpVtPIyiGxibOb5Ft5Ca6Srhyh/k+x6alszF+/AQs2XQI/qExGv6ZQ07ljufsuoBnp78iPvgDdq2cS75kES6/COCfLyUxAQnk8wt70lwUSIryw65V8zB52lycePxNmbxSX0wif5SY5+g9JQoa05Nw78xuTJ8yFRuO3qExOI2ePYkfb3PqneotOSGe3+xRRnbw4tI+zJgyCQs3HoFfRP7NnzPTE/D84h78Pm0q1u2/gKj4VPqM2owb39SePYXG9bgESiqyb0D9iavfXLFHhTyT/An9PiWcOT/F+a/Ybzi8aQmmzZyP81RfKRkUZ1B9cTv9Z1+n4Gycvsv9TR2FPAOJ9Eyc71IvPudjuOt/NLZnk5WWzPchzt8X1O8y0uJw/9QOqq+pNP7cRhz5xAz6Tnwi1W9OxZFPoLpIpHvkrUvub5wf0WgPFdy9X105gPkzJmPStDk4fP01f3/N50lDwOubWL1wNiZPnYVdp+8hip+9oLqgQHL3uDj8JgohPjexbPZUzF6yBe8CI/MkAMryJWjYi5x8USIvWmjMSKVxm9sP59DmZTSWTcDvy7bg5dfQfP6fg/Mv4e+uYNmcaZi1aCPehypnOCj/SPYYG4pz+zdg+qQJmDqHxro3/hpxFleuNIqdrv2xGbOnTsKcpZvxPCBaM6aVk68nG+DarqgXULlQf0lPRsCLa1i7eDbGjZ+I5VsO4+P3GI1nkGWm4+uzi1jy+3Qs2nAQQdFk9xlk2wk0Rmksg6VxKjGK4rP1mD59JjaffEwJYBrFzMpr1Y+NVdBnX59fxvK5MzBn+Q58CIqldqB+Qddxz1RU6WUZ1Gcpfp03YwaW7ziPIG7mDsXtCeTns99M58LFGxRbkE1ze6DkrZYssqd4qrNsMYJDTn3s26srVLaZWLBuL76GxyJD9bzq13Fw/cv/+VWyx5kYT/HM5j+uIDxWvS8UARWG7yfJeduL4jUaU0/tWoUZM+fiwPX3iCcfkEFxewLVp/Ja7rmoH9FzcbmN+r/89ysIZQ6hrBfyL3ku5+w1/vs77Fi1ADPnrcajL9+RlpHB2xe310z29ZxtxFN+w9lLvl8kP8ddn8S9bFH7I3fvxIhPOLxlBR83zVu5Ey++RubxUWSbqXF4efUIFv8+A1NmLcSFRz4avrAouN9IIt8ZF1+QTSjhyh7y6SE2LZvD5wsrtp+EL/XL/C8PlDYR8fkRtq2cT2Mi5XfbKWeKoGvV9uuTZ2UiMvAVdq5djKlTpmPNnnMIiFQf7+XwWdMSlgZmGH34AxLUliwVBN8GUYE4sWsNppFf4OrgyOXHiKR8q1j29R+ECRc/FQrcmloZ2toW2PIiz5sDWRiGVTGEln4DPI/PP1Ax/jvICLkETwtD9Nv6ulAHx2Aw/ukUvjkng8H4mSl8c04Gg8H4T5AW8hQNnc1Qt+8ihMRzG37/78CEi5+MrydH8Gu73RoMxK1XnxH47Rv8Pj7DnO7VIRBKUff3G8j4obrJ+OlQpCEs6BsC/F7i15IGqNh1PZJYRMNgMAqECRcMxn8nTLhgMBj/vzw8OAuOrtVw7mVwvqW4/+0w4eIng9vj4sSaCfB2NOHXsovEYgh0dGBRshpmbOY2aGOzLf4rSb2DhvZGkIh0IDYrh7U3glgywmAwCkGGB1O9IRY5YOM7JlwwGP89ZGH3QE9IJe44+pEJFwwG4z9PfFgAPgVyJzL97zkgJlz8rMgzERn8FR8/fkRgiPrxR4z/VjJS4uD7+RNiijiyisFgMDjkqVHw+xqMdDbDjsH4ryItPgy+AeHF33eKwWAwGMWCCRcMBoPBYDAYDAaDwWAwflqYcMFgMBgMBoPBYDAYDAbjp4UJFwwGg8FgMBgMBoPBYDB+WphwwWAwGAwGg8FgMBgMBuOnhQkXDAaDwWAwGAwGg8FgMH5amHDBYDAYDAaDwWAwGAwG46eFCRcMBoPBYDAYDAaDwWAwflqYcMFgMBgMBoPBYDAYDAbjp4UJFwwGg8FgMBgMBoPBYDB+WphwwWAwGAwGg8FgMBgMBuOnhQkXDAaDwWAwGAwGg8FgMH5amHDBYDAYDAaDwWAwGAwG46eFCRcMBoPBYDAYDAaDwWAwflqYcMFgMBgMBoPBYDAYDAbjp4UJFwwGg8FgMBgMBoPBYDB+WphwwWAwGAwGg8FgMBgMBuOnhQkXDAaDwWAwGAwGg8FgMH5amHDBYDAYDAaDwWAwGAwG46eFCRcMBoPBYDAYDAaDwWAwflqYcPEPJCXqGRbPmoWzz8OhUKg+/IegyPDFxnkzselqIOT/sGf/XyY1MRaxiWn4y5o0KxwHl8zCskP3IfvJDeXD1V2YPnslPkdn/nXP//+IIiUY2+fNwNrjj5Ell6s+/e8k+e0JzP19MR4EZ/xP+puMlARExyZSH1F9UChZeHhwCX5ffhhhGbL/CTstCkVyILbNn4kNZ14g88eV87ciz0xDdFQMMrL+pnIo0nF880Is3nIVcT9Z28qy6Nmj45Ah+1+3uOKhSP+IdQvn4cDtr3+fPRRCRmqiylf8vG0hz0pHbHQ0YhOSyF//teVUZHzB5iXzseOaL9Iz/7vHteKSFv4aI1pUQ91eCxGckPqX+ob0pDjEJ6dTDqO8qyLRF9sWz8OWyx+QSn7oZ0KW4oMNSxbg4G0/pP1D2v7vhAkX/0DCXy6AuY4Wui67+5c7558decQBuAm1YNfn2E+fkDKKiTwcHSvYwL5cI/iE/zXihSLhAepKdaD360wK8H6uQVATBfYOqwQdHQMceZ38P5Ecy77fQlmpAI7tFyM182eu+x+hQMD6ppAIdTH9Uhz+w3nCfwA5JrWvBHMnb9z4GFb0WKJIwOy6+hDo18e9+HT65v82sm+XUU5PAufOa5CSnqn69P+H44v7wMLcBtOPPf57klV5JDp5GsLEpS8+J/yF4vG/jQKX5rWGtbkZpu999I9JFotCFrYdZYykqDPuFJJSs1Sf/ieQY2a3mrB28sSFV4HkC3+2gSoTZzdOQcWSNjA2NIChkSlcKjXDtosvyW7+mjFIHrkfFcz0UW7AH4hLzlB9+r/N8QU9YWxig21X3yP9L/Q9iriH6OjhCHPHtrj7PR5ZZE5ZfsdR3twQpfvuQXRiuurKn4OM4G3wtDBA/XHHEZv0z2j7vxMmXPwDYcIFEy7+p5AHo3t1F5Ss0hYfw/8aVT9buNCt978tXPg92IWKZd2x6Oizn6Y/ZAsXDky4+Cl4e3E1yrq5Y+Olt3kSDjlmdK0BO7fquPkxnAkXavxMwsXp5YNhZ+uM3088+ZuFiz4/nXBxcXEnONo5YM7Bp0y4IGRh21TCxcm/RbiI+XANNcp7Yuiq03nsXo65ferDwa0aLr359lMJF7EBD9G/URlIRVKUrtYEA4aPxZgRA9CoSkno6Zmh++q7SEz/98ehf5pwkfLpKOq4u6LPqiuISv1rZ4MqYh6hW1U3OHp0xf08wkWpvrv/JeFCkRyCcR0aoF63yYhOSFZ9+teQK1wcY8LFXwATLv5uFPJ/SxzIngZVGAr+/qr/KQLuPtmX/VC4+DfLXDwUkBd7GjhdK5P/646Pe3bVl4sjXBS/XMWBe85/reRc2/7wm9w1xWyr4l6npHjl5spYJHzd/+g+f6Z9c9uy+BTX1ug61c2LI1wo5LJ/oSy5/Dt2llunPxYuFPQ7hRXz7eXFMBRrY8SmG8gqYkr7v9cn/lwfKEi4KL6Nk+8q9m8Vbkvc8xa/xJrk9oniCBd/rm4KhPcBqv8uDLqg+G2oWS8PDkyBSKiDmQcfFmkjBaHIfrYfChd/pnwFkdt3/xW4PlKcZiiuHRZHuPgz/uNHv1vcOCAfdN9/rd7U/HoxhAuufv91lLZR3FIWt42U9y3mtXwfK9613HUFXsp9rvrPPwsfC/zrX8753eIIF/xvqf67MAorT9iTozA31EWzKbuQlPYvJGjFfU666N/2mxyyRCzp5g2pUIyOM/YgIVWzzFc2T0K72RcRR4m3BtzvF6egdE32ZT8ULujZ/5JnKgq+3oo/Dvw742BSwCNcuv0MGZn/hkD2J+y+OMKFvAifK4/zR/uKLrCr3h3hsQmqT/PD9e9it73qP4sjXPw7dZ0N73tU/10U/HhRbFvLteGfBSZc/B3IM/H+zglMH9kPLZo0RKOmrTF8xip8jiyuiifHuxv7MKRbWzRu3AS/9R6JQ7c/5QYmigx8vHUEU4f3ofs3QqMmLTFq9kb4JeR3SLL0GOxbNhFtmzdG83Y9sePyK4S9KEC4UMjgc/80Zo7qj1bcPanMQ6csh094ovLvhRDt9xxbt+zAs8DofB0m8esT7Ny+B2+j1d6C00BxY99y9OzQEg0bNETrzv2w4cQjpBfQMxSZSbh5cBX6dW6DBvUboHWnvlh98MafWCOWjiu7F6JjiyZo2qoTFu25iuSQfQULF7JkPDq2HgO7tkOjho3Rqd9YnHvyNafDpsQEYt+Orbj2zJ93DuqkRfph99atuPMxJOd6WXI4jm+ci67tWqBho+boO2Y+HvvHFMsBJIa8x7JJA9GySWM0a9MZM9cdR3iq5jNnRH3Ahjlj0LJpYzRp3g7jF+9GqIazViDw8SnsOv4QCYkh2DmjP1o0a4GJay4ipdD1vgokBj7C6t/HokOrZmjQqAl6DJmKiz6xubanIjXoPn4f2RtNGzdEyw49seoAJb7qF6WH4dCKKWjTrDEaN2+Lkb9vwNeYFA0bUcjS8ODkZgzq3g4N69dHq449sWTnBcSn5RcK5ElB2LOEs+MmaNKiHUbR/b5EJavup8D984dw4NR9JGfm/kJMwAtsmD8Bndo2R0Nq09/6jMaZx34FDDpZ+HBlGwaQnTVp1hqjF+5B0PfbqFOQcEH9JODRGUwe0gNNGjZAk5YdMGHhNgTEFm+mR2qED3atmEl2QfbfsBHadx+K/bd8ij3bIdr/IWYM7Y6mTZqg66DpeBIQhT1D8wsXWSnRuLRvNYb06oTGjRpQ3++GhTvOIVm19lORlY5rx/dh5sh2kAi0UK/rGKxbtx6bdp1DBPUv7jYZccE4tmUR+lKfaNyI2rljb6w7dpfauXj9T56ZgNPbF6Ib3weaot846gNBZAM/eFR14SIuKgBb545E62ZN0KrLYJx6+rWA9qMgKeIj1s4ehXYtGpPdNkWfUTNx9W0YZGrXKlKDcXLvHjwKjEPQ64sY0LEF2dxAXPFP4+stIyEEJ7cvQf9uHfjnbUF2vfrQzWIn6/LkQKybORwtqE+27TYMpx76wn9tk4KFi8x4XCM/2Ou3VvRbTdF18BTc+hBa4LNpQPZ368whnHngh8yMGBxfP4ueuQmat++BNUceICWPb0wMeYfNCyejC7VBgwaN0LnfGBy954cMNXtTpIXizN5duO8XhZD31zG4U0u0bN8PZ99F4PSh3ZjYryl0tLXQou9EpY3svoQoehjuDh/uncfuQ2cQk6z5Ri383SWM798ZTZo0Q8/Ri/A2KBgz6+QXLpLDPmDr4ilUPm48aIROfUfjj9u+GuUrEqqDs9sWoiv18caNm6Hv6Hl4GhDz43pUEfzmKqYO64nmjRuRH22LMXM30ZiXktOPsvF7cBwjeran32iMDj2H4QCNx5lFlLFQ4YICxsAn5zFtWC80pX7ZpGV7jJu3GX6RSQX0Czl8bh/CiF4dqR6boGOvYdh3/V3unhkUB3y+exwzRvVDK/KzXBwwYuY6fIzW3E8l0vcZdu7ci89h8bn1kpWAm3uXomdHsr8mLdBn5Czc+xheLD/06upeDOzcGk2atsLYxXsQmRiM3zwNChAushD06DgmDSZ/RfXbqlMfbD3zCJnFnMGmkKXiyv6V6NupNfnKhmjbdSDWko3Hp6vto0F18O7ifhy9/hpJ0YFYPak/WrZsi2mH3vAzLKK/PsbunfvgE6om6ioy8eX2HxjTtzNvM/3HzsRasusNGzZgx7Fr9L3cRIsbZzfPG4823LjDjbOLdiI4Xt2HKRDw+Cz2nnyAhLREPDmyEr0ptmnVsQ92Xv+onOGiyML1/UvRuXVz8qF9se/aW6oDzX5aGGlhz7Fy+nDe/zVt2REz1x9DfEZxZ/Ck4fTWefS7zdC8TVesOnwbKUGbChUuIj/fxryxFCc0bYJmrbpgyZ4rSMzQvCYz9it2LpqA9q2a8rY7Zs4W+EZQ3coz8OLiMSybMhj6EiHKNemJlavXYuOmXXgflk5+GPj48BL2HjqNCOr/yvpT4MHFIzh+4wNS02NxnsrasWVTtPqtLzafe42UAvYpkCUGYP/K6ehI8Ukjik+6DBiPk4/IF/5JQTWb75fmwsFQAuPaU/GJ4vN85k/9NZN7nc+TheAXl7F4ynC0a9mEbKc5BoxbgKffEqjfqC7JIQOX9yzh/VKz1p35ukz4tgvlCxAugt7dxtLpI/mYqxHds9eImbj1/juNO3kLk0ty1Fcc2L0T11/mf/a0iM84sGs37n0KyRm75KlROL9zMfpQX2pEcUe7roOw/cxjpOdpXw55VgquHliNfl3a0LUN6Vqu391DLNlL4SVSJxPvru3HqL6d+DilXfchOHDz/Q+X3ChkGbh19jAu0LiZlhaJ4xvm4Dey3Rbte9LYdg+JaWplVaTh6fmD2H/+ORLoGbhyFSpcUH/3u3+S/HwvNKN4tWmrDpi8ZCcCY7h9TJSXRH28j+1rF6KCgxmMXapi8bIV5A824sKzIFUfzqR4+jwWTBqKti2aks9sjsGTl+EV+ZW8zaSQp+DMtgXo0qYFmrfugtV/3EKc38ZChAsZ/B+d5OPJZtwY1KI9pizfi69xypikKBRpYbhw6CAe+oUjMcIf2xaMQ4eWzdCm8wDsvelT4GzVuKA3WDljJB8zNKJn6Dfmd9x8G6xpQ4oU3D19CGefhyLiy0PMHNINLVt3wp7rn36a/TmYcPGXo8CrbT1hqGuIkh6VUL9RI9Su6gkDQQmYVuyF19H5HYU6iqxUHJ/fDfo6Apg7lUGVqlVQxtkKAoExFlz8zjv8M4t7QSTSRynPyqhPjqVuNU/+ramZZ2f4RKaq7sQNMp8xuakzBZ0iOJbxRiVvNxjoW6DFgDYw0NIULnz29IOxngFcy1WkezZCnapeMKQE36R8N7yIKnyaV8CVNZBq66DCkJ2agZw8HZsH1oFAzxl/fFGKGllJ3zCtfUXoCMRwdPNCVXo2NwdTaJcQoO6gVYhRc0yyxEAs7lMLIm0BbFzLolr1anStGbS1RKjadzmCEooevGXkqDcMqAmxthCWJT1QqUI5mBkaoGG/9rDRLqEpXGTFYv2IphCI9OBdswHaUIBRyc0KYkMX/H76Ey+qxPndRWkzCZwaDkd6noHi+qZhlDiKMP3wE74+s2I/YVTzchDqWaFGg2Zo3aIR3Kz0YehcEyc/xhWZuMmiX6BzBUtILcugcYvWaNG4Lkpam2D+Kf+ctgp/exa1nI1hYuuGxi3boFmDGrAxEMO21kA8J0eqvCoLu3q7QmhNweXwJpBauKJCBS/U77gQMYU4n8B7u2EiFsLauQxq1WuABnVrwN5UCi2BDfY94DYzVd459NVJuBkKYFXSGy1aU7L/a3U4lqqFhylKO8lKCsOEZmWgZ2yD+s1ao3XzRvAq5YL+u3KXI8iTQrB+eEPoCeg+Tu6oWr06b+c61N7lO82Cb2xGjs0lfX+GTpXsIJIaomz5KqhcwQNWhmKYVB+PYD64yUDPqhawKN0WfrHKMiiiLqCKjSEsHd1Qo259NKhXA84mYugYlMLqO6Fqg40Cl9cOhb5AB0Y2rqhYsTzsjMTwbFAfbpTQawgX8mTc3jIaNvpCGFg4omKVaihf1hVSHS2YebXHlc9cwqS8tCCSo96gbklTmNq4oHqdX9Gwfm242xlCW2CKyfufF5kIceUMf3YANe11oS0xg0f5iijrYgUD++poVdsZWtr6ucKFIh5z27pCz8QaXlVqoiElSBXd7SDQlqD22MOIzZBDlhyNXo28YWVmCK0Sv0DPyBQ2NjawdWmBmzFc4hODAbXtoW/ugIrV61BS+Su8Xc3JzvXRfuF1JP0g8E6JeItxjakMxrbKPtCyMdzsTCA2LYdDjwJybKkgsoULy+od8VsVe1iRPVas4AlzqTa0Dctg071gNZFMgaCH+1HP2QBCXTOU9a6EapW9YUH9QWTsjMVn3+UkwVlfDqGkVA9tZ69GfXdrlPSqBK8y5bD8dhJksliMrO8EfTM7VKhWmxKlX1G+pCU9rx6a/05B5w8G7PiA+2jnbgQdkQFKe1WEdxlHGJiXxLDfPCHQkWoIF4r0cMzqUh1SfTNUqdsErSgI9nY2gcTcE2uv+hZpBwpZCn6rZInSvw5C9zolYWrlhMrkRx0pKNIWGWPolltIUfmnpDd/oIyZHiwdSqMG2Vuj+nXgRNcJDe2x6bZvTl/M8qf+rKuHFpMXoVk5a7h6Ur2ULYeZf7xEi+rlYGGijxJkIwbG5kobcW2LB7FK8WFet2rQtymHx365tu9zYRVKGoogobb3rlgRpcnGrbwaoWlpIXT0coWLpHfH4MGVz74U3x+48jlbGZLftKF6+KQphBZAWsxnjGxaFvrGVqjVkJLC5g1Rxt4IUuuq2HM/oMjvK2TpuL19IpyonHrmTvCuXAUVPUpDT6wDizKNccM3W6yV4d3RmXA0MkCpSnXRqnUr1K9RHhbleuF9EiVg/N3yU6BwQf7j3o4JcDCWkP9wQAXOf5RzhS75GVOPNjj/PiKnTbg44PSSvjCViGFOPqxylcrU360hEhpj1ik/frPJCysHQl/PCCVpzP61QQPUre4NY+o3pmU64GUQJ1Lwt8K19cMh1TXGsosvVQGqDHundoCu1AiV6jRCm1bNUc3LFY2HrqIEsohxlWzvzoZBsNUXQd/SBRXIVzpYGMGlYV942ohg7KwuXGTh4vpRMJVKUap8DQp8W6FuJTfoSY3R7vfjiEopOglKjfTBjHYe0BVJYF/Kg48VStmZQ5vG82YjNyI0WyiThWBSBSNY1e2HGZ0rwsbZHeW9PVFl1EkkUzzxcGsfGEkkWHBCJSKQ5T0/Oht2xnpw8aqB1q1bolIpG+hQPCQ1toBLnd6ITlbGUGFvzqFeKXOY2ZVGw+at0axhTRobpLCtOQCPAuJVY0gWdvYvBz3bFpg0tiOMLMmWKlC9mEmpP1pj4YHL/Djn6ED1RZ9bGUggNHHH1mfhPxTnPt/cgXLmuuT/PNC4eSsaZ6vCQl8Kl6aT8S40Mad9CyIrMRjLunpDTySGTalyqOhdBqaGZmg5rBMsJCLUziNcPD+2EKXMDOBQphKatmyFRrUrwFhXFzX6LEVQrEqokUVidAtvGJo5oF6TlmjZtAE8XMwxZed1pCZH4vfODeBgzcVzJSDWM4a1tTVsbJ2x/kYo0in5X9K3Ho2xZXH7XYjKzjPQr54znKv0xoAWFWFl50p2Xgm2pvoQ6Fpg4akXlCjlJl+xfnfQvpITJBRbu3lWQJXKXD3TeCgyxbA155CkntgWB0owN/StC6nEHBMvByI1R6AomNen5sPKxBgOpT1R99eGqFerIiwNRBBa1sK516E5fluWEo71A2tRTC6GlUs5VPAuC3MjEzTu1w42UhHKqgkXMdd/R2krU97Ga9erj19rVYaFHvUvl3o4/yWW7slflo8Yn6twtzFByWZjEZmQovpUyaU1w2BoYIJZRx7wm1RmUR4woX1VSMVSOJb2QBWq41I2RhAI9dFk3HZq39ScmJTrdzM7loeBRAr7kuWo31Xm+x0X3zYbuR5B8UUvBeNEjwOzusHCyBjlqtRFi5bNUdPbhfyPJYauuYg4ihELIys1Gh2rU/9p3B+/VXeFFdlOxcqVaGwzhEBqhmGbbyAuu42z/DCwvDl0S/fD6yjqC/xHBQgXsiRcWjeK+rsujGmsrFi5KsqXcSafS/lVhc64/I7ajXzivS3j4e7qAAnFgdpCCaysyHZtbPHbzNOIp7a6t2cyzIxN4OTuhTr1ydfWqEB9UQRd+0a4/j4sZ6zJSgzCsh6VYEg+x4bqr4JXWZgamaPZwPawpPHgV3XhQpGJk8uHwNpAl2J58g+VK1M86UJ9VgDbip1w93PufQsiK+AsKltZouWE2WhTrSQft1eo6A07Ewm0xVaYse8ektNV9aXIwtfbO/BraXOIKQcsQzEKF0eb6Uuga+mB1Vc/Ijnb2DI/oJuXFZy7LEXramXh4OYJ73LumLj5FhLzzjz6f4IJF38DQbe349JzPxoY0pBFSU9megpuLm4KsZYAI3a9KzJxjf50CC4GAhpAByA4Ognp6elISYjCsUUjsPF6GP/dp+f/wNk3IXT/dLp/Ft0/Fbsnt6EEyBDLrr3Puf/lVYNoQNZBrTE7yFGmIC01BQ/2TIUuJe6//FJCQ7gIu7sdFx5/QWIyV2bunil4uLIlJJRIDtjyWuPNpTqK1A/oaKUDHdOGeJiYO9UpKykCzcuZwaZiR4QncZ1HhtuzakKko42Go3Yjipwt92xJMcEY3tCNkmMTTL0WpBqMs3ByZlsIKUipNu4QIhKTkZ6RjuSE71j8mxv/TCM23cwpe0H43lkPM4k23JuPQRR9Py0tBV/u74EzJaW//PKLmnChwJdtPSiBlqLVqidITKOASCFHGjmg/tUtIDbxwuNgClCzIjGxpgN09D1wNlZ953QZZrR2hlDqiFv+3ACfjJ19KpKjdcDKx+G8QqmQZyEp+DJqWgphWHYkvqUXMhrRXV+saE3BqT1Wvo8jh6qAXJZJzx1Dwa/qO/JgjK5sDB3jajj/OZZX5eVZGXh7cSkspDpoN/UgPRfvxnnhQkdHAD1KbrkNjFLTUpGSmisI5CXC5x6WHn3O11cm2UBWZgbenVkFkbY26k/Ym6Pe/zG9OQWQUhx+EsE7VhldlxCfQL+oJOTNHtjpCdBt/ll+Qybu+VOTEpCY7USJq6sGQKwjRIUBGxEST3ZO7ZuSGIpNfTyp3XXQlb6r/L107O7jRkm3CMM23kFiShrS6Tkivj7F0NFrEco72/zCBVKeYf+Ra4hNSOanKnLPkuC3F2WMBHBtPA9R2W9zUh+gprUYhrY1cP9LBFKpzyZGPEcbTws+oZeqCRehtzbClBIbA68+eBZC9ZmegbSURNzfMQDGIm2UbzcTSQW8Jcomjex326FLCItLVJYpKxORFIxVsNVFyfpDEF/I1F0ORVoshjYoDR2pHVbc4nxLKpLjwrCQEkcdLerPJdSEC6Th4p6N8A2LJrvJ4PtzWlIwxtWxpEHZCee+pPJ9JzU5CY9OzoEBlX3wqnOIiY1DQmIKWTRHCo7sP4Dg2HikZWTyZU1N+IpOXiaUtFTFy9Dst2YFs29qawglRlhx9iUfPHHT4mPenUBpqRBWTWYgvojpo9nChVYJLZRtMQEB4XG87X67ORe29LlHi5k5IqeM6qVTVVuITEpi70Nf3uemkz8MebIT5YxEEOhXxtVvyrcXvHAhEUIo1EGdfksRS8+amkL2wT9wKk7s24vgGPot/nnJZhMD0LOSKcSGHngYVPQbkD2TmkEgEKL/Cgp0krj7JuL4oj4Qkr/7pYRETbiQ49XSBhScGGDorpd8n+DqJjn2C5p7kL8s3w5fowsPDrOFCx3qI6YV+lICFUO+LR3R74+jorEI2lJvnAvg2pd6RcBdrNpxGWGxifxbZK4Nw+5sgI1YCPvOm3JslRcuqF2EFLRV7ToHMdRnUlPIP1OBU5IScW3HOP5vk3dcU9pIEt2f/2ZBwkUqela3gcTYCQcffEZyCtlpQgTGtvKiMpdACd1c4SIj8AGWb7uIkJjc8oXf3wo7aiPbDmuofIXbCFePF6bWpsTWCDOPvuXfzsrJz0R9uYtKTpTYNB6OhJSCp+RyxPhfgKeVLiy9WuFtcCTZVzr15QTcX98fRhQ4GtSYjWAKsuUUTA+oUxrWFdogMJICZHrIzIxUxFGdZhXRAQoSLsLubqPgVQwDjx54FEh9M03pP57sHQoLXQG8Wk1BjCqhifM/hjLmUjjX6AXf0Gik8XFADAW647Dh6jd+bHh+6SjOvg5GQs6YnYr9szpDLDHE/LPPya6VrZRPuMh4hgYOenBsuwahiZxdy5GemsS3a1F9OvbTTbhZGcCoTAs8+86VPw0RVN8NS5rxyaqBU65wIftCSTcllS5tViAghvNLVG9pSVg2oA6k+lb444F/kUH5wZm/QUJJd4fZBxDJ2S8XK1BSNaa6JUQ0Vo/Y8wGpnO9XCRfcUiZT13p49CWUxjiyOfIP3N3zCRdpr9DRxRB6XkPwjtqTGytTI+6ihaMBrJrNh39EPNUBfVP+HeNqWdP4Xw2n3obxfUFG4+ybC8tgayRB+6l7Ve2qFC6kIiFMSjfATf9wJJMP8n24Fy7muhCLJRBb1cbF19+oL6Qg+NIs2OuLYdRgKUIogSm0BmT+6Mm9wLBqhNufI/m2lGWm48rm0dCTSjBy6xXyU4X3j6dHya9Tkly++zwER3H+MwVvzq+mpFiCEhT71RqrJlxk+aCpmxkcq/bB2yCKKahdsjLSsHdqR+gZWFNM+Y5//oxHnICnj16bXyMhjfqbjBvX46mu6TmoztJTk+F7ax/MDKRoPHYjQiOikZCQlHOiS2HChUgognWNIXj0leuHaQi4uhY2BhIY1JqIb9knUchCMbO+HSWWhpiw6z5iyHenp5P9+T1A/TLUTpYVcCskmt/roLgoUiLRu447fdcL94Kj8r05z0vAy8s4/siXHzcyuP5GdXR7zwSYUHv2X8YJZcp+/v7KKlgb6aJsGyp/eAxf9x9vbYeruQGNaSVQRk24SH39B45eeYboOKon8oHcPb8eHQ47fSmqT7qM2JRC2jgjFJNqOkNq5I3j3yhWzCm7DFPaecKYktGbHyg+y0rE9t6VoC/SQ4u55xFEvjaN6i0p/htGNC0Dia4JVpx7liMQHZjZCfq6uug4ex9Co+Nz+t242lT3QilG7nxNybDSrxRE7OOlKG2ujwbDt+E73+/JtySEY2SL8jB2qorHvqGqts9PtnAhEgpgWrEf7nyivkz2EP3uKGrYGEKoWx6nPkQrxZxiChfBl5fBwVQPRhUH4b5vON0vnR+bL63tD0sDMWr1XkTtmcr3rYTvb9Ha2xk2VTrB79t3st0EivHIj1Bxfe6fxckXAbzdZfLtlIqza4bCUF8PY7dfRpKq7R8fngNTA12+3wWEUdtTzvXq3CryGXp8v6unJlykvl4ND/Kn9pV74PnnEN7201KScPj3HjDWlcJ7CDebreAlLxy8cGFpxMcY3m3Gw/97JMUCafB/tB/l7IxhVbkT34YcaRGf0KyiE/RsKuD4qwAaG7k4mvzR/fWoYG0AoUF1XP8cpaxbXriwhEQsQsnm4/CJ7ptKfZubMfMnutffChMu/kNEfNwJO7EW2s46U0TAI8elCRUg0NLDrLPfVIFg8fh0cgEFhmIM2H2fDxK4e01sWRIiI0dc/RiTa3CKNNxZ9xv0tH+8OWdswH44UvLfdNLxIt4CyvFwUX2I6bdH7vPJcf4xbzbCnhLpFlNO8QOXPPoJahvpQFyyI94maHaAqPsrYUWdz6T5asTTtTJyYO1p0DZyrQOfKM0p+GGvT8DWQAi31pNVCXpBKHB4bFWqDwmWXeCmlqs+piDD9/R4WAhyl4ooUr+jfwVr6Lu3RkieqVUXV/eHDjnrTde4ZTpyBBwYAANKtmvPe5LztkQedhYVjAWwabEesdTr00LeoLKtAdxajFe93cpGgXWDqkEgtsCVDwmFBIhy3J/TEAKRNWbeDS1wEI64uQLGAjGaLr6lEfhlxfihYWlzONYbSAk/9xwq4UJLiKHrbhY6WPyIrKA7sBfpoGSHhTmB8N7xv0JbWw+77wUXaKNBLzfBmtq+w4yjOWKHJlkY9Cs5UStP3POP1aiLuIDb5MylcKo7gA/M5CFXUF5fAP2KIxGYWpjjLEC4KJBUdCpvBEv3bviayF2nQOD2DtDVEaHNimdIV4tcwp/vRUmxjoZwsXlUY175X3f9o0a/yUoMwW8VaWC3qw4f7u2U6vPioEiJQtfqjrCgBCoysfBEKzHsAbytJHBvPEpjva0i+RsmNnKg9lAXLgrm/NzmEGmLsO0O92ZX+Vlx97jIZnnfapAa2uKGT1zhvyX7hg5lDWFabiD8E9TbIxX7ujlAwAUg3yl5LeT72cKFccU+eB+dG9xnpUahpZc5bCq0xfc45edxz5fAlpK+WgO2IEFDNJLjzJymkOjoYMLOx/RsFIzzwoUAIrsmuB1Q9BvLbDYNrw2R1BjnXkcXfj0lOd28DCE2ro4n33OXGSjSY7CndxkKLHJnXCji36KFpRgm1YYghBKfnFuSf9kxuhnEpiVxyafwJSPZwoWxQw3cUpvlwD3v+Zm/8s87cc8rPrEtkMz3+M1OApH3SASrNkzLFi5ENg1w1Tf3TX02Re1xkVe4kAduQynyzx4dVyFaTYhLDXuG9qWkGjMuCiTTB13spRB5DcU31QyugpBHU8JiIYF5gxkI58Rm1ef8mvWOlSC1q4a3MUmFfF+Oa7PqQpd8+/i9b1Rv4lXIojCREiSBjhmOvojiBXhu41+Lcs3wMbr4fbsg4WLHhJYQ65pi5YU3GmNDVnI4utegJMSuCl6Fcf2KyjetOpXPAFOOftbwSz/C99xy6En00XvLdUo2lf0hn3CRfhu1rXTh0HQugrlp+/xVP+bpobEwJjvpv+ysxpvwJN8zqGGvmzvjQpGKQwOoDYzL4eBXTuBRXUh8Pr8S+lJ99N90ReMeGsi+4jdPU+hb1cOjb5r2mPhpH9zNJfBoPg1h3IwXlXAhFFlgypE3SFVvSyKvcJH5YR9KGuih3pzbSMrZcDET67q4QmLQAHcik3nhNvIWJZ96+mi66HrO8jqOrOjPaFrWFi71ByORn5mhEi7E5lh+PntWB1lYQgA6eDtAbFUeZ3zIjrKLJQ9DzwomVDct8JxbYqH6WBMFvp8YC0s9Y3TZ/UVj+WNawE24UVJcrstiJKYUltTIsXZAVUgoWd1xwzdHOOCW1fgcHkz+UoTaOcKFAl93dIA52eX4E1+RqvZbKW8OwNVQH9XGHuXftKZfHwMbqrtOFDcWtJyTo6g9LgoTLkzsKuPaB4p3shs66zvGVjGBxKQhbnHiEn0UeW8rxX16cOu6Wtnuyiup+Jm4s6QrDKV6aLnuNbVpwTVaEFnx39GqkhN0nWrBN7x4y3jzEv7yLBwoWW46brOqPeTYO7Yu9MS6WHX2A//iSkkmvpyeACdDicaMiwKh/lnPwRBObVYiVCUE5keBgIMDYK2vi0Zzb/HLODi4eLSmvSFKt19LfTuN32eioqM57Gr2Q2Ccpj/0ObMMZlSnVYdto/JQ2anfdaloBWO7BnjgF60h5MR+2AtPa314t5qGkMJiHHkc1rdzhoFFdZz2i1UTUxR4vm0ETIxsMO3Sh3zLGbPJFi4sStbFzU/qsw1kODmzKfVjEabsfoRkrt8WR7iQZ2LFgIYwMHXB9nvkR9V8Q0bUR4olHKBfsjE+RJLPpc+Ku8dFNkF3dsPC2BDt5h1CvKrt1wysBQPytTuv+eT+Htnou8ND4UhtnzPjQh6PjW1dYKDniKW3NGf7yONeonM5M4hN6uISjatqXVKDbOHCpEIfPPSPyfExioxoTG9VEbpG7jgcEIV0+v6XS7PhZKqHNhN3Iy4pTXkhjwy7JzXnRc4Fhx7QWEV2xAsXFhBLHLHn9mekqdXbzwITLv4WFEhPjkOQ7zuc/mM3Nqxdg/kz+sJEpIWWU46RIRZiifIoTK4khJawMq5ovNXPi/L+wb5vcObwbqyn+88e3JZfRtFrS7YYkYj27iIKcFvjS6LmIFPw5pzcPeMR5Pce547upTKvxaLfB8KMytxwzKEipzUmhl6Gu4kA3q1nIVEp2eHUkNLQETlh9wflIBP7aA/E2trwGLBDzSGpyHyFlpYCaBu3w1saeFJinqO8hQDuDScgLo+Tk0f5oKadEaTlOkBWaKKVgml1dKkevXAtTHNKat7NOdODX6IMOWSzMvWwYsVKrFq1KuffuF5NoEWJ/9TDj5T1lPkOzRzEkFp3wOdE7r5yPFvcHEKhBWY/UiYsIW9O0wCrA/c6nbFipeb9+jTzhLZAiiMPggodJDM/0wDBTfUSmGL0muMIjlC+AVGiwI3lvaCjrYvmo2Zg5crce69aNgfVbI2gX64NuFk+5NaUwoWwFE75cW9ElHf4EYrMFER898e9i0exZeM6rJpHAZRAC45t5uQIF2/PLYWhiJJ62/JYuP8WvkcnaAxyqREf0aisBbTFJmgzfgPeBIRrBESQf0VdByHsvPshOEXTNhWJ39He2xZi1wZITs1AxLVVfDJWdeLZPEKQOgULF7LMVESGBOLBlVPYtmk9Vq9agcpOenRdB/jFc9dl4o/uNtAROGDjJ81EOv/mnHKMaOQEPUt3PP6aZz26IgVrulaFDufov+dP/NThpqhHhwfj+a2z2LllI1YvX4BqruYwocQoPKGwQJQCtw9rYCvWQdMJh5GmUQ+FbM6pkCEhJgKfXt7DgZ1bsGbNagxtWx4CsudNN77nCFlFCRcKGvjjosLw7tE17N2+GWtWr0LHWiUh0rfC1XeFJ/LyiP0oI9GBcaUeWLpcsw+Mb+5MZTXFqkdJhb7hyhYu8p4qoshIQs86zrAo2wjfojm/osDrRXX5mTtjj6gvH1Hy6fYKmFEbtp26j19Xnz3jovTgI8q3tXngZgbFR4fj/ZMb2E/Pu5bqrGt9NwjERjj9IqLwdk06i0rc8qHaixCpNquIa5u8m3Mmvz1F9S2ETdWOWLZ8hUbdDGlJ7Si2wsan/oUKjdnChX35rghUW07F8fH6bPLXOug853iO2CbPSkMU2duj62ewbSP1gZWzUM1cCGGZQfiqIVyIULLPTgoqNfsjx58RLhIOdoG+UIhumz5S4KZWukI255RnKfvD45tnsZ0v32zUsBBB6NYPfimaz6dOwv0tVI8iODUYSPWobmPL0adOSQj0SuFYqKZfykERgxm1DCAQeeNMcGq+a07ObgmxQIBVJ9+QL03DialtYSAWwMi9BfZefY6o+Px7YOQlv3Ahx7jmpaFn7oo7n/LsGUSJ/sY+dSCSOmKbbwTVcRRmUfmE4oo4G5JSaD/h7CsjJR7f/d7i/JF92LBuLeYM6wCxUIJu63KFgfxLRTIw4zcviARCVOs4Hrfff1PO/OGvLpwz0xrwmxiuuRSoKYzl2ZxTnh6Efh52EFqUxZwlS9XaZhUWjutJ9xCh4dTDyiC5AOTBu+FhKIZli7WIzDO1PDM1Es08zWHj1QpfIyiBUgkXEoc2eBGfOxMom7zChSzwFMob68Jr2DHEqZI9bjblpHoWkFi1xzNKyrh5ozdX9IWu2BDNRk7FMvW4gBtnHUxh4NEOCUncFH2VcCEpjWMfEnKSB2SEYUT1UtBza4awxOzlmxzpGNPQFlKDGngYREl5QZWuyMDx0bXo983Q+fdFWK5Wf6sWTYKbrggmtUYiPil3WbAmyRhe24LsqQruBmr+Rr7NOcn2trejZxdZo/fvizV/a8FwuOiKYdFqGeK5xDbjPVp5WNF9TdB92ja8DwzPJ6r9K8KFtXsrvAtRF5IzsK69NSSSKjj3neqUPr+7ZTT0yYaH7L+Xb++LjOfr4GKkC9MO2/PsH1A0WfHBaFnJEbrOxRcustISERb4CVdP/YHNG9Zi4eQhMNUTo8HI9Ujgk9cUTGlkQ0lfeVzyJZ+vds/CNufMTE9GeLA/rp+jmGsD+cAVE+BmJoV9k0W8+FBosSgebVXGDBaluuBtGFd/MjyleNRY3xazb4ZRMgwEPNoPB3N9NBq1AQlcG6qR9fUKypkawKDWGETHU+wQtJsSfz3YtV6DkDy/m5EYihYVbOFQoS18QwuOcRRJr9DG2gRi2+qYvXBxrh3Rv3mDW0Bfoo+Om57ys3UKIlu4KFm9F/zCEzR+482FWbAhu+0x7wgSuZl0xRAu5JlJ6FPfneK9Wnj1Nc+MGnkclrQpDz0Dd+wPiuaT+6KFC4oWUxMQGuCDyycPYvP6dZg/thcl/FK0mrVf2T+o34341RZ6htX5lwrqbZ93c05F4lu0tjWFpFQHvI+k+lRdpyQT2/qWg77YGGuuf+fbsSCUwoUxSnbfhAhqr1yycGFaUxjpWWDc9RAkUaxzZVZDmFBZfz/2CckZmr/25OhsmFKf7b38mHKWokq40C03Bu8jlHX7s8GEi7+BON9LaFPdjYIdIQytnFC2nAfKuDlQ0vBL0cKF7Cv6OwugZdgIT4pQjoOfHEGj8q78WigjS0eU8/CAu5MVSpQQ5goXskA0dhTA1KUvvuUx1IKEi8SA65SUlIUBBfaGVo4oQ2Uu6+4EIZX5R8KFPD0OA2q7QNexBj5G0cAf9Ri1jLVh1Xgm4lSB7rer6yDS0kGdSSfy72YrC0AvNxFKCBvgabIciWHn4GaojQptFyIxbzKV6IfWzqbQKdmicOFCHo6h3nQ/UX08TtYUgPIKF4n+j1CSBgmRvjk8PD3hmeefV/lqOPiI25CT+7YCG4bW5texH3wYBHlyMPqUt4axZwdEqoLEwKe7YCHV5tfKF3Q/7yqN8cCPm47KX14Acny+dxhdajlT3WvByNoVbUaswTd6Du73T87qCG2qRyvX0vnuzf1r0m+Oql7+vHCRHvEBI1tUhaUhVx9mKF2mHDzKuFK7ldAQLrhNU19e3IrGnrbQ0taBpWNZDFpwEJk5M2DkCP90F5O61IFQuwR0TaxRt8NIvKPBlS9Gxn1UMhPCueZkROQJQhRp4ehf1QkC+1q8cOF/ah4lpiI0W3Sbf2teMAUIF4pYzO/fFNYmymcp6VaW6scDxpTImtNgwQsXiiSsa2YGbUEZHKHvqVtTfuEiA72rm8PQriJeh+R5S6lIx77hdSkht8Xar3GFJhry9HisHtUBThaGlKAawrl0GXiUKwMTXSGMyzYtUrgIuT8LFkJttJt3OY+AU5BwocDDfTPh7UJBplgCW+fS8PDwhJMNt5+FoJjChQInlg+Hm50phCI9OLi68fewMdXl924pSrjIercSDhIdiEwcyDflt9HyNX/DtWDNDQTVKUq46F3XBeZlsoULGS6NcodQRw9zryfmJg0qAh7vhpW+EE3HbiuGcKHA+bVj4O5gRgmjLuxVz2tHgZy20LBI4UIevBdluBki7XZSkKBuz/mFi8jHB6EnFEBiYkv398hXNxVqtcCNr5E5fjkvRQkX/o9XwVpXgLZTDvA2q0gOwOK+DWFPbSbRM0Ep6s+eHm4wJv+n87cIF/S8axtDSgnx8KORZKeqizgKEC4UKd+wbEATOJjpQUxJSSl3ZflMuPL9QLgIvrSCH//0LJz4dspbj5Xrd8PbAhJZHhpnB7rrQWDwK+5wm6CpPs7m8urulFxrY+kfT/m+Jqdk+ezWWShnocsLz47lamDh0ac5/rAg8gsXGRhYx5b8uSeeBKoJjByUqB4a2xgikS2WfwgnWw3EsLIGEBjVL7B82Xx/dgLNq7rzY7aRhQMfZ7g72/AvMIoWLoCEUB+sn9AZ1oZiSkSN4VGzDU48Ccwn/uUix/7hlSERiLHjvmq6djZ5hYtEX7R1s4JAbEBxBLVpnrbx9K6IWYce5MwIyUvm86VwpGTQqe8RxOfZt0CWGoeOVexhWbYBfMOSoMj6c8IF5AlY19MLukYOGDp/K27cuobFI9vBVKKHpnPPI4EXU+Q49XtnSLk9CmicLWgcb9J/Lo1PnL8uRLjIDMPIf1m4SMG2XlXIb4hhR30i/+97od3EbfwSjQKRh6B3RWMIdZvjGbfhpOpjjnzChTwa82uZ0RgrgSM33uf9La8K6LbkQs5a+eA31zC6Qw1KqnSgb2qH2u3H4eW33DHvrxIuNvxGdSStjLPBSuHi/NL+/NGkM84/pURO025kXw/C24R8XKOViC1ian1eFMkR6FHbDSILT9wKitJINAsi9usD9GhcWbkvgIkN3Ki+ypaiGJli6frZwgXFnsMoThBJGuBuHuG0IOFCEf8GYzrU5vdk0jOx4mMuT49S0Cf/Y/cj4YJadvXQhjCgshy69wXp8f7oXcEBlpW6wj9WGWv53FwLW6qbDtN3KxN+NeSR91HX0hDiCoMQFZfE97tSdG3JfocQlUcAykqOwm/VnWHj1RhfvuffrJ1DHnEfta2MoCM1gXvZ/P3eq1IdrL7pR+2Xt5cqKUq4+HRnBRxoHPttxj5lPRdDuJBRXtK5hhNsPZrgfVCeGaKKZOzoUxX6Uhds8ItGGv2tKOEi4sNVdKxXASbcUj+K7bnnK+NqDwHFvznChTwUfapaQs+oJR6HUJ9QfZcjr3AhC3uM6lYm0KvUn1++o1mdcpwYX4v3W0vOf6MxuYDKJgoXLuR4sLQDTPVNMfBkEL956cHhFel+hlhx9TvFPqrLVLw5vwKmRnroRDE8P3OECRf/QDJDMLWGMbSkjvj9j4c5A3yU7x9w1NVCqyKFi1CM8RRSwl0FV+MKmXGhSMOoxpTU6ttj6bFnyNY3Ai4spyRRbcaFIgZtShdzxkVWGGbVMoa2rj2/oUv25pPxQSfhqqeNRj8QLqjguLGoC3QEJph0JQDvTyzkp0eP2vNAeX8i4t52iLW04TlwZ/7gKP0lWlgJoGPTA5+4GRdRd+FpKkCZRhPzzbiQRfmglp0RDCt0K1y4UCRiUk2pasaFKpFVkVe4SA16AXdLPdjXH54vKC+ID2eW0LMJ0GnpGYS/vwhHYzGajt5G91J+N/j1MVjr66De4HU5n/1LKGR4dXUfutf3oHaltpp3kr/flSU9oK1tiEmXueUrRbXJnxUuFDi5sDMvinSaugORqUqbkYc+hBsFKerCRTaKzHjcOboWzbxtKbkzx6RrEZqDPz1D6OsrGNe1HnR1dODeazMSuEFL9h41bYSw9x6Qb8aFnJ9xYUMBX1N+Dfj3S0shofquNulcnoRdnbzChQzv1raEnkCCukPXI4iCf2WxMtCjqpnajIt07O9srZpxwa315i/iyS9cyDD4Vzt+xsWTvDMu5MlYzc240HPl3/IWVsqAyzNgQQl9ld9mUGChFD8UadHoV9sVpj+YcRH+egVsxNpoVowZFxkBJ1HBWAj9Uq1x/hW3nEdZ2CvL2vMiUHGEizSfrShtIIR11T544BeV87zrhtSGxMC66BkXwTtRmurOuu0mxBeQCP+I4gsXcjyaVRViSpTHHf2ez698urkcZlTfnWYfoWRQXqRwkf5pN8oaimDm3R13PnMihfJeO8Y1pCC06BkXivjTqKAngGExZlwkvD4BQ0q43bquoMRSMykrDkXOuLg0DWbUV7svOMsLNVeX94NYpIdGI9bAP0bVB7K+oFdJKURlB/8twkXM3o7QK+aMi5trh0IikqLBkBX4wp08xV0u80O/UroQuRctXMTc2Uj1KIT3iMP8Hip/CnkYJlSisojK4+z3/DMuTsxuwdvU+nMf6Xlz/8jt4n5s7VRUctCnsbI0dnNLSTSrI4f8woUMIxu7QN/CFXc/5w2iU7GBm3Gh74qDX+mesjBMrmwAgaQSzoUWMuOC4oBJrctQAmyL+Qe505SUBfl2eQ0MKAn/kXChRIHYgBdYPr4brPREsKnZH6EUuBZc5wqcmFyPbFn04xkXqd/Qu5wtRI4N8ZnbN0N1WXGRfdkMN0rkLFuto3Eo74yLMDT3sIBDpY4I4Jbu/MkZF1lRT9HZwxLuVarCzdkOJsYmsHFyR7uhCymBoPvxhZXj6tLekErMMOHC+x9Mlf4bhAu65vCImnRPOyz7EJ8T4xUbRTyG1OCS5+LMuEjChhYWkIhLYsfneGQUp7HkmfB9fBajf6OxgBLsBqM3I1F1jOjfJVzcWDeMkkxjDDtwP5+PSn+2Fq70TLa9OEEgT1ZWFLIkLOtWk3yQGUaf/4KUIts5A5uH1uBn4QxbcRKxKt8Z/fYSnC0Mc2dcUOw5sb4VxGJuxkWsRjyUT7iQJWBHz/LQ17NE78XHEErjP395xlM0cjWGY9MfCRc0fh9fAFMDQ3RZfga+j47B1coIrSZuU83+APzu74C9mR4aj84/4yLz62V4mBnArOFURMeTn6F+52Gqq5xxQf1Y/XczEoPRorwNnKp2hn94wUudFfHP0dzGCOIyFMdTMv5nzbYo4eL16WmwNpSg7+KTSlsrzoyLjET0qFcKFm618TrvjAtZHBa3LQ89Y0+c+B7D232hwoUiA0t60zinR/5g4/mctg99eBBWxlTf2cIF9bthdYs54yL2FRrbmEBSuiM+ROWdcZGBbX08yI9bYcu9UPI/qo/zULhwkYkzk5vAWM8a0++HIpns+szkOjDWlWDO8c/5Zlw8PjwbJtRnB605rTwOmAkX/zzkwZdRVqQFw4ZzkKLW84olXJDBHehlT8mjFPOvRBboHJD1GnUoybcsPwahakpcPuGCAqXhv9pAbOSEe77qip4Czze1h67aHhfykBsox5X51+lIVitz8YULKtb3k/CSaMOoySosGVoXYkM7XP8Un/O7Wd+uopRQC0L3XgjMkzQk3F8JEx1t2PXYjzT6ncykUDR0M4SxW30EUYKnTtibM7AxEKBCt/lFCANy7OzrDu0SQqy7HqbmABUIOT8epup7XCT5o21JGuSdGiOoGEmWLOYZauvpQL/SEJzb2B1SHTFWXQ3J+Y2kwKdws5TCseHwIt/IFZeUb8/gYaOPsq0n8UlD0KnZEGsLUGPG1fwCkAZ/VriQYXZrJ2jpmOOqb+4mbUUJF0oUSPPfhdIiHVj2OZknqVYizwjF6IoS6Ji2wgt+N/l0dKlkDj0bT7z8RrapVra4wAcoZymBW7MxSKOEJPPzMThS0iStNgkRhbZPHuFCEY35NU2go18RF+PVZ1LkFS4U8Flajz+5pvOWzxr7uMS9PgBHem71PS4W964OHV0L7H6oeaSqLDEU7SraQd/1V3zPM+DnIse5MdwJE0ZYeS/3TUxxhYu44GsoYyqER7NJmlMt5VGY2sBGY48Lv/2jIBVI0GHbF43EqyDh4t3lJTCk5xy2/ppaUqrA2xWUcAv0MPQ0t1RJ9TFRHOECWR/Q2EEMQ6dO+BxfePJZGMUXLoDIS6NgQvZRd8R+GqDV7UOBC3Oa0PPqYPaR93xfKVy4UODDug70vLrod1zzbXJxhAvIfNHGVUq+th5eRKolfhTEHuxRUmOPC3nUE1TRE0Li0QtB6nszFJNs4cLEtS7eUrCfa4ZynBpXlZ5XgNnHqN2pLjhRQWxeGnc+hefa678gXDw8OJUXLmbsv69mI0ryLhXJ+rAI9hIBvHps4Y+tzIZbt9vOWXOPi6V9akFi6kK2pLanRzGFC1nIZZTndnWvPBbfVc9RfLJweJA7xAIRph/z10zCFQmUeFhCILDHuY8FJZZy+F6eDEuJCH3W3s9dx5yHgva4WDmwLkQU/G697aPhu2XJEehSw5n8R234RXJtmokjA0tT+XQx82wQ+d0Cni7rHRo768HScxj8KUjPvuLPCRdKFLJEShRdacwuj7PR2Zvz5ufe9gH8kplhay9rHG0oD72A6jbqe1wkYl07N4glLtjyJbHQNdqFkv4CjZ30YWDZCC/UjzElkgL2wt1EgkqdliCae4P8J4WLTwcnwYhsbvcLX8QnxCM2NhYJScmaNkAEnZ4DI6kUNaZdUtsLoyD+DuGC2zC8N/2+Lpqs9UFSnkTjx8iwuIsHxEIpDtxTbuSqRIHgEwNgo6e+x4UcbxfWgaFEFwP3+hb6drcgsuJeoxkl7cZVByAyUXmyRfjTY7xw0WTiDrr/XydcfD2/FCZ6UpTtvx1xGjMHZLizpBMMpYbodfirxn4gP0aBgKMTYa4vhoT84btIbplQIcj80cfbDGKzdngSnpTTR/IJF/SXTQMqQFcowcbLfmrirQKh58fyR69m73GhiP+I1qWsYejVieJctf0n/oRwIYt5hMbWRjCqMhy7FnbiTwZcc+Ez9X3lk8T43ICbrQns6w9FVHwy/1k23B4Xpgb6aDDtD8RzdZrxHM1KmcDYtimeBWWfmqMkzncPPCz1UbXLEopTChEj5ZGYXccSUj0PHPoUQzmD6vNiki1cWJVtjDeBUWr2IMeR8XXJRkWYc5g7JpduXJw9LmTpmNG5BnTNSuLIC+4kptwCZUZ9QhMvBxh7tEVQjDJPkcd/RYeKrrCp1g1h6sKF7DM6UyJvYN8dL8ModlN9nE+4oL8s6lYB+rqGOHBbs+0Djg2Gg5HaHheyMEyvbgVdsTM2UGyhHtIpkl6iUymyNevWuBdCcYPq87zk7HFRfSw+RCbl2K4iPQJjG3lD19wbV75TPEOfvTs4HDb0+x1ncLanHmcq+I3FDaRirDml3EidCRf/QBTxT9DQSBsC5zZ4HqF0sInBLzGpbTl+2UWRS0WI7/eWwUqqjVK/DuLPCOYMK46S4Zm9GmDizjcUZISidWkpDO0a4GW4crDICH+FkS29UUJLbakIcWR2J0poxGg1aTsi0rjOHo/Ta8fAipLMEiVyTxVRJLxEE2NtCJ1akFNWBkFJIW8xraMnRMVYKsKjSMHyjq7QFtnDhhJP63q/I0L9VYEiHju6u0GgJUX7aXsRwe+WLEeM3wP0qUvBvZEzdj4PVwbi8nSsH1QX2gIDtJ22E9948UKBaL/HGNuqLHS0DbDg1Luc5yyItydnwVCojYodpiiXWciS8fDoCpThpn7Ts2cLF9wgeXtBK+hSclF31DYExeV26uSoAFw7fR5RqepdNwOXx3hBKDRHSRd9iEr3xWf15SgZMVhEba0jtcbILdcQq5q5wBH17R1OnXuqIWhpoEjGuc3rceGJL9WD8pqgRwf5WR21+q/gZ5hwUwu7lTGAtrEnNlzOrQOFLBMBb+7iweuvqu/+WeFCjjV9K/D2svma6ujVzCjsntGNbEALDq2zhYssnN+7EQ+/qDZvUmTB59gEWFASUHvJGz75D76/D4cuP0eSynEnfruJJnaUZJQfiW/kGLlPD0xtBx1KrpuMXA1f1QascUEvaaApD5GOPibufaYM7mWRWNTMjtrciALmi0ihH+WWqjw+tR716wzGW/L4CmoTTeEiBXs729OzW2P2dQrc6Fm40wFOLe0Ha121pSL0m7LgY/A0FcHErSXu+EVDIc9AwKPjaFXBAQJtLQ3h4s2R2dAXCODcYCjufuam81MYGh+MfXO7w1iiQ8+yPd+b/FwUeLysKSQ6QgzZ+FiZjGQl4uaOKXA0Ev9wqUgWJTfdqjnwmzeuvvieBjoFksPeYnaPWpSscidX5AoX0VfnwlgogHufvYji+r1CBt97+9CwtHG+pSL+93fBVFeAekPWIC0rC8mxcfzxv2GH+8GAnrXOpItI4AIF6pNvzq9BJXuDHy4V4Wxp7ZC6EIr1MGLVKcTm+AE54oI/4Mr9Dzm/XxB/RrjISPRBQzdT6Ft7Yeult0jl7IPa8MmJ5fA0E8GgXE+8VokJRc24iDg5AkZCIaqMPos4rrx0j/eXN6K6kyF0REUvFeGea/XA6hAIRRi28gx/VKwsIRjbpneDnkhIvlbtVBGyzbNjK0NKvq3j7EOI5AJY5U0QH/oZN6/dLTJRyRYutLWofZsNx80PXNIvx4erG8mOhRA7tsFj8uFc/904tBHfVquufFAlyuk4sWwwzETaf2qpyLtzyykJEqD5lF1Ub1lIjInLGQ/yCheQBaGNpzn0LT2w954f/a4M8V8fYkSLChAJaNxRO1Vk+5gWVD5zLDn3RiWwpePMqmGwEOv8cKkIJwrt6F+e6tEIA5efRkL27BWqi5hv73H7HvmPApL0bEIeboAz+VXnal1w61Mk+TIFslIicXhBD5iJJfAetB9RlLCmJ0Zgx+5D+BCiegNI48h5Gi8MRHqYdtw3X8KbTUHCxfsTC2DM7ctRbyDfblybpCd8x6GFvWGhK0SDIRuRoFrQHPZoDZzIL7jW6YvHAdzUbAUSgl5g7oBmGL/tKdIzQvCbtwkMbeviYYByBkdG5Bv+2EOBjrhI4SLz0yns/OMKolWbHafH+2FINUoUnRriDSUlhdVa6KvjcDLThW3ljuQrY6nOZPB7eBStPK3oN7XUThVRIOr2QpSk8jv+OhKPv3JJiLKeMpKj8OTGeQRRoK36qABkWD24LsRiKXrO2kXJm7L/hvncxqDadhDpO2PF9UClD/2TwkX0w61wM9GDU6XG6D90JMZPmoKZs+di5YYduPPue454rUh4i16UGIlMPLH23Av+u/znMhof3t7Do7dfc5Zk/vXCBXmUmIdo6W4KsWU17L/zKUdwkmem4vPTG3jzNaxIH3pz62joU6JXp98C+MdSm8iScGPvPH4vCO5kC/VTReQRV1DT2RhWHq1x4XXuXkHy9AS8fXgLX7g1+NTWH44sxcmbr5CiGg+jPpyDh6keSraejthk5RvfRJ/LsDHWh1PjcQii9shIiuH9GXfHf0e4kMdRe3hTe1DbT999HUnczDYakz7fOYA6pSxh7t4EryJUey9kJWHHlN6oXqMxtj6PKHpzW+pHs3+rAIlQB/V7TScbCFbOOJZnIsTnAZaM7YJfB+1CRGIoxte3hUTijiPPg/h+nxnrh2XDmvPLZnKWihBPD8+AuYEEVTtPxWdu6TT5jPtHlsHDyoj8du6pIoq0bxhMcYauVRWc+hDB21563DesH90UphRP2Db+sXDB1dXZ8dVhpG8FJ3t9SNz74VU4JbGqL3GzxGY0K0P93xK9lxxBcFwKv5dT+Icb6P2rG3SNHLGX7Etp39TvhtSHnq4+eszagUCyG+4+YR9vY0g9J0gMXLD8il8RM5AU8Ds5Hk4mUnr2WXjPzT5VlSM9LgQP7tzmN4YsrN9nCxdCHRGNbcNw9Q3VM9nahysbUclGn/xTW9z9Gq+cyVAc4YI+fb5nEqwM9FGyySjc+hDCjzNcHe+Y2Y0XrNrTmKYUHYi0EAyr5Q5926q4/CUKGdTX4igmk8siMKSuPfSMy+Pcm2C+nTJjPmFev4bQFYnUhAvgxpYxMDbQRd1+86nfUDxG/e7mvvkobUYxO7V97qkiCgSeHAUXEwncGg3Dvc/hfL/LSvyOzRM6UHsaoePis4jVEOk0yRYutH/RRq0uU/kjsGVZqXhyZBFKWhnArfEwRMQm8tfGB95FbTdrmLnWxO5r7/gTxeQZyXhweBHK2xrA2HsgnmeLVUy4+Ccix+3FLfg1asYOnujYsSWcrEzgVrMLXCx10XrqiSKFC0VGAuZ0rg6xoARKaEtha2fN73UgNXLCutsRfKc/MOM3SoC0YepaBW3bNIG1vj5qNm0CJ6EYfbblCheZ3++jgSMZNg1UUiMLWOqLIC/6ETEAABy5SURBVNKzQJup66kjCdB9+T3VtXI8WtEahhTQGtmVQ4f2reBqYwrXGt1R2kYPjccd/rFwQbw+PRsG9NwltA0w4qy6YqokPe49WnpzZ6aXgA4FrA72ltAp8QsEEkN0nEHJRI5CSSWKeoLfvCwhoGuFesZwcbKlBE2L3yivyYwzfAJbFLKEQPSr6UrJJ/2W1BRWpvp8AvLr2HVoXFIEx34ncgd+eTQmtS7H319sbIeqNeugqje3zlAHumZl8ShIM4BOCz6IUvpCaGmJ0Gbt03wBhCL6Adp40LNR2Y1tS6Fm7TrwLmVDDplswm0EAgub+ymPwdym5eg6IWzcK6JG5XKUKGtDQm2/9S6XoCgv+3afgi8rfT55sXGvhFq1qqOknTG0tQVoP/UAlYd349jdtxQ9sxtO+xdHuAA+Xl4HMwqghUb2aNauHSo4mcGufB10KiWES9u5KuEiHRMaWtFv68DFozKqV3Djz742pQDtnSoRermxE193JvTsderUgKWhGAI9a8w89T6nruSxb9C7ki1E1D4CqSFcnO2hS7ajLdJHvTF7kag2OEZ/uYDKZMdaVJ9SM1tYmehDS1sIp+ZzEM5PE89Ar+qWsHRvD/84lSDhtwde5rpkW6Zo1KotqpV1gLF1JdStUpqu65QjXHBspgRKSvVcQmgAGxsLaFP9e7YZToGnBAYNZuUIF1DEYXv/KtAX6UBLIIG9sxOM9ERk70I41BkBn4SiN7hLCLlHAaIRlckYv7bqgDreLmQfpdGqsitMPZojogjhghvovhyfATtDCSXCWjCzsoKU6tjQrhqGj+9CbWCMo29UbycpmJ9QXym8uFVtgDaNq8LcxAL1qB64ddObb2YHjtSaIS9Qw8mE6pba0M4RevpVcSEqkwbcAHSvbAUdqouK9ZqjSS0vGBpbo1GD2hAZ2OLae1WiWgjJX2+ivos5v8eJgaULatWpDa/SnAClDYsmM5BcxDIJWchteJAdOnVckk+46FvPFRblmiBIJVxwvuvZ7on8xl1av1B/s7BV7kuhRb7MvhKOv+NmXCmvzPI9jNKUoJcZeix/8CUjf0HJG3fUcvnaTdGsTnkYGVuhQaP61F4mOP1SKVQVRsSLYyhlTnZJvtbAzAaGEiHZamlM3zENthIDzLxMAZfqJ+UULPeuW4r3N1IzZ1SrVQuVPFz4fmRbvg38c54tP9nChbFlaZRxNIdAKIEd+VFuOZnI0AELL3zKSTwi7m1FSVNKVERmqNuiNWqXsYBZyXro3tABEs+hCFD1V9nX03DXFaN0/90a9Z1Nqv8tlKGElRO9zGztIdGvjetRSvFhQY/q0LfxwBP/XHu4vn4kTLl+UUIIC2srKpsOrLzaYeGQqhAbNcJ9lXAR+WgX1ZkeX746zVujTllLCqxqo1cTCpK5E2mKEi6IpPBXaFnBkferelalUYPq0dvNnupVB+4/OA4VmUlYP6QJjKQC/FKCymdnzwt4nF9xrd0DgXFKMTU54hPqljaBUGoE76q14FWSxi+uv9ebUGT5ZEFX4EnJi2vXtbmbUCrisWdITRjTb2rpiHn/YUz1xP2mfc0heBOTu58FZ+uLetWjpIgbT6WwsbXij6WWGjpS8qB8i35kXg9+fwtjl4po3aox7IwMUb1xQ7iIJei5/mrOrIgbG0dAqmeCFRe502bkSLsxnfcjIiNbVK1RA67WNDYKpeg4fQ/SijqCVpZA/q8WP0NLS4fKZEn1Qn7Qud4YdG5QCmalB+BLzowzOXZMbgdj6sfaYmN4VqmBGlW8KVkQQUhJ1tH7fiqxqmASfa+jritnO2TXuiZwtLOCmP5bQO3QZ/mZ3KNAZaGYUsmYT2peFiBcPNreD0YSXSw6xSVnnOidjD2jakFfzxCW5EOtrCxhYW4GA12uHQwx+9CznFk0AdR/PO1N+PbmxuNaNaujlB39P/nE9lP3qAQpGmcHelKS7Y5jPurCRThG1ywNfffmCNcQLjIwrrE9tWNtPAwqfINijieH58DOjMZ5bTEcy1ZGrRpV4WhpSOOTCCO3XS7yONSsqLfo4GlHNkP1p2cGCyNdflPNxtN2oLKTAX6deBpJanPQz60YAmtj6uNkayW9qqJ29cqwMdGDjsQKS2++pWQ+E5fHelNdCmBiXxY1qldUxpPUNouOP8mxNUVaIIZXoj5Iv6tHY7WRVB+LLnwnf6vA0v6/0nhXDnfeZx+JmYEB9V1gU6YtJbmawsWmThQP6FXFOZVwwRH2dCcqUUyiQ75dz9wethacEKBF8ZE95hx5meO7FGlRGNHYE2KK9wYcC/jhLJKk4OfoUKUU9PgXehRXW9nBxsKYH6t0KR4cvOMFn+g93D+ZH2cMrN3Qqm1LlKJYoWyVuihjKEXjURtzhIusOF/0pbbnYgoBxZ6WxvoQcmM+xZ51S5MfGXJYuVSErCLwyEi4kG8Vk+9u2rIFvFwsYVO+E6qVs4Rzi6XFEC6A2M/74GFNiTHZSZu13JH+mj5cHnYdrb3teVsQUx5gT+UW0LOJdM3RdXnuiSQcCV+uoYE72Q0XC1PbOnD9jvyrgGyn97LT/OkyRSEnvzW3T0P+9CFtqTn5zBqoXqkc+QERdB2r4nkxjkO1tHVDaVtTiMS6FI+ZU1morBQDL7jgk/vCIcsfgypaUP8agDfZwoX/CVQkm3DvvxcxvHBByGOxfmAd8u1UHvJx9k4OMOTKRv7XkfzWqzB18TAT1+e1gwX5ZM5nWZpQPxl1ELFJ6biyYSTFsRIY2nugRaumlMuZoUKdeiglFaPd7P2qU0XoDlFv0LkCjV9c/embwoJsQ0w20HjiBlR0NkGjSSdUwgW1vjwTCwY05n0k70/t7fi4WVsgRtmGQ/AxRClIF0b2UhGbyvVR1sYYApEuzE3JP/B9whVrLn/KrS9FJh5sGAYXC+WRvKZWFEebUpxEYzM3e/Oin+ooVI5MH3T3toSe51gmXPyTkGUk4MG5PRg/tC969B+BXafvISoxBU/u3sBr/6gfOiLu7eqdM3swdnBvdO/VH7NW7sLTz5S45vw9CvfP7KK/90HvQeOx/+IjRMdG4OH1q/AJjVNdpSQx5D32rpyFPj17YNikxbj63I+Ck0Q8vH0N74OUZ/xycDvwPr6wDxOG9kOPfiOw/eQdRCWl4tn9m3jhG1Es481IisTdG1dx5cYjRBU4WCiQEOqLcwfWY8SAXujStSfGzlqBq08+Ic9WBzzcjIfLhzZgzOC+6NSlG8bMXI7Lj98j7+ZMhZERG4DTO5ejX89uGDh6Jk7cfoPkjDS8eXAd9z/mrtvnSIsPw/2LBzF99CB07dwZfQaNwvKth/Dwlb/GNC4OhTwdL+7fwJWrtxFUSLKZEOaPS3zZ+6Bz564YNGoythw8g1d5jpnSRIGk0C84u28dRgzsg+49+mL60q14zB0Npf4dRRZCvrzEvvUL0J+erUu3nhg9ZR4On7+JgIjsKYcKhH18iKvXyDa4LZOLgywNvs+uYOGUEejRsx8Wbz8Jv/AY+D+h+nrDHSurvE9U4Fsc3rQQQ/v1QvfeA7Fg02G8D8ytz4ykcNwl+506iuqyS3dqtxW49uxjvmQxPe47rh/bztscV0cjpy7CuXuv+B3uNVDIEO73ErvIjnt264oBIyZjz9m7CMsenOhZ3z+5jVsP3vEBUvZnAa9uYNm0kfQsfTF33UF8DEtCwLsnuM1dp9YIWclkt2d2YvTAXtSfxmHnGbp3Qgq+Pr+BWy+5jVlzr+X69oubJzBv4nDeTgaMmIK9dH3hx5apQc8RQm2yYf5E9KA2m758B15/jcR3n2e49fCVxlTGAqHBx+/pFcwbPwQ9e/XD7LUH8eF7LGJDP+HatTuISMqd+ZMU6Ydjm+ZjUO+eGDp+Hq4880Ns1Ddcv3Yj5yhRJTKEfbiDJVOHoxuVaeaak4hWjWAxQW/Jd8yg/sP101V48P47IoI+4tqNu4gtxlrilGh/XDy0EWOH9EGXzl0waOQkbN5/lp6ZE2ALry1FRhye3LiG+2+/UV9Ru47qz+f5PWq/V0hT9y9UL9/e3semRdPQr0dXdOs9GMu2HcU7qlv17yvSIvGQ/NNjfrZM/t+P+/4B+9fMRn+qs9HTl+H262+I/P6Z6vY2Ivnjc4tChsgvT/m27dWjF8bP34RHPsHITA0mn3gLX2OyNPxNcvQ33Di5ExOH9ac+0hX9hozF2t3H8dwnKOetb0Hk7nHRBe8+vMX+tbPRvWtXjJi2lPqY5pFvZNn49uY2ls8Yg169+2LG6j/gExyDMJ+HuPHoU86bSEV6NB5RfT/6GKZZ3zmQv3l7HQsmDkO3Hn3w+6YLiFHNCgl4/xTX7zzKmSnAk5WEt3dOYcbogejZZzCW7DoL/7AExPg/w/XbLxGfY+dZCH57FytnjUWvXuTrVh2gMSkK4R8f4eZj8heFO0oV5C/D/XDx8Bbys73RhepxIGdj5Gff+FGAXOCz5MK9JHh1+yzmTSJ/R3XYd+gE7Dx5DYFR2Xsd0DXyLPi/e4CtS6kf9OqGPoNHY8Ohy/gWQ8loEbdXpMfi8c1r1GeCNQJ1GQX2L6lu5k8aiW7UJ/oPn0zxwW18j81dnpeNjPzS/fP7MJGLIygOmL5sBx5+yJ0VkJUSg0fc38mG+gwaiz3n7iEiOhyPb1zHe2rnbBuPIxu+fv0mgqJVsxxkSXh16zQWTB6JXt17YPDYWTh+/QmiqU/nKUI+uOe6R7HH6IG90XfQaGw9fgsR5If93zwiH/aRxuZc+5OlxeP1g0tYOnMs+bsu6N5nEH5fvgXXqf/Gk70U/VsKpERQrEBj4ehB5D+69sCEOatw48kHPonMQZEB/6c3ceP+W34td14SQnxwg3xeYFQq1YccD7aNgYWxNcbsuI6IuAQkxscjJjIc728fhqetMT+bLkE1ewDU9qFfXuHAxkXkR7ujq2qc/ePsDXzl1+BzT8CNs49wnWKeSApicp6JyvXl2X3cpGfN4I8nz0aBLy/v4fqtF0hIV7u+IGTp+Pb+MbavmIP+ZHtduvfG+FlLcPLKXeWRlD9orPRoGgO2LsGAPj0xeNzvOH2PGx/T8OLBLYrpKA5R9zNZqfjy/DbWL5iKvj26oSv186nzV+PcLc4u0vnfykr4Tj5rFyaNGESxSS9qj9W4/ZxbXqJZ7ymh77F1yVT07tETY2atx8cIru6Bbz7PcePOQ+VsA/5KhdKfP6S2U29T+jzkHdXRzWeIzlCzE/L/ob4vcYDingHUHt2oT8xeuRuPP3J9Qq0MdF3wB/qtm/fwnZLEItxpDlkUszy+dhzzJo/iYwwu/lu9+wRefOZmoCjvzSXlb24dx6xxQ9Cr71DyA5cQGB6JF3dv4SV3ndr4nRETiDO7VmBw3x4YNJr6161XSEpPwetHtyme404OUhWK7OT9vTP4fdxQ9Oo3BCt3n0NgTAo+vriP+6+DCl2Kpo48KwUvHt7G1et3KR7V3Ksrm1jyAWf3rsYo6ktdyY4mzluH688/kT3kjaUVSKZ+d37/ej527cr1u99X4TrF3ZzQVYyq5POTpzdOYu5k8qtUl736DcXCtbtw+9mHosW2nD0ueuLVy2fYv24uepN/4sa2q0/Jt2j0+3R8opiPGyeSM5X9SJEehSe3b9A4Fp4zQ4kjMzUWz25S23I+t0sXDBw1DXvP3uFjtrx1xcUIVw6s5dut//ApOPviOz8bhfNlL64fwYwxg9FnwChsPXYNwRHheHr7Jj/7Sb3t06L8cHzbUgzq25t8K/W7O5R3pCfzbfTSN1JDsM1MojKT3c2heLJHt258PHngzG2EcJsy/6Cy1fe4ePfqIbbMH4/ePSn2+H0t7rz7lrNXYQ5ka19f36UYZQqfN/TsNwwrdx7HuwCyR43+k4r3j6lun3B9O699/Bww4YLBYDAYjP8Citqck8FgFIE8Awu714KhQ0U8y3NyT2aUDxq5W8Oh7gBKrAs7ZpTBYPxdFLU5JyM/hW/O+b8PEy4YDAaDwfgvgAkXDMa/iCILe8a0hFRigKZjN8KX23+AOlB6rD9WjWwKA7EOfpt5CKl5Z/wxGIy/HSZc/DmYcMFgMBgMBuOnhhcuKlvBvkI3BGos+WEwGD8iLfQVfh/YGg4mUugIRdA3MIRQKISpgyf6z9wK/5h0ljAxGP8PcMLFb9WdUKpGn0KPXGXkkhV4jhcuSvXcgogEJlwwGAwGg8H46VAgxPc9PgRo7t/BYDD+BPI0BH15jydPn8E3mDshifUlBuP/FYUc33198CmQ2wfix3t7/ONRZOCbzxsERiYVuuHp/ypMuGAwGAwGg8FgMBgMBoPx08KECwaDwWAwGAwGg8FgMBg/LUy4YDAYDAaDwWAwGAwGg/HTwoQLBoPBYDAYDAaDwWAwGD8tTLhgMBgMBoPBYDAYDAaD8dPChAsGg8FgMBgMBoPBYDAYPy1MuGAwGAwGg8FgMBgMBoPx08KECwaDwWAwGAwGg8FgMBg/LUy4YDAYDAaDwWAwGAwGg/HTwoQLBoPBYDAYDAaDwWAwGD8tTLhgMBgMBoPBYDAYDAaD8dPChAsGg8FgMBgMBoPBYDAYPy1MuGAwGAwGg8FgMBgMBoPx08KECwaDwWAwGAwGg8FgMBg/LUy4YDAYDAaDwWAwGAwGg/HTwoQLBoPBYDAYDAaDwWAwGD8tTLhgMBgMBoPBYDAYDAaD8dPChAsGg8FgMBgMBoPBYDAYPy1MuGAwGAwGg8FgMBgMBoPx08KECwayMjOQKVOo/g9QpAbi5P4DeBqcjtxPGQwGg8FgMBgMBoPB+M/DhIt/OIrYm+jRqBZa9VuDyAylTJH5fB4sdXTQcPEryBVMumAwGAwGg8FgMBgMxv8fTLj4hyPz3QkPcyM4VR6Cbyky/rPMZ/NgoaODBotf/kvCReSLE6hdrQYWnX0NBRM+GAwGg8FgMBgMBoPxb8CEi386ikzERUchNiE1Z1nIvytcfL24CkItEbqvv8FmbDAYDAaDwWAwGAwG49+CCRd/A6kRPrh65QaC4rNUnyiRxwXi5pXr+BSdofoESI/4hOs37iM+Q4Yo/2fYsmI+ps+ai/3nHiJDJqcrFIjxfYiNy+bR5/Ox//xzJGneNh+ylBjcuXYVX0LjkZUajnP7N2HOjOmYt2wDHnwM1dy3QpGKF3eu4f77MCjnWxQuXMjT4/Ho4h9YvmA2Jk+eioUrNuL6C3/kXKJIx4d717F73iDoaAlQf/hCnDt3Dhcu3kB4MvcsShRZqXh7+zTWLJmHyZMmY96SNThz+43qeRkMBoPBYDAYDAaDwciFCRd/Az6b20NEifvMM6G5ST0RfWYShFpCtNv5HXL+cwXeb+sLoa4r9j/4AzWcjGBgZAwDqQgltPXRa9cbfLy+Cc56Iv5zffr8l1+0MHzT9SKXYES/vQQLPQH6zVyCHl4mkOrqw9jYECLtEhBaVMIJ3yTkSASZz1DLXAe2DZYgVrVBZ0HChSIjHvN6VIO2ljZ09Q1hYmIMXbEOSgiM0XfzI6TK5FAk++M3NytIhAIq5y/QFgghkUjonyH2PU3g60KRlYQD01pBrK0NiZ4B3ceEf64S2lI0m3UKiRlMvGAwGAwGg8FgMBgMRi5MuPgb+LPChUBbBEsTPfSZuxefA4Lw5eUZNHYSQ0vfGfYOrhiy7hz/+dsb+1DKQAQ9j84IySo8wc8WLqRSXTjVGYprzz8iOCgAt3YOg6VIC9aVhuBbkmp+RXGEC0Uyjo2uDam2BHVGbsaLT/4ICQnCu8fn0crLHAJdWxx4EgiFPBOBH17j7Lrx/IyLZlM24cnTp3j2/A3i0rjyynBr9QDoCwQo12UeHrz9gtDQEHx8eQNDfrWHlrYuZv7xTGOWB4PBYDAYDAaDwWAw/tkw4eJv4E8LF/RZ5ZHHEK92JOnx6Y2gU6IEOs85nJvIKxKxppk1tERlcDRGprnkQ41s4cKyUnd8TlEXODIxupEDBAbWuPI+Wvn9YggXaUFPUNZUCtNKPRCeRzB5tm8qdLTo2hnHIVc+VKF7XMhSY9Clii307KvjdUSyRvm/Pd4LC10deHX+HTI5m3XBYDAYDAaDwWAwGAwlTLj4G/jzMy6MMP56lMa1t3cMgKiEFpac/KD2uQyXRrpDW8ceG/0yfyhc1Bu+MUdMyGbXpBbQFhlh0+3PyvsWQ7j4+nAfjCXaaDhma777ZXw8DSsdLRg3nJUjOBQmXKREv0YFKyHc6o9FXJ4lIbLwt6hsbQA97y6Qsb0uGAwGg8FgMBgMBoOhggkXfwN/iXCxa1CBwsWV0WV54WLDl39NuDgxvyu0BAZYeuVdsYWL91eXQV+ohU7zjmoIERzy8NvwEmtBUHnUD4WLxNBzKG2ojYrtFyE5jzihSPRFSycT6JRqyYQLBoPBYDAYDAaDwWDkwISLv4Fs4WLG6ZCfTrg4MK0ttEWG2HDrU7GFi48318JAqIXW0/blu19WwGW40t8MG8z4oXCRFHENZYy14dlsBhLyLDmRx3xEPXsj6Hl1ZsIFg8FgMBgMBoPBYDByYMLF38Dng32gq6WN4Tvf5ooOiizcW9oZOiX+c8KFZ6c5yNAQGuSY0qY0v8fF5Xf0e9xHxRAuIt6chyXdr1SrKcjMs/+E7/llEGnpoN7UYzmiRsAlpXDRdd11DeEiIyEQdVz1YO7ZEiHxmapPlUS9vwg7QyE8Os5me1wwGAwGg8FgMBgMBiMHJlz8DYS93gxbiRYqdpiNiDQZFFkpeH1lK8pYG0C7hOA/Jlz8QvftsuQ0whPToZClw/f2KpTU14aFdx8EJBb/VBFF4lf08DSHltQJCy+8RTK3P4VCjviQDxjVvCx0pFbY9eBrTjkj722HREsHlQZvQ0qWArK0JGRwP0f1MK9TJWiLTDF65w3EpHLihQLJUV+xcnBNCLUlmLz3kUrsUODpwdlo1qQV9tz01agbBoPBYDAYDAaDwWD8c2DCxd9AVlIoOle0g5a2EBbOHvByd4a+rgEGTR8EJx0h2v+HhAt7Vxfo6Qhgbu+Git7uMBTrQEuvJDa+SFD9PlEM4YIrZ9L7PShnLIC2SA+OZcqjRhUv/ghXbS0RGs68iCS1pR/yuOdoYKwDbaEeSntXRik7exx6kcg/R+rXi6htJYSWjgQ2LmVRu0Zl2FsY8SeTePTfjuj07PtkYU0nR2iV+AXdF5zMt0SFwWAwGAwGg8FgMBj/DJhw8begQOyXu/h9VC80qFMHLX7rhw3H7iMpxgdbFi/BWZ/co0Dj3l3GooUrcPd7qoYQ8f3dVSyYvwBP/GJVn3Ao8P3ObixYtAFvEwpfTpG7x8VafLi2F4O7tkLdur+ife9ROHLHR3P2gjwK+9csxPpjL5Cu+oM86inWLFyEY89jNK4NeHEZs0f3Q/OG9VC7bn106DUMW07eR4bGDTkUCHp0EEO6tOZ/t12vCXgTkSu0RPs9wtIpw9C6aQPUql0Xbbr0x4o95xGfkaW6Qon/g6NYuGAJ7n6M1Cwzg8FgMBgMBoPBYDD+MTDh4n+QojbnZDAYDAaDwWAwGAwG478JJlz8D8KECwaDwWAwGAwGg8Fg/K/AhIv/QWLeKYWLX0dsYsIFg8FgMBgMBoPBYDD+q2HCxf8g8rQ43L5wFi/8wjT2zWAwGAwGg8FgMBgMBuO/DSZcMBgMBoPBYDAYDAaDwfhpYcIFg8FgMBgMBoPBYDAYjJ8WJlwwGAwGg8FgMBgMBoPB+GlhwgWDwWAwGAwGg8FgMBiMnxYmXDAYDAaDwWAwGAwGg8H4aWHCBYPBYDAYDAaDwWAwGIyfFiZcMBgMBoPBYDAYDAaDwfhpYcIFg8FgMBgMBoPBYDAYjJ8U4P8AogYbYvDkeOkAAAAASUVORK5CYII=;" parent="1" vertex="1">
          <mxGeometry x="68.76" y="30" width="677.24" height="100" as="geometry" />
        </mxCell>
        <mxCell id="2Cuy6g12Aj8nrBfPKS-0-26" value="MARCA" style="ellipse;whiteSpace=wrap;html=1;" parent="1" vertex="1">
          <mxGeometry x="614.87" y="355" width="105" height="40" as="geometry" />
        </mxCell>
        <mxCell id="2Cuy6g12Aj8nrBfPKS-0-27" value="Nª LUGARES" style="ellipse;whiteSpace=wrap;html=1;" parent="1" vertex="1">
          <mxGeometry x="614.87" y="405" width="105" height="40" as="geometry" />
        </mxCell>
        <mxCell id="2Cuy6g12Aj8nrBfPKS-0-28" value="AUTONOMIA" style="ellipse;whiteSpace=wrap;html=1;" parent="1" vertex="1">
          <mxGeometry x="614.87" y="460" width="105" height="40" as="geometry" />
        </mxCell>
        <mxCell id="2Cuy6g12Aj8nrBfPKS-0-29" value="LOCAL DESTINO" style="ellipse;whiteSpace=wrap;html=1;" parent="1" vertex="1">
          <mxGeometry x="353.68" y="405" width="113.75" height="40" as="geometry" />
        </mxCell>
      </root>
    </mxGraphModel>
  </diagram>
</mxfile>
